<svg xmlns="http://www.w3.org/2000/svg" height="512" width="512"><path fill-rule="evenodd" fill="#de2110" d="M0 0h512v512H0z"/><path d="M167.48 127.3c7.353-.718 8.847-.622 14.246.776-6.934 3.173-15.133 1.587-20.218-2.92-7.684-6.977-25.985-19.04-19.44-8.76 33.952 37.624 63.194 12.185 80.977 33.85 6.057 7.378 11.407 17.285 8.22 27.014-1.09 3.33-5.027 11.164-9.786 9.172-6.235-2.607 1.18-23.087-3.358-29.75-10.3-15.13-28.965-11.083-44.28-12.718-4.442 12.048-15.145 10.233-24.985 4.155-12.562-7.76-12.184-26.838-23.41-33.14-11.7-6.565-9.794 15.426-7.91 20.65 8.167 22.643 32.213 31.106 54.222 27.08-16.29 25.22-42.108-16.327-54.896-6.15-8.115 6.456 6.218 18.203 11.183 20.9 13.737 7.455 30.243 3.71 43.712-2.25-7.69 8.35-21.84 13.476-33.33 11.78-5.932-.874-17.82-8.33-23.223-3.36-8.344 7.67 12.027 16.77 16.974 17.845 16.678 3.628 28.49-5.172 41.66-13.768-8.27 8.267-17.1 19.587-29.16 22.06-7.522 1.544-24.122-6.132-28.982 1.836-5.813 9.53 9.597 15.558 16.483 14.962 16.315-1.41 31.463-14.537 43.745-24.278-8.44 11.973-21.468 24.643-35.412 30.053-7.32 2.84-19.9-1.553-25.41 4.823-8.49 9.823 10.2 15.62 17.078 13.947 20.08-4.884 30.79-26.854 49.994-34.24-13.025 11.996-26.823 30.582-41.848 39.475-7.465 4.42-19.64-.996-25.543 5.524-13.345 14.735 20.09 17.885 29.534 10.08 15.82-13.077 23.404-31.82 42.022-42.583-12.418 16.887-28.145 42.104-43.938 55.736-7.52 6.49-24.027.796-28.79 8.012-9.565 14.492 21.285 16.98 28.975 11.86 25.246-16.81 26.625-55.774 58.333-65.192-8.984 19.243-17.95 45.29-39.578 52.076 3.245 9.774 14.72 10.63 22.093 3.502 12.654-12.225 10.042-40.057 32.066-40.998l-15.882 22.263c.845 9.095 17.144-3.103 22.133-11.848h2.084c-8.678 20.7-23.997 32.26-43.744 41.66.387 12.342-7.87 18.7-18.747 22.913-5.853-10.76-21.45-18.766-29.162-6.25 6.12.826 11.59 1.976 12.5 8.333-9.705-3.503-17.363-5.164-20.83 6.25 11.37-1.867 15.254-1.453 17.185 3.516-7.772 8.95-6.504 22.565 7.81 23.888-3.992-2.884-6.683-4.795-4.49-8.657 3.175-4.216 6.933.05 8.774-2.462 3.436-5.014.34-3.262 4.723-1.243 3.59 2.57 9.432-8.187 17.747 9.957 10.002-7.195.38-18.566-3.84-27.08l31.245-6.248 35.412-33.328 2.083 2.083c-11.446 18.01-27.92 33.473-49.993 35.413 7.39 13.4 21.884 6.49 33.328 2.083-4.976 9.71-17.895 9.763-22.232 17.797-8.892 16.48 28.26-.51 30.564-1.134-2.968 10.456-14.67 12.55-17.712 21.415-2.362 6.883 7.28 7.564 11.375 5.566 7.903-3.857 13.07-14.33 18.835-20.73-2.7 12.497 2.414 22.392-11.35 36.844l21.116 25.97 24.107-26c-13.306-11.514-5.134-24.98-7.7-37.464 5.636 6.61 7.554 17.457 15.563 21.38 3.734 1.83 11.443 1.888 10.506-4.263-1.327-8.71-14.123-13.184-16.83-22.718 2.667.88 38.683 17.77 30.4 1.13-3.927-7.883-17.215-8.33-22.067-17.796 11.573 4.458 23.457 10.078 33.326 0-18.345-6.374-45.633-17.23-47.91-39.578l36.005 31.002 30.653 10.658v2.083c-7.47 7.783-11.794 13.21-5.6 22.72l7.62 2.28c-4.884-5.383-3.255-8.16 0-10.29 5.51-2.625 8.827 2.474 10.96-2.79.968-2.552 1.308-3.754 1.8-.635.543 5.522 8.194 1.275 10.868 1.995 4.186 4.124-2.04 8.246-2.734 11.718 11.836-4.147 14.073-11.41 10.415-22.913.78-4.362 3.517-6.445 6.25-6.25 3.104.37 5.556 1.39 8.33 2.084-4.06-10.617-11.233-10.215-20.827-6.25.868-6.358 4.014-9.46 10.415-8.333-4.81-14.433-22.204-2.848-27.08 6.25-11.328-3.76-22.172-9.895-18.747-22.914-19.14-9.11-36.956-20.397-43.743-41.66h2.08c4.99 8.744 20.966 14.757 19.855 6.64l-13.604-17.056c29.297 1.258 17.628 54.513 54.16 43.744v-4.165c-21.022-11.71-29.658-32.914-39.578-54.16 31.18 9.264 32.212 47.938 56.436 64.827 7.746 5.4 40.352 3.953 30.766-11.494-4.312-6.95-21.507-1.934-28.794-8.013-15.823-13.198-31.737-38.862-43.827-55.736 19.136 12.16 28.295 36.653 47.913 46.477 8.284 4.15 27.92 3.53 25.103-10.765-2.004-10.174-18.32-4.5-25.073-7.396-15.154-6.497-31.63-29.188-43.775-40.813 18.187 7.987 28.97 28.335 47.91 34.05 6.97 2.104 24.97-1.03 19.983-12.318-3.543-8.02-19.405-3.697-26.23-6.155-15.01-5.403-26.543-19.206-37.496-30.158 14.7 8.455 27.996 22.758 45.827 24.278 6.886.587 24.747-7.583 15.368-16.296-6.102-5.667-18.437.657-25.782-.177-11.832-1.343-21.78-11.777-29.162-20.303 17.206 10.57 70.61 15.073 61.254-7.03-6.495-5.404-13.592 4.008-26.367 4.363-13.385.03-26.66-3.144-37.62-11.59 13.957 4.713 29.974 9.713 44.363 2.972 5.115-2.398 23.43-17.57 11.594-22.78-9.23-4.06-18.74 9.015-26.145 12.323-9.178 4.1-19.887 1.112-29.162-1.173v-2.08c19.024-1.01 37.915-2.092 50.432-18.83 4.11-5.5 14.823-28.013 2.855-31.68-4.776-1.464-8.478 3.304-10.467 6.888-5.845 10.536-31.91 52.38-42.82 22.79-15.347 1.64-33.936-2.398-44.282 12.718-4.59 6.71 2.5 27.293-3.694 29.75-17.506 6.945-5.814-31.31-1.57-36.185 18.863-21.685 69.87-3.015 78.708-33.36.96-8.048-10.51 6.352-15.908 9.843-5.85 3.604-13.275 3.84-19.503 2.655 6.61-3.46 11.914-2.366 16.08-3.06-3.91-6.87-12.877-5.998-15.17-9.804-2.99-5.4-14.92-6.975-21.7-5.905-12.89 2.85-17.85 6.693-41.7.02l10.415 12.5-14.927 6.236 6.595 4.177-12.498 8.333c2.083.694 7.043.698 6.71 2.658l-10.07 17.125c-2.09-3.59-8.96-12.99-9.93-16.596-.484-1.61 2.42-2.36 6.352-3.073l-11.81-8.446 7.632-4.46-15.965-5.955 8.332-12.5c-13.283 8.86-24.686-3.523-40.065.1-6.557 1.49-11.852 8.79-18.027 7.573-5.207-.89-11.278 2.205-14.93 8.992z"/><path d="M132.34 331.3c.65.313 1.848.156 2.03.86-1.224.442-2.682.494-3.906.39.573-1.302 1.225-.807 1.876-1.25zm55.86.23c-.65.313-1.847.156-2.03.86 1.225.442 2.683.494 3.906.39-.572-1.302-1.225-.807-1.876-1.25z" fill-rule="evenodd" fill="#de2110"/></svg>