<svg xmlns="http://www.w3.org/2000/svg" height="512" width="512"><g fill-rule="evenodd"><path fill="#0021ad" d="M0 0h512v512H0z"/><path d="M0 0l512 512L511.71.38 0 0z" fill="#1c8a42"/><path d="M345.384 258.746a92.49 92.49 0 1 1-184.982 0 92.49 92.49 0 1 1 184.982 0z" fill="#ffc639"/><path d="M195.39 217.47c6.327 8.688 15.91 23.235 23.624 19.44 6.012.02 9.122.447 9.937 4.445 14.196 2.42 38.05-3.57 52.886-22.896 0 0 1.254.16.818-7.187.082-3.205 4.377-2.558 4.48-1.525.6 1.59.493 2.785 1.298 2.824 1.836-.614 4.33-4.71 6.424-7.307.572-1.147.26-2.36.394-3.798 1.102-2.72 3.856-2.126 4.44-.706.52.918.528 1.625 1.05 2.54 2.795 1.864 7.845.125 8.24.125.495-2.276 1.96-2.063 1.96-2.063 1.862-.412 1.136-.245 2.355.392-1.08 12.293 2.418 12.834 2.13 19.146.124 7.034-2.13 9.035-2.13 11.728.715 3.274 11.097 3.388 7.442 6.164-3.21 1.717.018 4.93-4.82 6.172-14.05 7.136-16.745 13.257-16.745 13.257s-3.53 6.67-3.922 6.67c-2.36 4.45-5.342 2.02-6.997 4.19-.828 2.726-1.76 8.76-.102 11.9.828 4.313-.102 6.665-1.14 10.98-.93 9-4.495 10.362-4.907 13.526-1.657 3.373.348 19.22-1.22 19.22-10.467.208-18.488-2-22.627-2.827 4.035-17.384 2.473-32.668 2.473-34.236-1.038-12.435-18.636-9.407-21.324-11.062-2.236-.474-3.64-2.293-4.426-3.078-2.486-.262-3.416-.834-5.902-1.093-1.242.62-.493 1.264-3.262 2.114-7.015.847-10.118-6.115-10.118-6.115.342-2.348-15.774.477-24.536-1.556-3.594 2.002-5.162 7.923-8.108 8.63-.083 1.834-4.836-1.51-5.795-3.315-.206-5.256 4.58-7.584 4.58-7.584 3.792-2.667 6.05-3.106 7.876-4.946.916-4.575.453-7.96 2.403-11.4 1.65-2.624 4.084-1.392 5.734-2.57 1.78-1.177 2.527-8.873.893-10.983 0 0-7.103-6.41-7.495-6.8-2.313-6.63 2.7-10.898 4.14-10.418z" fill="#1c8a42"/><path d="M455.51 64.507c-2.437-9.64-24.24-30.4-40.625-43.612-3.914-2.665-6.464-1.078-5.954 2.722 2.043 3.403 3.57 7.144 5.615 10.546.567 2.268 1.644 3.855 2.21 6.123 0 0 .17 3.912.513 4.252 5.102 5.616 5.782 10.377 5.782 10.377 2.947 5.67 5.555 9.81 10.716 14.458 5.783 3.63 1.53 14.913 1.7 20.924 0 3.8-2.72 3.346-5.102 2.89-18.768-17.236-37.366-17.292-53.754-22.28-6.406-.682-6.52 2.38-4.422 4.08 11.453 12.248 22.228 20.583 36.403 27.557l7.146 4.424 8.164 6.803c6.293 4.085 6.804 7.828 6.804 8.166.17 7.655-3.913 13.608-5.104 15.99-2.15 8.118-6.463 9.526-6.463 9.526-35.04 23.646-53.414 29.77-110.23 22.454-.85-.454-6.294.454 0 2.722 14.46 4.82 49.978 12.546 84.34-3.727 8.25-5.784 13.77-3.887 19.748-7.35 9.812-6.05 23.83-13.587 26.38-14.437 7.656-4.083 29.088-8.676 34.02-12.76 5.67-.453 11.545-1.197 11.942-6.073 1.865-1.203 4.585-.326 6.61-4.295 4.49-.782 3.733-2.39 3.733-2.39-1.133-3.175-5.33-4.48-8.334-6.804-4.423-1.473-7.484-1.926-10.718-.34-1.02.456-2.04.91-3.06 1.36 0 0-4.764-.677-4.764-1.02-10.584-.58-9.554-35.654-13.298-50.283z" fill="#ffc639"/><path d="M480.324 121.93a2.615 1.634 15.948 1 1-4.986-1.567 2.615 1.634 15.948 1 1 4.986 1.566z" fill="#1c8a42"/><path fill="#fff" d="M52.902 392.237l-11.765-11.014-11.907 10.86 1.276-16.06-15.915-2.54 13.357-9.018-7.94-14.023 15.38 4.817 6.013-14.954 5.82 15.028 15.44-4.62-8.12 13.92 13.24 9.19-15.947 2.335m80.65-77.673l-9.267-8.675-9.378 8.554 1.005-12.65-12.535-2 10.52-7.103-6.255-11.044 12.113 3.79 4.737-11.775 4.585 11.837 12.16-3.64-6.395 10.964 10.428 7.238-12.56 1.84m12.955 211.426l-15.492-7.808-6.194 16.208-5.428-16.477-15.84 7.08 7.808-15.485-16.2-6.195 16.477-5.433-7.087-15.833 15.492 7.808 6.194-16.207 5.427 16.476 15.84-7.08-7.81 15.493 16.202 6.187-16.476 5.433m77.856-100.73l-11.727-.35-5.657 10.29-5.565-10.337-11.728.25 6.17-9.98-6.09-10.04 11.737.35 5.645-10.29 5.565 10.337 11.735-.25-6.17 9.98m-68.125 42.008l-9.994-6.67-9.732 7.024 3.427-11.316-9.87-6.842 12.11-.324 3.626-11.262 4.066 11.118 12.11-.113-9.6 7.198"/></g></svg>