<svg xmlns="http://www.w3.org/2000/svg" viewBox="0 0 512 512" height="512" width="512" version="1"><defs><clipPath id="a"><path fill-opacity=".67" d="M218.92 2.603h494.61v494.61H218.92z"/></clipPath></defs><g fill-rule="evenodd" clip-path="url(#a)" transform="matrix(1.04 0 0 1.04 -226.62 -2.69)" stroke-width="1pt"><path fill="#fff" d="M0 136.96h959.78v208.93H0z"/><path fill="#087bce" d="M957.996 497.184H1.98V330.19h956.016zm2.35-332.206H0V2.595h960.347zm-479.254 97.537l-19.243 13.263 7.56-21.32-18.96-13.054 23.61-.093 7.523-21.33 7.033 21.26 23.612-.13-19.267 13.236 7.07 21.25m119.152 22.47l-19.243 13.262 7.56-21.32-18.96-13.054 23.61-.093 7.523-21.33 7.033 21.26 23.612-.13-19.267 13.236 7.07 21.25m-18.938-86.91l-19.243 13.262 7.56-21.32-18.96-13.054 23.61-.093 7.523-21.33 7.033 21.26 23.612-.13-19.267 13.236 7.07 21.25m-323.828 60.75l-19.243 13.262 7.56-21.32-18.96-13.054 23.61-.093 7.523-21.33 7.033 21.26 23.612-.13-19.267 13.236 7.07 21.25m-18.938-86.91l-19.243 13.262 7.56-21.32-18.96-13.054 23.61-.093 7.523-21.33 7.033 21.26 23.612-.13-19.267 13.236 7.07 21.25"/></g></svg>