<svg xmlns="http://www.w3.org/2000/svg" height="512" width="512"><path d="M0 0v512L512 0H0z" fill-rule="evenodd" fill="#ffca00"/><path d="M0 512h512V0L0 512z" fill-rule="evenodd" fill="#ff6500"/><g stroke="#000" stroke-width=".86"><path stroke-linejoin="round" d="M172.82 349.662s-15.852-.546-22.41 7.47c-6.56 8.016-31.814 30.492-33.887 32.067-.94.63-21.135 4.734-21.135 4.734 9.916-9.898 21.007-13.514 30.105-30.848-4.54 8.698-8.013 12.504-13.323 17.288-4.617-2.15-16.593 7.168-26.62 11.555.182-.365 10.996-9.107 16.858-20.263-3.34 2.914-10.967 10.243-14.307 13.158-7.94.757-11.54 9.558-14.574 10.748-18.604 6.047-13.092 2.365-17.308 6.378-1.7 3.328-5.334 5.98-7.55 6.2-17.455 1.728-17.96 7.46-26.885 10.745-5.703 1.667-9.326.055-12.57-2.188 4.372-1.577 9.816-1.2 13.117-4.735 0 0 15.986-19.047 30.606-21.134 8.38-1.46 9.657-6.38 9.657-6.38s-24.778 6.925-28.968 10.568c-3.938 1.122-10.647 2.09-16.58 1.46 10.962-4.035 17.745-9.577 20.77-12.937 1.734-1.924 12.025-2.004 12.025-2.004s17.31-7.47 17.673-7.47 13.118-7.47 13.118-7.47-15.302 4.008-15.667 4.008-17.876.727-17.876.546c4.665-5.97 21.476-6.386 23.888-7.833 5.63-5.63 23.14-3.462 23.868-4.192.73-.727-18.402-6.558-26.418-4.92-8.016 1.64-20.223-8.378-20.223-8.378s16.763-2.552 22.228-.183 25.143 7.47 26.237 6.558c1.093-.91 22.674-8.563 25.143-5.83-2.126-4.544-4.81-4.423-4.738-8.38l12.025.547s6.194-8.2 6.01-8.565c-5.622-2.06-6.893-7.764-6.893-7.764 7.208 1.2 9.627.294 9.627.478 0 .18 6.378-7.108 6.378-7.108l4.373-6.923 3.28-14.94c-6.625 3.58-19.313-.182-19.13-.366 13.79-4.835 17.963-11.843 24.23-12.206-2.685-13.612 5.284-18.22 5.284-18.036 0 .182 5.467-11.843 5.467-11.843s-5.84-1.965-16.763 0c10.352-12.286 26.785-7.833 26.785-7.833 3.39-10.895 13.847-6.924 13.847-7.288-2.663-5.933 5.326-8.943 10.52-8.764-.747-4.42-5.485-9.09-7.306-12.794 8.682 5.58 17.727 3.414 22.293 11.537l8.198.91s9.108 1.64 9.292 1.64c.18 0 9.473.912 9.473.912 1.63-4.618-4.123-4.03-2.733-15.304 11.096 5.514 10.333 16.474 19.13 22.714 6.934-.478 9.028 1.95 12.45 5.104 3.996-.848 8.876.924 11.417 4.977-.122-4.296 1.115-10.36 6.56-2.733l10.02-.365s-13.163-19.176-24.778-8.38c3.396-11.72 15.305-10.568 15.305-10.568s-3.096-5.366-2.915-11.297c-6.357-2.542-8.382-13.3-8.563-13.118-.182.182-10.827 2.11-15.668 14.758-9.08-9.868 3.222-22.122 3.946-24.3 1.25-4.67 2.5-9.337 3.752-14.005-.98-4.597-.6-6.878 3.598-10.523-2.8-2.9-1.51-5.66 1.82-7.47-1.125-1.982-.206-3.964.306-5.947l44.51-2.544 10.027 13.775 1.64 7.47-3.827 9.84 11.48 13.663 4.19 4.372 8.743 5.102s8.2 3.46 8.38 3.644c.185.183 9.84 2.55 10.204 2.734.365.182 8.018 4.555 9.293 4.92s24.778 0 24.778 0l13.12-1.094-.183 21.5-6.924 1.64c-2.983 2.563-3.848 4.062-8.95 7.69-7.065 1.98-12.184 1.6-12.365 1.6-.183 0-7.107-1.822-7.288-2.003-.183-.18-7.836-2.55-7.836-2.55l-12.024-2.916c-4.945-.775-6.922 2.553-7.287 3.1-.365.546-2.37 24.23-2.37 24.23s-4.19 10.75-4.19 10.933c0 .182-3.886 7.185-6.925 9.657-.565 2.895-1.02 5.984-8.015 11.112-1.484 4.635-.282 9.102 4.735 10.02 2.43.974 4.86 1.944 7.288 2.916l10.932 2.55 12.025 2.552-8.563 18.766-21.134-3.463s-14.03-3.644-14.21-3.644c-.184 0-15.49-8.2-15.49-8.2s-4.918-11.113-4.918-11.297c0-.18-4.373-9.292-4.19-9.837.182-.546.182-5.83.182-6.013 0-.18-14.757-3.096-14.757-3.096l-15.486-1.64-16.946-4.556-12.936-3.824-8.38-2.915-9.293-.73s-12.208 1.823-12.208 2.006c0 .18-10.748 3.096-10.748 3.28 0 .18-6.923 16.215-6.923 16.215l-3.28 12.388 5.1 9.475 1.824 26.418-4.737 9.838 3.28 7.288 6.558 10.75 3.828 7.47-23.875 7.567-3.09-12.305s-8.2-20.22-8.016-20.405c.182-.18.363-6.742.363-6.923z" fill-rule="evenodd" stroke-linecap="round" fill="#fff"/><path stroke-linejoin="round" d="M196.966 320.584c4.963 1.49 5.054-8.264 9.015-11.9 3.146-13.15 20.15-12.692 25.543-3.868-18.03-1.357-11.092 8.774-16.64 13.16 14.184-6.702 27.244-5.537 30.186 3.867-5.7 10.838-11.03 20.926-16.73 31.76-9.083 4.537-13.174-1.668-23.133-7.376l-6.965-1.163c-.256-7.868-1.015-16.61-1.274-24.48zm11.1 61s24.26-.76 24.35 10.917c2.216 6.71 9.242 6.196-1.517 23.916.43-22.792-14.19-23.347-24.443-22.82 12.79 1.79 15.066 20.933 9.457 28.246-14.486-.518-26.603-3.664-41.09-4.182-5.06-5.593-11.044-18.676 8.47-27.947l24.77-8.127zM370.47 316.96l6.964-2.707s21.41-26.005 37.927-11.61c-11.335 1.705-20.572 15.396-20.572 15.396 6.146-4.58 29.234-3.135 26.748 17.13-24.72 7.32-25.416 20.284-23.976 35.715-16.454-.278-34.607-8.792-35.37-35.224 2.194-6.32 6.087-12.38 8.28-18.7zm88.563-110.128c0 8.956-7.26 16.216-16.215 16.216s-16.215-7.26-16.215-16.216 7.26-16.215 16.215-16.215 16.215 7.26 16.215 16.215z" fill-rule="evenodd" stroke-linecap="round" fill="#fff"/><path stroke-linejoin="round" d="M420.163 236.346c5.97 4.603 13.076 6.284 26.186 7.802 6.903-4.055 19.65-3.89 20.63-12.895 6.885-2.458 8.414-10.758 2.72-13.053-.243-2.434.145-11.885-10.44-12.103 1.42 3.514 2.69 13.158 2.69 13.158-5.518-.65-9.288 8.9-9.288 8.514 0-.195 3.04-15.143-11.69-15.597 5.067 8.473-1.47 15.208-1.47 15.208-1.55-1.934-1.556-5.33-4.402-6.372-7.314-3.08-8.706-12.002-8.394-16.786-3.837 3.24-6.696 6.48-6.554 10.774.057 7.062-.29 13.88.01 21.348z" fill-rule="evenodd" stroke-linecap="round" fill="#fff"/><path d="M441.697 150.085c12.477-1.738 23.65-4.998 31.004-10.472 2.375-1.767 22.404 1.583 32.716-4.576-15.63-.9-25.984-3.123-28.768-2.202-8.755 2.555-29.15 8.22-30.75 7.5-.14 1.444-2.62 7.74-4.2 9.75z" fill-rule="evenodd" stroke-linecap="round" fill="#fff"/><path stroke-linejoin="round" d="M445.94 140.22c8.924-2.09 10.967-6.422 16.24-9.586 8.07-3.227 12.552-3.345 20.6-11.663-20.926 2.85-23.274 3.587-23.274 3.587-4.34 2.64-10.31 6.693-15.007 12.844 1.42 1.513 1.335 3.073 1.44 4.82z" fill-rule="evenodd" stroke-linecap="round" fill="#fff"/><path stroke-linejoin="round" d="M444.448 135.344c0-.086 8.166-9.163 8.238-13.048.357-1.304 4.17-3.458 5.602-8.56.93-13.918 2.224-14.223 2.224-14.223 6.557-3.682 5.16-11.665 8.205-17.64 0 0-9.622 10.743-14.997 16.634-1.433 3.096-1.81 11.033-1.897 11.033-1.518 3.583-5.437 4.05-8.446 9.998-1.694 4.512-.282 8.642-2.836 14.515 1.745.03 2.685.46 3.91 1.29zm-18.01 214.154c0 12.074-9.79 21.863-21.864 21.863s-21.864-9.787-21.864-21.86 9.79-21.864 21.864-21.864 21.863 9.788 21.863 21.863zm-211.724 73.938c0 10.967-8.89 19.858-19.858 19.858s-19.858-8.89-19.858-19.858 8.89-19.858 19.858-19.858 19.858 8.89 19.858 19.858zm35.89-86.708c0 9.46-7.667 17.127-17.126 17.127s-17.126-7.668-17.126-17.127 7.668-17.126 17.126-17.126 17.126 7.668 17.126 17.126zm-78.22 19.905c-6.197.365-12.503 2.514-12.32 2.697.18.18 6.742 3.644 5.83 4.738-.91 1.092-9.71 10.888-9.16 10.888 6.605 1.903 15.356-2.144 15.356-2.144s-3.57 5.75-4.163 7.512c5.89-3.17 11.414.973 12.753-2.2l-8.297-21.49zm130.024-56.893c-3.745 2.306-16.34-.288-16.34-.288 3.71 3.844 6.06 6.587 14.62 7.453-6.114 2.773-10.095 6.708-17.247 9.088 11.19 4.786 18.68-3.068 18.68-2.78s2.174 5.122.47 12.01c4.428-1.164 5.47-5.68 8.778-4.735-2.77-6.593-6.187-14.156-8.96-20.75zM372.58 242c-.317 2.08-.72 5.803-9.25 10.12 5.58 2.423 14.907-2.865 14.907-2.58s-7.58 13.508 5.446 19.207c-.346-10.202 1.433-18.346 1.433-18.346s4.79 6.59 8.313 14.335c5.626-6.05-2.008-17.486-2.008-17.486-6.213-1.434-12.844-3.815-18.843-5.248zm8.026-59.932s16.866 11.463 16.94 12.996c.07 1.534-1.535 7.886-7.008 10.733 13.14 1.533 14.527-6.717 14.527-6.717s-2.7 9.346-.51 12.12c7.227-4.454 7.01-11.536 7.01-11.536s4.817 7.3 3.723 11.244c1.532-.803 9.856-9.492 2.335-13.726 1.752-5.695 2.41-9.273-3.942-11.828-.68-3.432 1.12-4.527 1.68-6.79 0 0-6.28-1.9-7.01 3.504-.583 1.095-20.183-11.52-20.4-11.594-.067.33-7.343 11.667-7.343 11.594z" fill-rule="evenodd" stroke-linecap="round" fill="#fff"/><path stroke-linejoin="round" d="M385.123 175.163s15.62 8.293 16.642 10.264" fill-rule="evenodd" fill-opacity=".3" stroke-linecap="round" fill="#fff"/><path stroke-linejoin="round" d="M439.724 134.02c-2.07 0-10.32-2.58-15.765 1.434-2.49-3.997-5.16-7.13-13.05-5.446.07-3.57-1.344-3.112-3.23-4.235-1.99-4.332-5.173-6.25-11.323-3.505-5.357-5.51-14.014-5.752-20.093-1.49-9.19-2.725-21.352.455-44.108.2-1.573-.05-9.422 2.765-4.513 9.317-9.45-5.843-13.41 4.904-4.013 6.593 2.294 2.293 4.874 7.166 4.874 7.166s-16.428-11.746-25.454 1.39c-2.926 13.287 11.177 3.774 18.192 8.786 4.203 3.726 8.218 7.596 12.422 11.323 6.976-1.434 12.936-1.478 19.91-1.842-6.307 1.817-11.597 1.175-17.904 2.99 1.52 2.09 4.05 2.79 9.522 2.58l-11.64 4.067c7.13 5.515 16.128 1.893 22.99 2.866-4.35 6.52-13.3 13.417-24.598 10.266 4.864 7.747 14.537 6.756 24.395-3.295 8.25 1.438 13.6 2.45 24.143-1.117.51-.667 8.272-12.22 7.942-13.208 1.412.423 22.776 8.077 24.067 10.452.162-2.946 4.254-5.976-20.64-12.9-4.69-3.816 12.04-8.6 12.04-8.6l-.287 6.88c4.708-2.87 4.958-4.02 6.02-5.732 1.72-1.147 5.446 2.293 5.446 2.293l.21 6.062c2.073-.753 3.23-.903 4.665-2.91s4.182 2.397 4.182 2.397c4.284.423 11.524-1.6 15.122-7.59-1.63-6.082-.857-7.777 2.38-8.992 5.31-8.653 6.53-16.152-1.907-16.2z" fill-rule="evenodd" stroke-linecap="round" fill="#fff"/><path stroke-linejoin="round" d="M408.33 182.215s-2.63 3.285-2.118 9.638" fill-rule="evenodd" fill-opacity=".3" stroke-linecap="round" fill="#fff"/><path stroke-linejoin="round" d="M332.31 175.773s6.734 10.26 9.032 10.902c2.297.64 18.17 16.78 19.024 17.474 1.016.426 9.886.212 9.886.212-6.52-5.63-11.97-11.578-17.956-17.367 0 0-9.19-4.543-9.244-4.65s-4.916-6.626-4.916-6.626c-1.55-.5-3.206-1.266-4.65-2.46l-1.175 2.51z" fill-rule="evenodd" stroke-linecap="round" fill="#fff"/><path stroke-linejoin="round" d="M397.53 195.137c2.992-.73 7.154 1.752 7.446 3.87 1.607-.95 5.184-.95 6.498.292.585-.878 3.213-3.215 5.915-2.193m-8.968-14.892s2.188 1.752 5.11.876" fill-rule="evenodd" fill-opacity=".3" stroke-linecap="round" fill="#fff"/><path stroke-linejoin="round" d="M444.127 190.525c3.624-.517 33.286-17.848 40.526 4.053-2.5-18.54-16.124-18.194-16.124-18.194s-.605-8.88-13.107-7.415c8.193 6.034 1.293 10.862.69 11.725-2.128-5.72-3.048-8.68-9.572-11.21 2.618 10.06-2.872 11.41-4.31 16.21-2.9-2.07-5.116-5.863-6.81-8.708-2.3 6.668-.288 10.663 2.327 14.14 2.3-.574 4.426-.717 6.38-.603z" fill-rule="evenodd" stroke-linecap="round" fill="#fff"/><path stroke-linejoin="round" d="M439.312 159.288c1.142 2.092 5.955 8.104-2.49 19.567-2.665-3.707-4.1-5.985-4.1-5.985s-7.197 4.682-6.376 20.76c-2.695-6.456-6.696-14.6 1.607-26.832-5.994 9.648-7.946 10.716-12.532 10.58 7.024-5.006 8.563-10.426 8.698-10.426 1.282.43 9.205.02 15.195-7.665z" fill-rule="evenodd" stroke-linecap="round" fill="#fff"/><path d="M433.923 133.198c1.575 5.876-2.755 9.95-6.084 13.088 7.226 14.168-15.977 13.027-7.61-.19" fill-rule="evenodd" stroke-linecap="round" fill="#fff"/><path d="M411.29 148.188s-1.712 2.187-.286 5.23m-9.554-5.08c2.074.51 3.798 3.19.448 5.2-1.34.8-8.074-2.33-11.55 4.244" fill-rule="evenodd" fill-opacity=".3" stroke-linecap="round" fill="#fff"/><path d="M338.09 135.156c-2.722-.223-4.06 1.16-.803 4.328m3.393-13.654c-3.168-1.383-4.638 1.918-.847 4.55m9.952-4.282c-2.766-2.5-5.176 2.008-.757 3.703m14.54-3.702c-2.9-2.454-3.883 1.115-2.99 2.32" fill-rule="evenodd" stroke-linecap="round" fill="#fff"/><path d="M380.674 163.546c0 7.44-6.03 13.473-13.472 13.473s-13.473-6.034-13.473-13.475 6.03-13.473 13.47-13.473 13.473 6.032 13.473 13.473z" fill-rule="evenodd" fill-opacity=".3" stroke-linecap="round" fill="#fff"/><path stroke-linejoin="round" d="M379.895 167.965c-.367-.78-8.646-8.973-11.26-7.86-2.14.094-8.686 14.375-8.4 14.948 6.777 4.78 17.222.563 19.653-7.087z" fill-rule="evenodd" fill-opacity=".3" stroke-linecap="round" fill="#fff"/><path stroke-linejoin="round" d="M375.492 163.658c-1.02-.66-1.803-1.26-2.704.06-.9 1.322-5.827 13.28-5.827 13.28m23.873-40.348c-9.012-5.048-25.74 2.434-14.62 7.66-9.495-2.883-9.075 5.29-9.075 5.29m4.387-21.415c3.572-5.306 8.505-7.123 11.734-.47 4.3 5.732 12.38 1.444 12.38 1.444" fill-rule="evenodd" fill-opacity=".3" stroke-linecap="round" fill="#fff"/><path d="M346.987 132.588s-4.013 1.863-.284 4.73m20.647-7.166s-3.87.574-2.58 4.73" fill-rule="evenodd" stroke-linecap="round" fill="#fff"/><path d="M363.04 137.316c-.142 0-4.013.144-2.722 4.3m-1.728 2.724c-.143.144-4.872-2.006-2.437 4.014" fill-rule="evenodd" fill-opacity=".3" stroke-linecap="round" fill="#fff"/><path stroke-linejoin="round" d="M376.432 120.833c-16.81-10.246-34.634-30.883-59.096-23.017 24.822 4.402 39.975 18.183 40.48 22.44 9.164-.72 11.688-.505 18.616.578z" fill-rule="evenodd" stroke-linecap="round" fill="#fff"/><path stroke-linejoin="round" d="M351.964 120.402c-2.236-2.742-10.68-17.967-27.85-17.678 13.13 6.71 20.995 15.874 21.718 18.183 2.45-.145 4.182-.36 6.132-.505z" fill-rule="evenodd" stroke-linecap="round" fill="#fff"/><path d="M337.24 121.05s1.95-14.286 4.764-16.018c2.814-1.73-9.38-3.896-9.234 8.66-10.25-8.37-19.915-6.928-21.504-6.35-1.587.576-24.1-.506-26.768 4.545 16.596-.36 21.356.722 22.872 2.38 10.175-2.596 15.947-1.08 22.73 7 3.103-.577 7.14 0 7.14-.216z" fill-rule="evenodd" stroke-linecap="round" fill="#fff"/><path stroke-linejoin="round" d="M321.235 128.554c-4.112-4.04-7.533-6.553-19.878-7.586-1.802-.23-6.556-1.234-9.49-2.227 7.85-5.435 31.677 2.24 34.346 5.775-.793 2.453.175 4.095 1.473 5.682-2.202-1.316-4.135-1.847-6.45-1.642z" fill-rule="evenodd" stroke-linecap="round" fill="#fff"/><path d="M329.743 121.5s-6.146-5.626-10.875-5.532c2.743 1.655 5.864 6.383 7.753 8.085 1.328-1.513.995-1.418 3.124-2.553z" fill-rule="evenodd" stroke-linecap="round" fill="#fff"/><path stroke-linejoin="round" d="M317.245 116.25c-.237.096-10.354 6.337 1.04 14.658-.756 5.343 5.578 6.1 5.578 6.1s4.682 7.092 4.682 7.044c-10.062-6.696-18.547-5.067-21.675-2.324-6.1-8.936-16.433-10.394-20.214-11.482-4.73-1.04-17.828-2.127-18.724 9.74-12.58-12.34 7.33-17.636 10.732-17.258 3.403-.614 22.505 3.074 23.734 5.485-1.087-11.3 9.173-17.305 14.847-11.962zm37.655 41.118s-33.574-6.257-44.524 1.204c-10.95 7.46-12.392 18.53-28.277 20.215-15.885 1.685-17.57 4.693-23.466 12.876 8.785-2.768 27.798-8.784 40.913-6.137 5.414-6.07 8.423-8.905 7.94-9.025 4.092-13.475 32.61-18.65 46.088-13.836.24-3.37 1.685-4.934 1.323-5.295zm-50.773-5.054l-50.18 1.444c-4.572 1.444-10.105 5.174-10.95 6.257-.84 1.083 2.168-11.792 8.786-11.19 8.542.84 31.887-.12 31.887-.12 7.1-2.648 14.802-5.296 19.494-3.49-1.685 4.21.963 7.1.963 7.1z" fill-rule="evenodd" stroke-linecap="round" fill="#fff"/><path d="M395.672 137.617S381.8 133.4 385.44 147.63c5.586 7.092 13.617-3.43 13.504-4.492" fill-rule="evenodd" fill-opacity=".3" stroke-linecap="round" fill="#fff"/><path stroke-linejoin="round" d="M357.857 153.688c-3.064-5.02-22.207-11.828-28.76-9.53 10.51 4.935 25.527 9.912 26.42 12.635 1.233-2.212 2.255-3.063 2.34-3.105z" fill-rule="evenodd" fill-opacity=".3" stroke-linecap="round" fill="#fff"/><path d="M422.342 136.305s-11.572 3.16-15.87.582-14.964-6.4-10.26-14.64" fill-rule="evenodd" fill-opacity=".3" stroke-linecap="round" fill="#fff"/><path stroke-linejoin="round" d="M305.09 139.665s-29.36-.728-34.212 8.068c19.107-4.43 33.18-3.822 33.18-3.822l2.67-2.425-1.637-1.82z" fill-rule="evenodd" stroke-linecap="round" fill="#fff"/><path d="M358.637 132.82s-6.786.205-3.495 4.936" fill-rule="evenodd" stroke-linecap="round" fill="#fff"/><path stroke-linejoin="round" d="M420.3 220.592s9.82-.325 10.958-1.623m30.665.404s4.137 2.92 7.79-1.217m-26.778 1.866s2.76 5.194 9.82 2.92m-25.55 8.117s-2.11 5.275 8.277 4.788c2.678 1.623.81 6.817.81 6.817m4.785-36.358s5.843-.324 6.898 2.273m-4.72-9.657s1.95.163 2.6 2.516c.65 2.35 3 1.134 4.38.08M416.38 349.363c-5.1-4.84-16.085-4.97-10.854 7.063 1.83-5.494 5.23-7.586 10.854-7.063zm-2.087 7.178c-1.438-1.046-2.225 1.045-1.832 1.438m5.48-36.754s-7.848-.915-4.71 8.24m-18.567-28.878s-1.048 9.285 6.277 10.33m-16.986 46.932c0-.132-6.8-3.01-8.893 6.275m2.473-49.685s0 7.844 3.53 10.722m-6.397 8.768c-.13 0-11.376 4.447-11.376 10.332M193 424.122c0-.13 7.227-7.622 8.805.79-.133 3.152-1.71 6.177-1.71 6.177m-.675-5.133s-4.075-.264-4.6 2.233m22.35-24.844c0-.13-9.203-2.892-10.517 4.206m-36.793.678s7.623-4.47 11.83.395m50.82-15.875c0-.13-7.05-.047-8.1 4.684" fill-rule="evenodd" stroke-linecap="round" fill="#fff"/><path stroke-linejoin="round" d="M334.65 189.833c-.837.827-.725.873-1.59 1.076-.84.31-1.666.352-2.655.352-.68-.226-1.456-.748-2.123-1.416a6.77 6.77 0 0 1-1.24-2.124c0-.545-.23-1.347-.37-1.675.28.56.805 1.45 1.08 2.03.3.94.6 2.03.883 3.008.236 1.097.355 2.13.355 3.363-.18 1.352-.543 2.55-1.06 3.36-.733.39-1.14.592-2.125.71-1.066 0-1.408-.187-2.302-.532-.413-.536-1.266-1.452-1.768-2.124-.257-.993-.473-1.787-.532-2.83-.43-.622-.636-1.17-1.062-1.77-.19-.71-.512-1.062-.707-1.77-.22-.556-.708-1.132-.95-1.642" stroke-linecap="round" fill="none"/><path stroke-linejoin="round" d="M206.598 393.554s-5.128 4.05-4.273 7.556m32.09-68.74s-8.243 2-4.12 9.243m4.005-5.48s-1.75 5.87 1.123 7.99m3.487-7.623c.125.375-1.125 6.244-2.872 7.243m-6.485-29.855s-.374 4.995 1.873 5.87m-16.87-20.73s-1.998 5.87 5.494 7.868m-19.23 11.487c0 .25 1.996 9.49 5.993 9.24m9.485 8.99s-10.24-5.744-11.24 9.366" fill-rule="evenodd" stroke-linecap="round" fill="#fff"/><path d="M393.562 138.8c1.002-.95 4.486-2.085 5.435 3.165.95 5.25-6.12 4.63-6.175 3.79-1.9-.78-1.996-4.89.74-6.955zm14.906-12.092s-9.076-1.107-8.237 6.488c5.306 4.69 9.34.053 10.23-2.516.447-1.843.3-3.413-1.99-3.972z" fill-rule="evenodd" stroke-linecap="round"/><path stroke-linejoin="round" d="M283.603 152.974s1.092 8.18-5.45 6.27c-6.543-1.908 10.085 4.09-2.727 6.543-2.658 3.723-2.18 4.362-2.18 4.362s6.984-.707 2.64 8.486c-1.637 4.907 2.457-10.732 15.558-2.745-5.997-5.853-1.68-5.776 6.61-5.47-11.5-1.88-10.905-12.54 5.996-7.36-.023-1.59-3.12-6.336 2.453-8.996 10.904-3-22.627-.546-22.9-1.09z" stroke-linecap="round" fill="none"/><path stroke-linejoin="round" d="M280.966 159.58c1.775.845 8.8 14.215 13.622-6.855-2.115-.508-10.916.253-10.916.253.197 3.216-.367 5.33-2.706 6.6z" fill="none"/><path stroke-linejoin="round" d="M278.604 164.995c-.4.973-1.004 2.584-1.312 3.586 0 .678.003 1.408.12 1.914.09.837.36 1.438.715 2.152.34.48.392.6.956.717.457.262 2.378.268 2.988.358h2.034c.957 0 1.803.01 2.63-.357.588-.168 1.055-.328 1.315-.837.583-.292.567-.585.955-1.195.167-.336.51-.93.718-1.314.275-.424.357-.53.357-1.075.17-.34.12-1.03.12-1.553-.022-.753-.123-1.442-.24-2.152-.115-.383-.298-.627-.596-.478-1.222.482-2.564-.478-3.947-.478-1.318-.2-2.036-.54-3.346-.718-.543 0-3.084.804-3.465 1.435zm126.654 51.22h.176c-.52 0-.227-.03.71.53.625.225 1.223.45 1.767.71.323.47.674 1.007 1.066 1.416.21.53.484 1.365.706 1.95 0 .816.098 1.405-.352 1.77-.32.813-.807.89-1.238 1.414-.638.213-1.138.504-1.947.885-.856.23-1.218.505-2.124.707-.942.426-1.564.503-2.655.53-.65 0-3.286-.145-3.935-.145.863-.03 3.63-.065 4.287-.207.972 0 1.52.102 2.123.53.796.276 1.248.517 1.947.71.484.192 1.447.28 1.947.53.282.47.817.72.532 1.238-.37.45-1.073.705-1.77.886-.463.315-3.974.925-4.44 1.24-1.67.144 3.353-.4 3.91-.533 1.014-.012 1.644-.128 2.477 0 .754.114 1.44.452 2.123.708.452.6.986.89 1.415 1.593.546.448.7.75.71 1.77-.222.443.193 1.698.134 2.366l-.778 2.33" fill="none"/><path stroke-linejoin="round" d="M390.925 216.393h.177c-.48 0-.234-.01.708.177.597.418 1.645.578 2.654.885.564.267 1.09.575 1.593.885.52.26 1.193.73 1.592 1.24.722.24.874.675 1.415 1.06.188.854.42 1.306.53 2.124-.07.942-.388 1.128-.707 1.77-.52.353-.84.817-1.594 1.062-.704.282-1.594.514-2.656.708-1.502.286-2.958.603-4.423.707-.73 0-.91.16-1.594.18.888.01 2.06.076 2.656.353 1.108.01 2.37.098 3.186.354 1.612.2 3.157.468 4.78.53.324.53.588.81.707 1.594-.43.315-.727.903-1.06 1.24-.53.325-1.056.66-1.95.885-.98.35-2.067.354-3.184.354h-5.664c-.172-.07-1.415-.178-.71-.178.735.34 2.2.694 3.187.886.675.197 1.06.56 1.416 1.06.43.325 1.08.92 1.415 1.24.278.462.356.755.356 1.593-.085 1.085-.438 1.098-1.24 1.77-.856.56-1.525.675-2.477.885h-2.657c-.71-.19-4.81-2.6-5.336-2.76.727.258 4.64 2.86 4.983 3.645.187.558.178 1.483.178 2.3-.032.86-.138 1.47-.53 1.945-.037.688-.222.532-.885.532l.885-.532c-.037.688-.222.532-.885.532m13.984-15.043h.885c.583.396.578.895 1.417 1.062.64.245 1.282.587 1.766.885.26.438.356.63.356 1.418 0 .865.2 2.04-.177 2.478-.307.358-1.422.35-1.947.53-.76.263-1.41.663-2.06.79-.823.163-2.156.077-2.72.45-.79.06-1.36.176-2.3.176-.546 0-.91-.035-1.238-.176.796.278 2.084.596 3.006 1.062.844.238 1.305.614 1.947 1.062.69.51 1.092.787 1.24 1.593.354.52.354 1.197.354 2.124-.196.584-.324 1.428-.533 1.947-.385.572-.85.68-1.415 1.062-.414.046-.297.133-.71.18" fill="none"/><path stroke-linejoin="round" d="M384.023 216.216c.293.123 1.197.563 1.77.885 1.04.253 1.724.68 2.477.887.392.484.85.684 1.06 1.416.616.802.765 1.222.887 2.123-.076.99-.234 1.19-1.062 1.416-.617.207-1.326.326-2.124.355-.73.1-1.392.255-2.12.354-.5.25-1.53.177-2.3.177-.765.06-2.01.226-2.905.226.996.036 2.49.128 3.61.128 1.08.116 2.144.173 2.655.71.78.294 1.22.93 1.946 1.24.35.516.762.815 1.062 1.414-.245.688-.63.918-1.417 1.06-.5.252-1.523.178-2.3.178-.537-.27-1.65-.176-2.475-.176h-1.947c.73.25 1.906.535 2.832.708.653.374 1.667.686 2.123 1.062.287.443.76.688 1.062 1.24.396.32.474.916.176 1.415-.07.88-.32 1.323-.706 1.77-.56.38-1.058.72-1.947 1.24-1.25.542-2.438.696-3.894.706-.96 0-1.43-.145-2.3-.177-.79-.27-1.787-.38-2.477-.53-.757-.208-1.777-1.806-2.772-1.84.678.085 1.486 1.704 1.71 2.192.25.502.177 1.528.177 2.302-.277.475-.34 1.378-.53 1.947-.035.615-.1 1.43-.354 1.77l.353-1.77c-.035.615-.1 1.43-.354 1.77" fill="none"/><path stroke-linejoin="round" d="M374.14 211.81c0 .07.613.392 1.03.867.402.634.826 1.355 1.237 1.946.28.806.53 1.19.708 1.947.33.542.475 1.39.532 2.124-.032.826-.103 1.565-.532 2.124-.208.716-.564 1-1.238 1.238-.587.278-1.15.354-2.123.354-.65 0-2.076-.097-2.725-.097 1.12 0 3.02.097 4.14.097 1.23.078 2.045.183 2.653.708.773.22 1.394.607 1.77 1.062.6.443 1.17.548 1.415 1.24.185.56.176 1.484.176 2.3-.092 1.015-.383 1.037-1.238 1.238h-2.477c-.546-.18-1.564-.266-2.3-.354-.603-.08-1.284-.617-1.805-.79.463.44.376 1.472.388 2.383.135.626.176 1.443.176 2.3-.074.945-.3 1.197-.886 1.594-.94.206-2.325.18-3.538.18-.99-.048-1.81-.178-2.832-.178-1.227 0-2.32-.135-3.452-.265.43.286.422.933.443 1.68.32.533.073 1.153 0 1.77-.06.77-.204 1.29-.532 1.77-.177 0-.305.97-.482.97" fill="none"/><path stroke-linejoin="round" d="M365.608 209.493c0 .06-.046-.037.885.707.54.433.808.976 1.24 1.593.155.666.38 1.255.528 1.947 0 1.03-.12 1.443-.527 2.124-.677.45-1.486.803-2.477.885-.587.193-1.413.297-2.126.352-.505.168-.443.27-1.143.354 1.133-.04 1.19-.177 2.383-.177.773 0 1.8-.075 2.3.176.793.107 1.364.218 1.77.708.73.2 1.046.52 1.415 1.06.544.37.862.686 1.062 1.417 0 .964-.108 1.507-.353 2.125-.31.616-.6.973-1.24 1.416-.455.394-1.115.49-1.77.71h-2.478c-.65 0 2.133.065 3.364.176.727.133 1.18.43 1.768.708.52.352 1.197.404 1.594.884.647.23.95.697 1.594 1.06.154.36.08.27.353.178" fill="none"/><path stroke-linejoin="round" d="M358.293 206.46c.87.43 1.346 1.953 1.48 2.855.247.897-.07 1.557-.352 2.478-.856.79-.954 1.046-2.12 1.24-1.006.3-2.1.226-3.01.53a18.4 18.4 0 0 1-1.947.708h-2.48c-.763.45.61.07.886 0 1.377 0 2.797.02 4.07-.175h5.132c.907.136 1.037.445 1.418 1.238.376.456.498 1.233.53 2.124-.037 1.016-.2 1.316-.707 2.124-.508.63-.95.907-1.592 1.417-.827.355-2.045.575-3.185.708-1.362 0-2.825-.08-4.07.176-.94 0-4.694.253-4.366.58.62-.495 3.372-.402 4.365-.402 1.35-.276 2.552-.508 3.894-.53.845-.253 1.875-.343 2.83-.354.93.01 1.647.137 2.124.53.55.457 1.254 1.005 1.593 1.416.68.24.88.696 1.415 1.06.158.726.344 1.192.355 2.125-.22.622-.415 1.27-.708 1.77-.82.586-1.705 1.23-2.833 1.592-.98.38-1.782.497-2.83.53-.904 0-1.596.083-2.303.178-.65 0-5.955.097-6.604.097 1.596-.29 6.78-.097 7.845-.097 1.16 0 2.223.14 3.363.177.562.267 1.17.482 1.59.885.6.24 1.11 1.273 1.123 2.347" fill="none"/><path stroke-linejoin="round" d="M350.22 202.237c.157.315.785 1.56 1.063 2.3.19.768.176 1.612.176 2.478 0 1.107-.25 1.585-.71 2.478-.966.648-1.713 1.273-2.833 1.593-.935.167-1.7.11-2.653 0-.628-.252-1.15-.463-1.594-.885-.67 0 .39.15.71.18.53.36 1.32.57 2.124.884 1.018.41 1.403.735 2.123 1.593.647.52.812.63.885 1.592.45.506.388 1.195.177 1.77-.548.363-1.137.95-1.594 1.415-.798.333-1.087.518-2.123.53-.963-.034-1.46-.288-2.303-.353-.363-.34-.203-.264.357 0 .573.32 1.568.94 1.947 1.417.61.414.784.86 1.062 1.77.34.91.603 1.464 1.06 1.945.033.87.178 1.338.178 2.3-.248.617-.413 1.202-.885 1.593-.2.725-.644 1.017-.887 1.77-.695.41-1.585 1.26-2.124 1.77-.723.24-2.478.42-3.55.434" fill="none"/><path stroke-linejoin="round" d="M358.178 314.966c.262.615.553 1.293.707 1.947.077.642.176 1.137.176 1.947-.28.534-.34 1.172-.704 1.594-.232.65-.732.892-1.24 1.238-.682.293-1.163.518-2.124.532-.93 0-1.758-.057-2.476-.18-.784-.366-2.582-1.003-2.04-.618.685.22 1.655.706 2.217.975.74.495 1.3.78 1.948 1.593.565.39.785.71.886 1.417-.702.242-1.68.595-2.656.706-.858 0-1.674-.04-2.3-.177-.573-.275-1.06-.543-1.77-.71l1.77.71c-.573-.275-1.06-.543-1.77-.71l-2.408-.98c.474.454 3.163 1.57 3.468 2.22.25.62.41 1.38.533 2.3-.01 1.05-.1 2.247-.353 3.01-.2.733-.525 1.06-.885 1.59h-.355m6.902-7.786h.176c-.493 0-.23-.023.71.353.983.617 1.226.87 1.946 1.947.34.75.612.972.708 1.77.298.5.115 1.234 0 1.77-.47.386-.722.885-1.24 1.24-.35.512-.8.82-1.24 1.237-.604.133-.852.314-1.59.355" stroke-linecap="round" fill="none"/><path stroke-linejoin="round" d="M358.362 320.63v.177c0-.52-.03-.227.53.708.73.507.875 1.04 1.06 2.124.21.833.152 1.603 0 2.3-.545.317-1.26.86-2.035.975" fill="none"/><path stroke-linejoin="round" d="M366.847 324.712h-.177c.477 0 .234-.01-.71.177-.737.245-1.63.174-2.475.174-.656-.23-1.262-.355-1.947-.706-.585-.123-.677-.334-1.417-.357m3.012 7.96h-.177c.48 0 .236.01-.706-.178-.766-.495-2.048-1.362-2.754-1.596" fill-rule="evenodd" fill="#fff"/><path stroke-linejoin="round" d="M419.957 221.543c-.307.092-3.087.28-3.903.337h-2.477c-.862-.192-1.71-.342-2.655-.354-.706 0-.493-.436-1.202-.436" fill-rule="evenodd" stroke-linecap="round" fill="#fff"/><path stroke-linejoin="round" d="M417.457 228.604c-.06 0 2.452-.194 2.395-.194.293 0-3.163.194-3.456.194-.79.142-1.6.177-2.48.177-.552.107-1.813.113-2.3.356h-2.476c-.534-.028-.53-.15-1.062-.177" fill-rule="evenodd" fill="#fff"/><path stroke-linejoin="round" d="M348.616 312.306c.117.29.885 1.67.885 2.483-.01.93-.115 1.292-.53 1.77-.684.37-1.275.694-2.3.707h-3.186c-.96 0-5.487-1.036-5.767-1.247.828.113 3.823 1.248 4.882 1.248.965.035 1.5.24 2.48.53.94.287 1.562.534 2.3.71.505.295 1.33.345 1.77.707.817.29.714.688 1.06 1.592-.068.896-.275 1.318-.885 1.77-.39.48-1.12.904-1.947 1.238-.84.39-1.805.532-3.008.532h-2.478c-.585-.194-1.43-.323-1.947-.532l1.947.532c-.585-.194-1.43-.323-1.947-.532h-.18c.678.27.8.76 1.065 1.415.062.828.177 1.486.177 2.48-.168.71-.436 1.194-.71 1.77a7.848 7.848 0 0 1-1.06 1.768c-.157.353-.358.642-.533.355" stroke-linecap="round" fill="none"/><path stroke-linejoin="round" d="M339.236 308.59c0 .06-.023-.054.354.886.366.443.495 1.167.708 1.77 0 .858-.04 1.674-.176 2.3-.356.578-.608.922-1.24 1.24-.414.5-.905.64-1.77.707-.508.255-1.432.172-1.946 0-.65-.153-1.328-.344-1.77-.708-.732-.172-1.19-.397-1.592-.885-.653-.163-.523-.53-.18 0 .542.447.565.928.886 1.77.012.93.177 1.34.177 2.3.163.745.27 1.408-.177 1.947-.24.68-.697.88-1.06 1.417-.948.204-1.76.353-2.833.353-.546-.403-1.727-.766-2.124-1.238a5.632 5.632 0 0 1-1.59-1.064c-.492-.234-2.386-1.784-2.668-2.222.438.418 2.495 2.062 2.843 2.575.477.325.924.747 1.238 1.06.48.343.85.97 1.418 1.418.392.694.67.935.706 1.944v2.48c-.01 1.107-.172 1.256-.706 1.946-.11.33-.246.023-.356.353" fill="none"/><path stroke-linejoin="round" d="M332.517 320.63v.177c0-.555-.036-.223.71.708.61.33 1.315.714 1.946.886.456.396 1.18.39 1.683.884.807.108 1.74.498 2.658.532" fill-rule="evenodd" stroke-linecap="round" fill="#fff"/><path stroke-linejoin="round" d="M331.898 303.982c.27.256 1.516 1.818 1.683 2.66-.01 1.038-.112 1.346-.704 1.77-.587.278-1.15.353-2.123.353-.948-.208-1.53-.805-2.48-1.238-.502-.49-1.135-.667-1.59-1.062-.89-.303-1.044-.49-.18.177.853.463 1.576.9 2.124 1.238.75.523 1.002.605 1.417 1.594.2 1.013.46 1.924.53 3.008.392.576.45 1.227 0 1.77-.436.258-.626.354-1.415.354a15.25 15.25 0 0 0-1.416-1.062c-.35-.254-.823-.743-1.062-1.062-.47-.417-1.072-.733-1.416-1.238-.76-.332-1.108-.688-1.77-1.062-.61-.938-.028-.048.355.354.436.697.766 1.458 1.06 2.123v2.654a6.098 6.098 0 0 1-.354 1.946c-.9 0-1.593-.08-2.3-.177-.53-.21-1.37-.46-1.947-.707-.826-.458-1.345-.885-1.59-1.593-.424-.482-.79-1.188-1.064-1.592-.35-.443-.488-.65-.885-.883.43.46.833 1.37 1.59 1.947.53.798.984 1.046 1.243 1.947.39.473.447 1.338.53 2.124 0 .773.073 1.8-.177 2.3-.112.833-.367 1.218-.708 1.77-.266.565-.574 1.09-.886 1.592-.235 0-.175-.057-.175.177" stroke-linecap="round" fill="none"/><path stroke-linejoin="round" d="M335.52 301.16v.178c0-.237-.66 1.51-1.414 1.946-.892.172-1.3.354-2.3.354h-2.655c-.633-.22-1.42-.464-2.122-.707-.582-.51-1.137-.686-1.77-1.24-.525-.512-.686-.806-1.323-1.5-.262-.34-.07-.023.793.616.787.727 1.007.922 1.24 1.77.25.503.175 1.528.175 2.3-.036 1-.12 1.324-.885 1.595-.54.317-1.213.354-2.123.354-.455-.392-1.184-.66-1.77-1.238-.512-.338-1.11-1.13-1.592-1.592-.278-.43-1.525-1.945-1.954-2.22.46.312 1.94 2.034 2.482 2.397.37.65.816.97 1.242 1.416.367.62.6 1.213 1.062 1.593.098.73.254 1.39.353 2.123-.035.942-.19 1.34-.71 1.77-.685.672-.86.7-1.59.353-.61-.422-1.256-.79-1.77-1.238-.66-.18-1.215-.427-1.595-.885-.645-.227-1.1-.727-1.592-1.062a3.975 3.975 0 0 0-1.237-1.416l1.238 1.417a3.975 3.975 0 0 0-1.237-1.416l-3.032-3.743c.4.465 3.865 4.338 4.095 4.984.534.427.84 1.058 1.06 1.947.077.717.178 1.34.178 2.125-.47.493-.624.846-1.417 1.062h-2.476c-.98-.037-1.285-.24-2.124-.532-.718-.415-1.03-.67-1.415-1.24-.518-.352-.818-.762-1.416-1.06-.24-.358-.513-.457-.71-.886-.32-.138-.268-.356-.53-.533" fill="none"/><path stroke-linejoin="round" d="M337.035 297.882c-.057 0-1.277.1-2.22-.087-1.204-.076-2.534-.17-3.187-.71-.936-.322-1.122-.744-1.592-1.237-.518-.624-1.176-1.25-1.594-2.126-.34-.778-.518-1.447-.53-2.477v-2.832c0-.49.335-3.224.092-3.467-.01.97-.447 3.67-.447 4.705 0 .906-.08 1.598-.176 2.305-.41.66-.842 1.41-1.59 2.123-1.03.888-1.912 1.516-3.185 1.77-1.01.3-1.248.19-1.77-.708-.647-.485-.977-1.278-1.062-2.3-.266-1-.142-2.012 0-3.01 0-.885-.09-2.394-.09-3.28 0-.412.09 1.173.09 1.333 0 1.044.007 1.654-.532 2.477-.41.906-1.004 1.575-1.59 2.3-.6.62-1.138.876-1.948 1.062-.852 0-1.588.01-2.122-.353-.654-.913-1.82-1.906-2.303-3.01v-7c.292.62.356 2.89.356 3.815-.07.912-.446 1.387-.708 2.3-.65.62-1.094 1.156-1.947 1.77-.947.484-1.76.85-2.832 1.062-1.146-.014-1.13-.103-1.59-1.062-.565-.63-.795-1.42-.886-2.3-.246-.85-.427-1.7-.532-2.48-.175-.7-.172-2.292-.354-2.833v1.95c.105.8.343 1.494.355 2.478 0 .87-.06 1.568-.355 2.123-.093.707-.31 2.693-.347 2.656" stroke-linecap="round" fill="none"/><path stroke-linejoin="round" d="M324.032 295.313c.076.383.354 1.562.354 2.48 0 1.038-.046 1.35-.53 2.123-.516.743-.826.706-1.947.706-.97 0-1.628-.108-2.126-.53-.655-.234-.99-.623-1.417-1.238-.484-.587-1.052-1.52-1.415-1.947-.176-.65-.532-2.28-.798-2.84-.185-.84.475 1.44.798 1.955.45.82.915 1.573 1.24 2.3.127.587.175 1.312.175 2.123-.355.5-.73.93-1.06 1.418a6.64 6.64 0 0 1-2.125.353c-.775-.117-1.225-.39-1.768-.71-.656-.217-1.01-.59-1.594-.884-.33-.504-1.067-1.27-1.414-1.947-.43-.605-.566-1.543-.885-2.123-.12-.847-.232-1.736-.53-2.3-.115-.895-.287-1.528-.885-1.947-.05-.46-.21-.376-.353-.71m3.003 7.985c.057.384.26 1.78.353 2.478-.01 1.015-.227 1.307-.53 1.946a4.074 4.074 0 0 0-.708 1.77c-.468.386-.72.886-1.24 1.24-.274.41-.55.352-1.237.352-.236.074-1.252-.064-1.77-.176m4.077-9.56c-.193.898-.548 1.648-.885 2.478-.514.57-.91 1.108-1.24 1.592-.615.247-1.16.355-2.122.355-.484-.33-1.112-.59-1.594-.885-.263-.112-.626-.243-.887-.355m30.072-127.073v.177c0-.443.025-.23-.356.53-.756.855-1.135 1.12-2.125 1.414-1.062.6-2.614.796-4.07.885-1.2.203-2.51.182-3.716.353-.393-.566-1.18-1.058-1.594-1.593-.418-.48-.626-.968-1.062-1.59-.29-.873-.826-1.58-1.062-2.48-.293-.85-.498-1.78-.71-2.654-.102-.777-.287-1.295-.352-2.124-.634-.18-.05.226.178.708.495.742.644 1.547.71 2.655.127.91.175 1.837.175 2.832 0 1.024-.092 1.645-.353 2.3-.612.624-1.02.753-1.947.885-1.066.272-2.355.177-3.54.177-.845-.116-1.13-.41-1.948-.533-.422-.377-1.135-.78-1.59-1.06-.322-.392-.703-.545-.886-.886" fill="none"/><path stroke-linejoin="round" d="M318.896 174.833c0 .06.534.797.534.856 0-.496-.02-.234.355.706.35 1.048.143 1.487-.532 2.3-.72.79-1.543 1.473-2.3 2.125-.802.37-1.463.863-2.476 1.063-1.172.147-2.417.206-3.364 0-.682-.388-1.523-1.003-1.947-1.593-.512-.5-.78-.998-1.062-1.592-.158-.583-.362-1.352-.706-1.77-.05-.508.016.138.112.908.216.642.01.243.064 1.04v2.477c-.335 1.124-.796 2.55-1.062 3.54-.37.542-.685.862-1.417 1.06-.807.482-1.59.945-2.476 1.24-.486.4-1.2.354-2.126.354-.782-.313-.942-.495-1.594-1.24-.453-.356-.558-.577-.884-.884m-3.36-.353v.177c0-.554.037-.223-.71.708-.335.55-.785 1.05-1.413 1.593-.406.732-1.282 1.553-1.594 2.3-.754.383-1.866.64-2.83.885a102.36 102.36 0 0 0-3.01.354c-1.417.088-2.79.177-4.25.177-.846-.01-1.71-.157-2.3-.354-.566-.47-.676-.898-.706-1.946-.252-.753-.163-1.5-.532-1.947a1.39 1.39 0 0 0-.53-.885" fill="none"/><path stroke-linejoin="round" d="M330.04 181.176v.177c0-.495.02-.23-.353.708-.405.65-1.006 1.406-1.417 1.95-.617.55-1.506 1.41-2.123 1.945-1.046.873-1.888 1.183-3.185 1.416-1.156.15-1.96-.157-3.01-.707-.83-.872-.95-1.13-1.414-2.123-.085-.867-.156-1.57-.532-2.302-.156-.66-.376-1.28-.71-1.77.04-.608.286.367.357.708.192.483.28 1.445.53 1.947v2.478c.243.97.11 1.676 0 2.48-.3 1.013-.464 1.873-1.062 2.3-.69.24-1.663.354-2.65.354-1.21 0-2.54-.044-3.366-.53-.566-.386-1.04-.928-1.768-1.77-.594-.772-1.03-1.173-1.24-1.948-.418-.627-.672-1.32-1.062-1.77-.094-.752.062-.098.355.178.23.488.63 1.373.882 1.946.332.64.696 1.234.886 2.123.47.573.808 1.246.886 2.124.247.545.176 1.655.176 2.477-.156.856-.35 1.106-1.238 1.24-.727.176-1.647-.107-2.477-.532-.617-.308-.974-.6-1.417-1.238-.725-.585-1.163-1.17-1.768-1.947-.41-.43-.816-.864-1.24-1.416-.487-.596-.975-1.03-1.24-1.945-.274-.26-.432-.625-.708-.885.427.49.638.93.886 1.77.266.97.518 1.44.532 2.477v2.477c-.17.848-.58.772-1.418.885-.97 0-1.793.063-2.3-.356-.775-.104-1.307-.307-1.77-.708-.736-.192-1.21-.604-1.768-.885-.28-.41-.87-1.19-1.238-1.59-.246-.757-.71-1.075-1.064-1.594-.25-.25-.266-.794-.354-.708.344.405.654 1.28.886 1.77.142.79.176 1.596.176 2.477-.197.924-.53 1.383-.708 2.3-.39.746-.73 1.685-1.062 2.3-.645.44-1.154.917-1.945 1.24-1.046.47-2.103.67-3.364.708-.85.283-1.557.1-2.3 0-.576-.273-1.234-.55-1.594-1.062-.456-.21-.598-.44-.885-1.06-.64-.48-.875-1.2-1.237-2.124-.257-.743-.54-1.402-.707-2.123-.302-.69-.49-1.557-.885-2.124-.045-.413-.13-.297-.175-.71" fill="none"/><path stroke-linejoin="round" d="M322.244 196.573v.177c0-.478.01-.237-.177.708-.582.905-1.263 1.672-2.123 1.946-.51.255-1.43.172-1.947 0-.803-.41-1.346-.915-1.947-1.592-.468-.857-1.268-1.635-1.77-2.478-.445-.67-.764-1.153-.883-1.947-.383-.45-.66-1.383-.886-1.947-.05-.556-.043-.247-.21-.656.23.833.53 1.222.74 2.25.353 1.083.65 1.65.358 2.83-.145 1.077-.324 1.99-.71 3.01a10.732 10.732 0 0 1-.884 2.477c-.163.694-.468 1.305-.885 1.77-.403.443-1.08.56-1.77.71h-2.478c-.754-.102-1.46-.35-2.3-.53-.823-.44-.988-.646-1.593-1.24-.474-.585-.93-1.008-1.24-1.77-.45-.307-1.093-.777-1.417-1.24-.54-.53-.88-.915-1.237-1.77-.165-.76-.342-1.3-.353-2.3-.028-.532.247.853.53 1.77.256.597.447 1.54.708 2.3v2.833c0 .866.017 1.71-.175 2.478-.12.798-.42 1.163-.71 1.77-.504.31-1.047.697-1.767.885-.6.417-1.787.705-2.656.885-.88.23-1.654.353-2.656.353-1.018 0-1.498.01-1.947-.53-.425-.47-1.13-1.407-1.593-1.77-.245-.69-.603-.967-1.238-1.593-.255-.706-.66-1.57-1.063-2.124-.135-.86-.545-1.6-.708-2.3-.114-.262-.244-.624-.354-.886" fill="none"/><path stroke-linejoin="round" d="M341.117 195.107c.034.243-.163 1.125-.29 1.642-.39 1.05-.983 1.95-1.772 2.652-.85.512-1.188.813-2.123.885-.43.323-.94.14-1.24-.177-.914-.336-1.455-.882-2.3-1.238-.797-.51-1.214-.815-1.948-1.238-.413-.608-.936-1.292-1.415-1.77-.116-.192-1.13-1.886-.937-1.356.376.556 1.298 1.63 1.644 2.418.426.588.924 1.75 1.415 2.3.49.62 1.12 1.312 1.77 2.124.397.98.81 1.684.885 2.654.275.535.353 1.47.353 2.3 0 .964-.143 1.432-.175 2.302-.232.576-.457 1.236-.71 1.77-1.067 0-1.925-.178-2.654-.53-.572-.404-.916-.976-1.413-1.77-.35-.978-.947-1.66-1.415-2.655-.586-.985-1.06-2.496-1.593-3.36-.12-.86-.46-1.63-.53-2.656-.193-.32-.25-.418-.356-.77.112.826.176 1.486.176 2.54 0 1.082.062 2.043-.353 2.655-.316.95-.825 1.572-1.415 2.3-.717.452-1.353 1.06-2.302 1.415-1.053.365-1.87.53-3.01.53-1.138-.234-2.255-.345-3.312-.627-1.115-.1-1.908-.17-2.35-.788-.652-.735-1.39-1.546-1.945-2.478-.515-.34-.34-.386-.674-.754.375.586.316.518.497 1.46.335.696.353 1.28.353 2.125-.42.71-.858 1.466-1.415 2.124-.578.707-.876.93-1.77 1.24h-2.656c-.858 0-1.675-.042-2.3-.178-.764-.168-1.654-.52-2.477-.887-.386-.31-2.794-2.304-3.087-2.694" stroke-linecap="round" fill="none"/><path stroke-linejoin="round" d="M297.82 207.014h.18c-.555 0-.214-.047.532.885.534 1.074.88 2.03 1.415 3.006.13 1.092.332 1.993.355 3.186 0 1.255.094 2.434-.355 3.54-1.174 1.14-1.633 1.64-3.186 1.77-1.53.31-1.87.024-2.476-1.417-.443-.905-.78-1.913-1.24-2.832-.235-.674-.918-1.6-1.416-2.477-.27-.55-.65-1.372-1.062-2.124-.314-.823-.5-1.657-.885-2.124-.132-1.3-.246-.568.178 0-.11 1.12.62 4.284-.236 4.71-.584.28-1.196.113-2.173.113" fill="none"/><path stroke-linejoin="round" d="M343.754 197.678c0 .06.096 1.137.096 1.196 0-.536-.01-.235.18.885.063 1.17.343 2.35.705 3.183v2.478c-.277.937-.426 1.368-1.06 2.125-.373.547-.584.708-1.416.708-.57.284-1.8.177-2.658.177-.947-.26-2.162-.336-2.83-.884-.584-.45-1.144-.72-1.483-1.27.246.082.175.503.175.225m-4.53 3.17v.353-.354.352-.354c-.154 1.664-.617 2.404-1.594 3.716-.654.77-1.3 1.457-2.3 1.946-1.406.734-2.816.948-4.42 1.062-1.21 0-1.687.05-2.304-.708-.773-.618-1.605-1.48-1.947-2.477-.647-.787-.99-1.812-1.416-2.656-.2-1.006-.568-1.882-.885-2.83-.214-.83.17.57.176 1.24 0 1.4-.223 2.49-.53 3.715-.376 1.118-.732 1.917-1.417 2.83-.694 1.1-1.544 1.507-2.654 2.302-1.693.376-3.222.338-4.956.177-1.116-.342-1.923-.59-2.833-1.24-.835-.26-1.878-.764-2.3-1.238-.862-.353-.562-.152-1.122-.432.13.813-.67 3.623-.825 4.502-.273.958-.388 1.49-1.062 1.947-.708.643-1.362 2.116-2.33 2.514-.73.16-1.635.67-2.557.743-.637.29-1.355.197-1.96.368" stroke-linecap="round" fill="none"/><path stroke-linejoin="round" d="M343.135 208.784c.064.392.353 1.864.353 2.83v3.01c-.055.998-.243 1.836-.353 2.655-.243.85-.615 1.234-1.24 1.767-.932.486-1.542.855-2.477 1.062-1.11 0-1.422-.18-2.3-.71-1.062-.837-1.794-1.506-2.656-2.476-.73-.784-1.213-1.402-1.77-1.947-.122-.93-.43-1.55-.707-2.478-.32-.45-.53-1.007-.885-1.417.326.652.76 1.008 1.238 1.947.553.962.854 2.02 1.24 3.01.31.814.717 1.696 1.24 2.124.37.884.612 1.206.882 2.123.083 1.07.18 2.052.18 3.186-.356 1.026-.746 1.727-1.595 2.3-1.135.677-2.14.874-3.538 1.062-1.504-.008-2.922-.082-4.07-.53-.487-.596-1.606-1.554-2.303-2.3-.587-.972-1.163-1.867-1.768-2.833-.312-.816-.603-1.52-.71-2.3-.19-.57-.253-1.473-.53-1.947-.244-1.322-.177.73-.177 1.24v3.184c-.374 1.524-1.27 2.792-2.3 4.07-1.268 1.013-2.298 1.812-3.896 1.945-1.553 0-2.644.044-3.894-.708-.58-.692-1.47-1.605-2.122-2.477-.597-1.008-1.085-1.672-1.415-2.654-.133-.614-.218-1.54-.356-2.3 0-.72-.073-.128-.128-.72 0 .826-.05.778-.05 1.604a31.68 31.68 0 0 1 .176 3.54c-.415 1.355-.438 1.893-1.944 1.947-1.076-.077-1.39-.28-2.126-.885-.85-.5-1.805-1.205-2.477-1.77-.687-.64-.985-.97-1.608-1.48" stroke-linecap="round" fill="none"/><path stroke-linejoin="round" d="M336.05 222.41h.175c-.52 0-.227-.03.71.53.33.5.962 1.27 1.414 1.948.463.643 1 1.814 1.413 2.3.355.624.697 1.075.885 1.77 0 1.078.14 1.98.178 3.01 0 1.082-.168 1.548-.532 2.3-.567.374-1.39.91-2.3 1.238a21.54 21.54 0 0 1-2.832.177c-.952 0-1.784-.073-2.656-.177-.603-.272-1.562-.658-2.123-1.062-.642-.568-1.326-1.537-1.947-2.3-.395-.633-.546-1.258-.707-1.947-.224-.877-.33-1.82-.708-2.478-.13-.594-.287-1.31-.353-.18-.238.47-.18 1.39-.18 2.125-.197.932-.43 1.827-.883 2.655-.674.625-1.128 1.447-2.126 1.77-1.175.745-2.53.9-3.89 1.062-1.05 0-2.257.133-3.19-.177-.592-.282-1.16-.59-1.943-1.06a8.082 8.082 0 0 1-2.125-1.948c-.66-.83-.66-1.41-1.062-2.478-.057-1.006-.286-1.604-.352-2.48-.133-.245-.33-.684-.53-.884 0 1.242.165 2.26.53 3.362.06.843.176 1.574.176 2.477-.032.886-.208 1.468-.53 2.123-.64.47-.926.755-1.77 1.062-.84.158-1.722.177-2.655.177-.79-.213-1.39-.684-2.126-.886-.424-.514-.897-.735-1.415-1.59-.588-.89-.71-1.023-.71-2.125.163-.955.356-1.782.356-2.832 0-.992.023-1.54.353-2.3.04-.735.08-.426.08-1.268" fill="none"/><path stroke-linejoin="round" d="M301.903 231.613h-.176c.52 0 .206-.05-.354.885-.433.817-.65 1.646-1.06 2.123-.2.733-.522 1.05-1.063 1.418-.232.65-.732.893-1.24 1.24a19.71 19.71 0 0 1-1.77.707l1.77-.708c-.544.257-1.143.485-1.77.708" fill="none"/><path stroke-linejoin="round" d="M357.65 242.056c-.06 0 1-.534.94-.534.522 0-.89.504-1.824 1.065-.535.267-1.668.177-2.477.177-.71-.164-1.866-.43-2.304-.885-.24-.958-.592-1.89-.883-2.834-.285-.823-.427-1.763-.532-2.654-.252-.854-.426-1.57-.71-2.478a44.968 44.968 0 0 1-.88-3.01c-.26-.876-.47-1.634-.533-2.476-.374-.304-.413-.872-.532-1.417" stroke-linecap="round" fill="none"/><path stroke-linejoin="round" d="M351.276 240.11c-.13 0-.42.838-.71 1.415-1.155 1.355-2.47 2.433-3.716 3.54-1.1.518-1.952 1.282-3.185 1.415-.512-.463-.71-1.708-.886-2.655-.5-1.673-.754-3.378-1.24-4.955-.44-.793-.874-1.755-1.06-2.478-.304-.637-.41-1.377-.53-1.946.14 1.38.794 2.672 1.06 4.07.216 1.17.353 2.31.353 3.54v3.01c-.2 1.095-.538 2.13-1.238 2.83-.18.11-.897-.382-1.594-.707-1.01-.553-2.186-1.183-2.83-1.596-.677-.98-1.718-2.09-2.477-3.185-.324-1.104-.567-2.03-.71-3.187-.233-1.02-.52-2.458-.884-3.185-.05-.583-.3-.622-.58-.932-.17 1.148-.623 1.83-1.013 2.877-.454.477-1.01.976-1.77 1.593-1.105 1.005-2.34 2.042-3.538 2.832-1.123.71-2.045.993-3.366 1.062-1.26-.04-1.768-.152-2.653-.885-1.46-.91-2.436-2.202-3.716-3.54-.954-1.047-1.316-1.43-1.415-2.832-.06-.768-.21-1.308-.356-2.123 0 .236-.058.177.178.177" fill="none"/><path stroke-linejoin="round" d="M318 242.41c-.05.36-.21 2-.352 2.655-.2.73-.468 1.084-1.062 1.415-.43.364-1.268.59-1.77.885-.915.087-1.71.25-2.48.353h-2.652c-.924 0-1.53.016-1.947-.53-.527-.433-1.076-1.334-1.415-1.947-.296-1-.365-1.62-.18-2.476 0-1.225.157-2.315.18-3.54 0-.884-.09-2.75-.09-3.635" stroke-linecap="round" fill="none"/><path stroke-linejoin="round" d="M306.512 245.597v.176c0-.477.012-.234-.176.71-.24.712-.592.964-1.062 1.414-.892.195-1.158-.028-2.126-.353-.62-.5-.777-.934-1.238-1.415a2.896 2.896 0 0 0-1.062-1.42c0-.38-.087-.263-.176-.53" fill="none"/><path stroke-linejoin="round" d="M300.94 244.083c0 .058.082.677.44 1.15.356.78.762 1.547 1.062 2.478v2.834c-.087 1.073-.243 2.303-.71 3.01-.393.563-1.384 1.012-2.3 1.414-.905.45-1.932.497-3.007.532-1.27-.28-2.333-.724-3.54-1.416-1.07-.546-2.143-1.218-3.186-1.77-.49-.425-.954-.638-1.417-1.24-.514-.375-.936-.912-1.417-1.24-.34-.497-.957-.855-1.415-1.414-.444-.32-.754-.79-1.06-1.24" fill="none"/><path stroke-linejoin="round" d="M355.977 254.127c0 .104-1.677 1.45-2.227 1.725-.688.504-1.848.98-2.832 1.417-1.38.42-2.458.704-3.892.704-.403-.59-1.495-1.323-2.123-2.123-.323-.646-.9-1.662-1.417-2.476-.32-1.02-.7-2.06-1.062-3.008-.31-.915-.59-1.445-.71-2.48-.29-.403-.526-1.616-.618-1.063.583.593.656 1.568.975 2.48 0 1.106.15 2.092.178 3.186-.252.71-.328 1.194-.885 1.593-.39.45-.66.53-1.415.53-.52.31-1.016.013-1.77 0-.927-.273-1.18-.457-1.594-1.062-.52-.364-.88-1.075-1.59-1.593-.45-.832-.712-1.142-1.063-1.945a10.243 10.243 0 0 1-.53-2.302c0-.93-.146-1.742-.178-2.652 0-.638.05-2.108-.175-2.484-.133 1.078-.356 2.328-.356 3.546-.156.834-.204 1.816-.353 2.653-.39.896-.945 1.83-1.77 2.655-1.11.63-2.087.876-3.362 1.062-1.342 0-2.568-.163-3.894-.177-.813-.463-1.723-1.09-2.652-1.77-.867-.784-1.97-1.77-2.656-2.3-.217-.617-.652-.988-1.06-1.417-.253-.468-.36-.406.176-.177.46.46 1.213 1.1 1.594 1.77.29.563.71 1.792 1.062 2.3 0 .96.165 1.37.176 2.3-.167.91-.713 1.134-1.77 1.416-1.01 0-1.942-.1-2.653-.353-.85-.356-1.484-.622-1.947-1.064-.454-.31-1.094-.78-1.417-1.24-.67-.706-1.382-1.453-1.946-2.123-.358-.392-.892-1.38-1.24-1.77.173.26.297.305.533.708.633.796.99 1.296 1.415 1.947.337.874.635 1.293.71 2.3 0 .858-.042 1.677-.178 2.303-.202.738-.527 1.165-1.24 1.414-.535.27-1.668.176-2.477.176-.594-.26-1.656-.715-2.3-.885-.41-.5-1.26-1.104-1.77-1.767-.45-.578-.71-1.172-1.24-1.594.458.375.74 1.042 1.24 1.593.272.557.676 1.42.885 2.123.353.782.488 1.638.708 2.477 0 .947-.062 1.79-.18 2.656 0 .925 0 1.6-.352 2.122-.217.793-.622 1.16-1.414 1.768-.848.166-1.2.345-2.123.357-.358-.434-.878-.91-1.417-1.418-.24-.51-.6-1.3-.885-1.77-.35-.568-.713-.87-1.06-1.594a7.648 7.648 0 0 1-1.593-2.3c-.447-.67-.9-2.607-1.06-3.355-.245-.16.285.456.352 1.586 0 .943-.056 1.796-.178 2.656.027 1.036.176 1.96.176 3.008-.097.705-.21 1.474-.532 1.948-.436.766-1.275 1.394-2.3 1.768-.386-.54-.84-.706-1.592-.885-.736-.374-1.263-.55-2.123-.88-.814-.59-1.16-.707-1.77-1.595-.58-.545-1.113-1.437-1.418-2.123-.134-.625-.176-1.442-.176-2.3.012-1.11.172-1.815.533-2.655.196-.72.66-1.213 1.237-1.59.502-.503 1.036-.93 1.77-1.065.09-.51.496-.49 0-.53v.53c.09-.51.496-.49 0-.53" stroke-linecap="round" fill="none"/><path stroke-linejoin="round" d="M354.463 267.176c0 .105-.513.433-1.062.708-1.12.358-2.373.085-3.54 0-1.147-.286-1.977-.35-2.475-1.06-.575-.414-1.46-1.327-1.947-1.948-.26-.55-.43-1.193-.53-1.947-.114-.92-.194-1.93-.355-2.834v-2.83c0-.96-.165-1.374-.177-2.303.078-.075.133.445.354.886 0 1.106-.04 2.17-.178 3.184-.096.995-.443 1.637-.71 2.302-.515.64-.803.846-1.59 1.062-.578.343-1.587.497-2.48.53-1.088-.063-1.703-.29-2.3-.886-.868-.69-1.425-1.447-1.946-2.477-.305-.993-.53-1.885-.53-3.01-.12-.785-.064-2.248-.355-2.83-.023-.517.15-1.604-.083-1.86.12.91-.083 2.59.085 3.63 0 1.164-.03 2.288-.176 3.36-.474 1.08-.697 1.66-1.59 2.125-.54.54-1.226.805-2.125 1.062-1.362 0-2.775.1-4.07-.177-.642-.174-1.245-.525-1.947-.71-.484-.407-1.21-.657-1.77-1.237-.652-.713-1.126-1.383-1.415-2.3-.863-1.108-1.5-2.17-1.947-3.362" stroke-linecap="round" fill="none"/><path stroke-linejoin="round" d="M350.38 277.105h-.175c.477 0 .234-.01-.71.177-.92.307-1.758.092-2.654-.177-.597-.263-1.22-.68-1.59-1.06-.617-.758-.86-.96-1.24-1.948-.296-1.218-.354-2.234-.354-3.54.014-1.03.285-1.693.532-2.654.315-.973.74-2.527.74-3.608-.038 1.172-.673 2.952-.74 4.14v2.83c-.284.85-.284 1.635-.708 2.302-.57.807-1.08 1.082-2.125 1.238-1.034-.094-1.043-.394-1.593-1.238-.936-1.128-1.46-2.642-1.77-4.07v-2.833c0-1.183.09-2.247.178-3.362.073-.73.128-.834.128.113.067 1.364.225 2.382.225 3.78-.252 1.036-.658 1.905-1.062 2.655-.754.103-1.35.34-2.3.353-.94 0-1.665-.042-2.3-.353-.44-.743-1.32-1.734-1.77-2.656-.204-.97-.49-1.784-.53-2.83-.22-.442-.28-1.394-.353-1.947.188 1.106.176 2.33.176 3.54-.01 1.125-.04 2.225-.53 2.83-.488.66-1.118.693-1.946.886-.9 0-1.867.085-2.656-.177-.884 0-1.9-.055-2.476-.355-.802-.35-1.093-.61-1.77-1.06-.362-.536-1.064-1.224-1.415-2.123 0-.938.12-1.71.53-2.3.166-.77.33-1.243.71-1.947.355-.854.692-1.23 1.06-1.772.316-.17-.865.796-1.418 1.77-.788.764-1.448 1.482-2.122 2.124-.897.567-1.365.982-2.477 1.062-1.104 0-1.558-.195-2.3-.53-.478-.525-.95-.617-1.06-1.417-.324-.796-.47-1.98-.71-2.653-.01-.998-.17-1.862-.353-2.832-.096-.707-.176-2.1-.176-1.413 0 1.53-.073 2.424.177 3.887v3.01c0 .93-.127 1.487-.354 2.123-.82.113-1.135.342-2.124.356a9.866 9.866 0 0 1-1.946-.71c-.418-.395-.77-.902-1.24-1.237l1.24 1.236c-.418-.396-1.482-1.348-1.952-1.683" fill="none"/><path stroke-linejoin="round" d="M344.28 287.287c-1.53 0-3.51-.803-5.044-.803-.95-.236-2.036-.318-2.476-.885-.38-.59-.658-1.31-.885-2.3 0-1.256.096-1.974.706-3.01.465-.915 1.21-1.64 1.596-2.3a12.557 12.557 0 0 0 1.415-2.3c.356-.556.345-.618.755-1.207.537-.094-1.642 1.188-3.23 2.268-1.228.55-2.27.698-3.718.707-1.092-.238-2.647-.59-3.54-.882-.707-.624-.707-1.606-.707-2.833v-3.185c0-.676.028-.754-.13-1.188-.073 1.006-.275 1.433-.403 2.426-.094 1.158-.29 2.144-.707 3.185-.458.87-1.023 2.04-1.594 2.656-.557.716-1.304 1.112-1.946 1.592-1.193.21-2.186.084-3.362-.178-1.262-.424-1.502-.917-1.947-2.123-.386-1.322-.35-2.778-.35-4.248.04-1.095.274-2.118.53-3.187v-3.008c0-.296.34-1.028.34-1.32" stroke-linecap="round" fill="none"/><path stroke-linejoin="round" d="M336.943 286.3c-.43.058-1.878.338-2.832.356-.69.23-1.87.177-2.83.177-1.03-.243-1.536-.252-1.947-.885-.63-.438-.874-.87-1.415-1.238-.26-.523-.555-1.106-.885-1.594-.09-1-.342-1.787-.353-2.832 0-.927-.003-1.603-.357-2.124v-.353" stroke-linecap="round" fill="none"/><path stroke-linejoin="round" d="M326.326 278.16v2.832c0 .93-.14 1.66-.353 2.477-.1.83-.33 1.754-.71 2.3-.42.81-1.015 1.08-1.77 1.415-.86.117-1.093.142-1.767-.176a5.34 5.34 0 0 1-1.947-1.063c-.927-.383-1.68-.837-2.303-1.417-.775-.543-1.31-1.098-1.77-1.59-.358-.716-.598-1.748-.885-2.3 0-.978.076-1.54.353-2.124.282-.567.65-.986 1.062-1.418.43-.408 1.513-1.2 2.13-1.417" stroke-linecap="round" fill="none"/><path stroke-linejoin="round" d="M314.814 280.82h-.177c.6 0 .227-.034-.885.707-.784.603-1.32.892-2.123 1.24-1.138.266-1.858.353-3.188.353-1.162 0-2.307.012-3.364-.176-.77 0-1.606-.005-2.124-.177a4.924 4.924 0 0 0-.886-1.594c-.135-.626-.176-1.442-.176-2.3.316-.504.562-1.554.885-1.947.45-.81.747-1.08 1.414-1.593.625-.434 1.113-.645 1.595-1.062.736-.244 1.025-.55 1.77-1.236.71-.645.995-1.097 1.592-1.592.396-.377.926-.88 1.417-1.24.234-.738.64-1.24.706-2.123v-3.363" fill="none"/><path stroke-linejoin="round" d="M295.253 291.346c-.21-.105-.764-1.126-1.323-1.685-1.236-1.24-2.28-1.83-2.3-3.537.396-.59 1.093-1.05 1.946-1.415.482-.472 1.005-.853 1.594-1.062.67-.146 1.564-.178 2.477-.178.963 0 1.43-.145 2.3-.177.93-.01 1.342-.176 2.302-.176.324-.327.69-.176-.18-.176-.63.287-1.34.353-2.3.353-.783-.34-1.253-.513-2.124-.705-.47-.408-1.044-.544-1.415-1.064-.79-.442-1.03-.836-1.24-1.767-.114-.863-.144-1.243.356-1.947.26-.996.75-1.587 1.238-2.3.585-.6.853-.71 1.947-.71h2.657c.628.113 1.337.18 1.944.354-.84-.242-1.687-1.118-2.475-1.948-.755-.818-.794-1.08-1.24-1.947-.292-1.107-.666-1.74-.707-2.83v-2.655c.168-.954.405-1.342.707-1.947" stroke-linecap="round" fill="none"/><path stroke-linejoin="round" d="M292.34 266.12c-.103.212-.87 1.356-1.06 1.77-.228.636-.357 1.196-.357 2.125-.156.763.007 1.158.18 1.947.515.353.937.727 1.414 1.415.768.37 1.023.724 1.415 1.417.48.325 1.202 1.098 1.507 1.593-.876-.064-1.876-.772-2.747-1.064-.507-.236-1.58-.555-2.124-.882h-3.01c-.94.073-1.128.387-1.77.708-.365.57-.637 1.055-.706 1.947-.197.59-.197 1.532 0 2.123.4.43.912 1.078 1.415 1.417.655.372 1.17.7 1.946 1.24.823.485 1.866.955 2.476 1.414.596.162 1.303.39 1.77.707.432.076.977.177.177.177-.476-.278-1.377-.342-1.948-.53-.837-.14-1.65-.43-2.653-.532-.93 0-1.237-.02-1.595.533-.72.21-.93.64-1.415 1.062-.315.667-.5 1.087-.53 2.123.19.71.373 1.067.53 1.592.132.307.465.952.71 1.153l-.71-1.153" fill="none"/><path stroke-linejoin="round" d="M284.727 247.89c-.475.12-2.08.617-3.01.885-.63.21-1.072.566-1.59.885-.514.35-.823.803-1.238 1.24-.213.63-.57 1.072-.888 1.592-.277.585-.465 1.1-.532 1.947.015 1.19.414 1.647.887 2.83.607 1.03 1.09 2.234 1.946 2.83.727.447 1.296.78 2.124 1.24.564.154 1.426.56 1.947.886.867.115 1.435.36 1.947.706h-1.413c-.828.032-1.557.147-2.126.532-.604.243-.87.725-1.414 1.062-.2.734-.507 1.046-.708 1.947-.294.587-.136 1.54 0 2.3.37.532.7 1.782 1.06 2.3.382 1.303.742 2.355 1.595 3.364.15.438 1.236 1.115 1.598 1.328-.544-.37-1.902-1.722-2.66-2.392-.446-.566-1-.958-1.77-1.238-.935-.358-1.81-.635-2.83-.706-.964 0-1.508.104-2.125.352-.45.392-1.03.596-1.415 1.06-.505.362-.766.94-1.062 1.595.034.952.245 1.43.708 2.124.413.62.716 1.06 1.24 1.416.526.61 1.11.967 1.946 1.415.697.498 1.325.61 2.123 1.06.787.255 1.436.62 2.477 1.064.887.486 3.263 2.21 3.992 2.488.156.234-2.357-1.504-3.107-1.956-.9-.2-1.213-.507-1.947-.708-.92-.426-1.406-.765-2.3-.887-.77-.352-1.78-.554-2.48-.705-1.063 0-1.925-.17-3.008-.177-.763 0-.825.02-1.06.53-.595.46-.932.984-1.416 1.594-.333.587-.716 1.108-1.062 1.59-.257.602-.546 1.354-.71 1.948-.155.725-.34 1.19-.352 2.124" fill="none"/><path stroke-linejoin="round" d="M269.523 281.508c0-.057.18.24.18.18 0 .497-.157-.125-.533-1.063-.585-.695-1.328-1.717-2.124-2.48-1.13-.804-2.302-1.62-3.54-2.122-1.076-.51-2.215-1.057-3.362-1.415-1.032-.2-2.098-.177-3.185-.177-1.07.014-1.227.29-1.95.53-.414.47-.8.945-1.06 1.596-.21.518-.338 1.362-.53 1.947 0 .903-.168 1.584-.18 2.476 0 .724.172 1.93-.263 2.217.183-.775.357-2.266.62-3.28-.015-1.066-.334-1.373-.71-2.3-.76-.85-1.47-1.75-2.123-2.478-.613-.78-1.39-1.694-2.124-2.3-.61-.375-1.214-.8-1.77-1.063-.898-.365-1.318-.672-2.3-.71-.42.403-.91.75-1.416 1.063-.52.354-.842.756-1.062 1.416-.324.475-.43 1.294-.53 2.124-.284.814-.353 1.35-.353 2.3-.23.3-.31.752-.357 1.238.105-.79.34-1.493.355-2.477-.14-.913-.496-1.807-.71-3.006-.032-1.22-.263-1.963-.708-2.656-.764-.68-1.466-1.67-2.477-2.3-.883-.424-1.582-.695-2.655-.708-.96.01-1.44.237-2.124.53-.248.617-.353 1.16-.353 2.124.01 1.002.19 1.36.53 1.947.106.784.455 1.376.533 2.3.243.41.176 1.275.176 1.95-.08-.955-.66-1.638-.885-2.478-.22-1.014-.493-1.868-.71-2.654-.386-1.04-.975-1.952-1.59-3.01-.624-.5-.954-1.017-1.77-1.593-.8-.694-1.406-1.105-2.3-1.238h-2.48c-.724.29-.94.564-1.414 1.062-.22.843-.644 1.522-.884 2.122 0 .88.036 1.688.176 2.48.42.437.7.91.885 1.59.298.51.71 2.255.71 3.106-.272-.725-.955-3.09-1.24-3.99-.26-.72-.67-1.594-1.06-2.3-.28-1.014-.69-1.542-1.242-2.3-.45-.693-1.162-1.296-1.947-1.77-.76-.636-1.08-.847-2.124-.886-.91.27-1.085.578-1.947.71-.334.3-.925.52-1.24.884-.167.71-.435 1.194-.708 1.77-.136.626-.178 1.442-.178 2.3.314.463.684 1.144.885 1.77.544.597.773 1.207 1.24 1.947.26.783 1.44 2.64 1.774 3.194-.105.105-1.036-1.35-1.42-1.778-.69-.955-1.03-1.54-1.416-2.656-.456-.595-.997-1.423-1.415-1.767a9.505 9.505 0 0 0-2.3-1.947c-.79-.557-1.214-.532-2.303-.532-1.117-.232-1.92.007-2.654.353-.527.538-1.64 1.41-2.123 1.77-.532.678-.793 1.127-1.24 1.595a7.828 7.828 0 0 0-.53 1.948c.075.98.46 1.197.885 2.123.47.364 1.17 1.3 1.59 1.593.34.42 2.52 2.393 1.776 2.393-.32-.472-1.402-1.607-1.95-2.04-.52-.632-1.16-1.18-1.592-1.592-.726-.314-1.313-.6-2.122-.71-1.023-.202-1.67-.32-2.656-.35-.894.08-1.38.522-1.947.884-.318.52-.674.96-.885 1.594-.4.48-.353 1.197-.353 2.123.316.467.647 1.148.885 1.77.54.52.93 1.36 1.592 1.946.7.59 1.314.874 2.123 1.062.872.032 1.34.177 2.302.177.612.038-.296.155-.533.354" fill="none"/><path stroke-linejoin="round" d="M194.834 284.008l-.177-.177c.443.445.243.23-.71-.53-1.076-.507-2.257-.667-3.537-.706-.975.25-2.034.514-3.01.706-.565.577-.932.82-1.592 1.593-.27.672-.413 1.183-.177 2.123.48.977.68 1.324 1.417 2.124.514.35.938.624 1.594.885 1.34.202 2.654.658 4.07.71 1.024 0 3.565.324 4.528.354 1.197 0-3.03-.18-3.465-.18-1.282 0-2.54.01-3.717.176-1.13.23-2.21.486-3.186 1.062-.808.457-.71.85-.71 1.946.255.63.563 1.066.886 1.59.553.512 1.013.996 1.77 1.242.927.51 1.89.974 3.01 1.06.733.25 3.85-.024 2.76-.086-.567.48-4.387.58-5.417.794-1.093.46-2.263 1.107-3.187 1.417-.2.767-.35 1.324-.176 2.124.38.622.683 1.188 1.238 1.77.442.44.692.686 1.417.884.757.37 1.995.578 3.01.885.785 0 .8-.117 1.237-.353m81.24-32.74c0-.06-.354-.588-.71-1.062-.935-1.097-2.518-2.305-3.717-3.364-1.29-.52-2.233-1.145-3.538-1.24-1.1 0-1.452.01-1.77.886-.386.466-.546 1.11-.71 1.947-.364.874-.352 1.695-.352 2.832-.266.53-.225 1.494-.53 1.945-.025.47-.115.77-.18.707-.293-.59.19-1.807.356-2.654 0-1.076.14-1.975.175-3.01-.413-1.61-.557-2.022-1.77-3.36-1.202-1.265-2.062-2.026-3.54-3.01-.774-.2-1.792-.52-2.83-.532-.64.346-1.507.906-2.124 1.415-.62.843-.87 1.38-.885 2.48.13.97.425 1.596.886 2.477.246.622.52 1.42.71 2.3.323.83.456 2.03.882 2.654.12.946.112.61-.176 0-.092-1.2-.473-2.313-.886-3.184-.343-1.292-.723-1.764-1.414-2.833-.683-1.062-.983-1.49-2.123-1.592a4.162 4.162 0 0 0-2.48 0c-.653.364-.845.58-.882 1.593-.2.603-.266 2.062-.266 2.924 0 .262.9-3.673.62-4.69-.66-1.223-1.407-2.177-2.478-3.19-1.043-1.25-1.988-2.4-3.36-3.184-.962-.284-1.492.138-2.125.71-.825.55-1.467 1.33-1.77 1.946-.2.735-.46 1.16-.885 1.946-.665.83-1.208 3.867-1.325 3.285-.143-.95.203-3.4.442-4.347.098-1.218.206-2.273-.18-3.185-.733-.973-1.375-1.688-2.3-2.124-.614-.672-1.077-.71-2.123-.71-.788.25-1.816.845-2.657 1.416-.516.484-.74.817-.883 1.418-.318.55-.568 1.69-.708 2.3-.183.76-.518 1.47-.532 2.476-.367 1.202-.176-.818-.176-1.415-.283-.85-.143-2.01-.53-2.656-.48-.888-.702-1.094-1.594-1.768-.906-.41-1.367-.71-2.477-.71-.495.347-1.09.57-1.593 1.063-.562.72-1.04 1.434-1.592 2.3-.193.767-.18 1.61-.18 2.48.022.72.15 1.14.18.175V261.7c-.193-.99-.367-1.45-1.24-1.77-.615-.33-1.445-.352-2.477-.352-.72.254-.93.562-1.06 1.415-.44.62-.532.825-.532 1.77-.25.5-.177 1.527-.177 2.3-.28.38-.32 1.142-.352 0-.06-.887-.286-1.85-.532-2.476-.59-.46-1.4-.973-1.947-1.24-.865 0-1.71-.015-2.477.178-.684.348-.68.887-1.24 1.415-.177.76-.462 1.06-.53 1.947-.16.745-.106 1.346 0 2.123.197.555.492 1.23.355 1.594a30.48 30.48 0 0 1-1.77-2.3c-.656-.53-.838-.76-1.77-.886-.762-.06-1.232-.18-2.124-.18-.43.375-.954.748-1.415 1.065-.416.61-.758.74-.886 1.59-.27.535-.182 1.585 0 2.124.43.28.575.635 1.06.885.368.455.92.898 1.24 1.414.21.424.286.21-.354.18-.555-.666-1.278-.918-2.303-1.418-1.103-.198-1.894-.016-3.01.176-.5.727-.845 1.408-.88 2.48.033.942.63 2.322 1.15 2.75" fill="none"/><path stroke-linejoin="round" d="M280.485 260.273h-.887c-1.4-.13-2.66-.342-4.07-.355-1.297 0-2.292.013-3.36.532-1.04.362-1.244.75-1.948 1.415-.452.844-.993 1.543-1.238 2.48-.32.785-.672 1.49-.71 2.475.228 1.356 0-.974 0-1.594.283-1.596.18-3.14-.175-4.776a19.112 19.112 0 0 0-1.24-3.186c-.395-.704-.85-1.31-1.77-1.593-.636-.182-1.67-.207-2.3 0-.446.316-1.185 1.16-1.593 1.77a28.907 28.907 0 0 0-1.415 2.126c-.44.738-.79 1.664-1.063 2.3-.09.513-.218 1.077-.356 1.417-.352-.71-.78-.945-1.767-1.417-.92-.787-1.95-1.505-2.832-1.947-.705-.44-1.714-1.07-2.48-1.416-.542-.38-1.466-.61-2.3-.71-.86 0-2.076-.11-2.65.178-.69.246-.935.63-1.24 1.24-.314.508-1.84 2.274-1.78 2.132 0-.986.87-2.98.54-3.9-.47-.934-.86-1.38-1.062-2.124-.558-.617-.76-1.285-1.416-1.77-.24-.677-.697-.88-1.062-1.416-.786-.334-.88-.67-1.947-.708-.88 0-1.697.142-2.302.353-.657.18-1.21.423-1.59.884-.796.38-.94.71-1.594 1.238-.454.32-1.014 1.007-1.24 1.594-.515.628-.072.805 0 1.77" fill="none"/><path stroke-linejoin="round" d="M277.48 252.155v-.18c0 .524.033.23-.53-.705-.357-.58-.73-1.04-1.416-1.77-.613-.718-1.03-.71-2.124-.71-.773 0-1.8-.072-2.3.178-.69.263-1.094.93-1.594 1.593-.56.78-1.117 1.34-1.415 1.95-.353.846-.68 1.21-.883 1.946-.447.335-.426.693-1.062.886-.318-.577-.903-.92-1.238-1.417-.79-.273-1.84-1.045-2.655-1.59-.864-.577-1.655-.9-2.476-1.418-.79-.273-1.287-.354-2.3-.354-1.112.052-1.628.31-2.48.887-.772.364-1.306.912-1.946 1.415-.624.433-3.178 4.187-3.818 4.714-.654.614 2.22-2.85 2.756-3.83.413-1.046.71-1.68.71-2.83-.203-1.45-.334-2.78-1.418-3.717-.85-.333-1.853-.523-3.01-.532-.81.11-1.22.358-2.123.533-.678.362-1.355.543-1.947 1.06-.566.35-.866.715-1.59 1.063-.354.518-.88.734-1.24 1.238-.26.114-1.222 1.075-1.334 1.336" fill="none"/><path stroke-linejoin="round" d="M271.633 248.073h-.177c.52 0 .23.03-.706-.532-.486-.33-.94-.75-1.417-1.236-.995-.252-1.79-.718-2.832-.885-.884-.363-1.88-.707-2.652-.886-.763 0-1.616-.005-2.123.176-.353.517-.764.818-1.062 1.416-.236.498-.4 1.317-.708 1.768-.02.71-.374 1.938-.8 2.223.394-.698 1.114-2.596 1.33-3.814-.274-1.298-.79-2.495-1.416-3.717-.69-.84-1.487-1.663-2.3-2.477-.82-.207-1.734-.18-2.656-.18-1.078 0-1.427.014-1.947.708-.505.398-.95 1.1-1.415 1.415-.506.677-.978.966-1.237 1.948a7.785 7.785 0 0 0-.71 1.948l.71-1.947a7.785 7.785 0 0 0-.71 1.948v.176c.22-.738.69-1.442.71-2.478 0-.916.04-2.008-.177-2.655-.282-.7-.564-1.13-1.24-1.59-.826-.816-1.507-1.366-2.477-1.77-.79-.405-1.61-.466-2.48-.177-.864.363-1.21.676-1.59 1.24-.764.27-.85.593-.886 1.59-.032.962-.16 1.74 0 2.48.12 1.01.41 1.65.71 2.477.384.597.83.95 1.06 1.593.237 0 1.07 1.28 1.07 1.516" fill="none"/><path stroke-linejoin="round" d="M270.76 247.362c0-.396-.356-2.43-.356-3.364 0-.96-.165-1.372-.177-2.3 0-.645.17-2.044-.264-1.776.032.87.088 2.05.088 3.013-.25.708-.326 1.194-.884 1.593-.573.383-1.467.353-2.476.353-.847-.09-1.916-.145-2.48-.53-.908-.192-1.472-.46-2.124-.882-.605-.344-1.107-.732-1.594-1.062-.204-.755-.573-.947-.706-1.947-.4-.925.532-3.107.278-3.36-.07.905-3.394 2.313-4.348 2.65-.97.33-1.75.355-2.832.355-.72 0-1.473-.004-1.947-.177-.755-.55-1.135-.904-1.77-1.416-.828-.633-1.452-.982-2.3-1.768-.737-.7-1.124-1.34-1.592-1.947-.303-.656-.84-1.74-1.24-2.3-.095-.707-.177-1.4-.177-2.302v2.478c-.354.78-.925 1.585-1.592 2.302-.97.445-1.73.922-2.832 1.062-.612-.34-1.4-.626-1.947-.885-.922-.138-1.247-.416-1.77-1.063-.606-.978-1.142-1.676-1.24-2.833-.27-.482.095-.907.178-1.593 0-.38.087-.263.177-.53m-17.686-3.01c-.055 1.068-1.603 2.384-1.953 3.19-.287.91-.895 1.446-1.243 2.123-.842.477-1.534.67-2.48 1.062-1.295.044-2.343.312-3.714.352-1.11 0-2.738.31-3.273-.354-.745-.808-2.135-1.883-2.745-2.656-.607-.588.445-2.09.282-2.39m-24.34 16.078c-.366 1.103-.765 4.717-2.13 6.843-.617.804-1.456 1.112-2.3 1.414-1.004.262-1.79.606-3.01.71-.852.325-1.324.35-2.122.176-.496-.1.06-1.055-.436-1.156.658.328.073 1.72.612 2.573.07.906.32 1.158.354 2.123 0 1.044-.04 2.01-.177 3.01-.09.91-.25 1.71-.35 2.476-.536.8.01.12-.703.523-.73.22-1.53.585-2.477.706-.773.192-1.62.35-2.303.442-.965.573-.546.45 0 1.238.638.515.85.698 1.062 1.684.25.498-.27 2.594-.715 3.37-.078.918-.425 1.565-.532 2.476-.294 1.034-.425 2.164-.71 3.185-.176.676-.53 1.472-.705 2.302-.315.564-1.104 1.557-1.42 2.124-.5.31-1.74.974-2.303 1.245-.152.584 1.034.518 1.42 1.057.573.574.85.957 1.06 1.948.15.983.363 1.575.533 2.3-.112.768-.39 1.736-.885 2.3-.27 1.018-.647 1.545-1.238 1.947-.57.53-1.342.947-2.124 1.062-.545.38-1.467.61-2.3.707-.293.248-1.756 1.362-2.132 1.514m89.027-51.068c-.2 0-1.29-.056-1.77-.177-.847-.494-1.78-.354-2.833-.354-.933.18-1.55.335-1.944.887-.418.785-.695 1.374-.71 2.477.012.996.32 1.723.53 2.48.374.45.416 1.213.71 1.767 0 .357.444 1.69.444 2.045-.38-.853-1.17-3.03-1.506-4.167-.19-1.266-.328-1.848-1.24-2.477-1.198-.976-1.806-1.506-3.184-1.77-.96.155-1.7.785-2.48 1.24-.508.596-1.467 1.146-2.123 1.593-.878.76-1.47 1.307-1.77 2.477 0 .902.08 1.595.177 2.3.14.648.323 1.363.53 1.946.236 1.032.456 1.958.532 3.008.18.182.175 1.076.175.886-.424-.58-.656-1.35-.885-2.124-.272-.775-.64-1.52-1.06-2.3-.81-.706-1.014-.768-2.124-1.062-.858 0-1.674.042-2.3.177-.39.323-1.028.628-1.417 1.064-.484.612-.988 1.165-1.24 2.123 0 .904.082 1.596.176 2.3v2.126-2.126 2.126" fill="none"/><path stroke-linejoin="round" d="M239.436 235.153h-.176c.493 0 .23.022-.71-.354-.47-.32-1.262-.413-1.77-.71-1.022-.037-1.83-.176-3.008-.176-1.036.093-1.25.518-1.415 1.592-.247.74-.176 1.63-.176 2.478-.06.94-.246 1.746-.354 2.655-.103.476.122 3.403-.085 3.82-.152-1.037-.81-3.9-1.152-4.706-.606-1.332-1.367-2.333-2.477-3.54-.817-.71-1.244-.533-2.3 0-1.02.13-1.23.36-1.77.708-.534.39-1.08.91-1.416 1.593-.565.446-.89 1.04-1.062 1.77.06.777.294 1.5.533 2.123.165.32 1.79 3.714 1.956 4 .186.306-1.543-2.777-2.133-3.293-.607-.594-1.2-.53-2.302-.53-1.41.176-2.58.385-3.715 1.06-.606.585-.817 1.106-1.242 1.594-.098.734-.29 1.42-.353 2.3.133.877.413 1.243.885 1.947.16.367 1.32 1.963 1.422 2.397-.68-.376-2.7-1.51-3.722-1.51-1.036.136-1.422.46-1.947 1.237-.37.91-.355 1.787-.355 2.833-.03.872-.177 1.57-.177 2.477 0 .356.36 4.275.36 4.628-.156-.66-.732-4.845-1.064-5.334-.37-.857-.984-1.928-1.77-2.48-.567-.338-1.195-.132-1.77.178-.24.486-.835 1.445-1.24 1.947-.235.885-.517 1.126-.53 2.12.098.733 1.324 3.98 1.423 4.71 0 .26-1.187-2.975-1.25-3.115-.297-.715-.852-1.804-1.237-2.655-.612-.414-.91-.834-1.59-1.238a10.242 10.242 0 0 0-1.772-1.06c-.87-.25-1.645-.354-2.654-.354-.706.346-1.07.607-1.592 1.414a9.12 9.12 0 0 0-.355 2.656v2.653c.192.706.48 1.22 1.06 1.773.37.545 1.645 2.238 2.133 2.84.718.72-1.194-1.753-1.6-1.955-.727-.388-1.103-.594-1.947-.71-.5-.25-1.528-.175-2.3-.175-.84.288-2.04.467-2.656.885-.992.37-1.835.424-2.124 1.238.036 1.066.243 1.644.532 2.48.438.808.724 1.42 1.238 1.944.353.52.754.843 1.415 1.063.316.46 2.034 1.392 2.488 1.95-.548-.33-2.328-.558-3.016-.36-.485.33-1.187.875-1.946 1.416-.768.606-.708 1.03-.708 2.124.064.844.254 1.36.532 1.944.286.607.564 1.04.885 1.77-.122.268 4.187 3.06 4.187 3.297m40.94-49.485h-.176c.52 0 .227-.03-.708.53-.8.268-1.58.4-2.3.178a26.94 26.94 0 0 0-3.186-.177c-.355-.264-.802-.14-1.06-.53-.72-.316-1.068-.525-1.242-1.24-.408-.68-.79-1.694-1.062-2.476-.385-.72-.674-1.246-1.06-2.123 0 1.08.182 2.024.354 3.01v2.654c-.443.837-.413 1.264-1.417 1.416-.878 0-1.697-.144-2.3-.355-1.388-.336-2.878-.678-4.247-.885-.58-.83-1.234-1.105-2.293-2.116" fill="none"/><path stroke-linejoin="round" d="M215.725 232.32c-.876.24-1.716.1-2.3.71-.395.592-.91.812-1.062 1.592-.546 1.06-.71 2.44-.71 3.894.203 1.02.804 1.985 1.418 2.654.32.52 1.085 1.62 1.598 2.393.516 1.018-.403-.306-1.066-.623-.857-.978-1.94-1.92-3.184-2.124-1.355-.33-2.433-.45-3.715 0-.903.445-1.098.864-1.24 1.947-.25.5-.176 1.526-.176 2.3.01.978.176 1.843.176 2.83.257.797.152 1.845.356 2.657.32.445.577 2.385.794 2.756-.22-1.103-.742-3.96-1.326-4.88-.43-.633-1.08-1.043-1.77-1.415a8.056 8.056 0 0 0-2.124-.53c-.862-.215-1.823-.22-2.477 0-1.036.367-1.387.64-1.77 1.415a16.963 16.963 0 0 1-.71 2.303c-.058.79.004 3.41.004 4.35m7.956-22.05c0-.252-1.928.773-2.123 1.416-.977.616-1.344 1.264-2.564 1.33-1.2.19-2.23.622-3.54.622h-4.603" fill="none"/><path stroke-linejoin="round" d="M198.55 235.507v.177c0-.52.028-.227-.533.708-.727.948-.968 1.405-.71 2.654 0 1.025.145 1.846.18 2.832.51 1.215 1.17 2.897 1.59 3.893.44.8.297.38-.528.357-.86-.33-1.647-.355-2.658-.355-.938 0-1.81.028-2.655.18-.666.442-1.32.724-2.124 1.06-.498.384-1.374.758-1.768 1.24-.188.56-.18 1.483-.18 2.3.1.724.25 1.284.533 1.77.522.79 1.015 1.32 1.77 2.123.4.383 1.047.794 1.59 1.24.55.164 1.776.886 2.13 1.242-.634-.436-2.97-1.945-3.72-2.658-1.663-.737-3.43-1.356-5.312-1.595-1.12.04-1.94.6-2.653 1.238-.48.69-.72 1.077-1.417 1.42-.548.67-1.108.563-1.238 1.59-.27.805-.026 1.383.176 2.302.335.847.697 1.8 1.062 2.477.537.524.87.946 1.417 1.593.663.578 1.064.99 1.77 1.238.427.41 1.6.843 2.218 1.063-.43.37-1.856.63-2.395.885-.78.66-1.32 1.12-1.768 1.593a15.67 15.67 0 0 0-.18 2.302c-.042.734-.177 1.103-.177 1.945.36.513.844 1.474 1.417 1.947.49.566 1.094.795 1.592 1.24.352.15.57.36.884.53l-.885-.53c.352.15 1.907.45 2.22.62" fill="none"/><path stroke-linejoin="round" d="M191.28 235.683c-.083 0-.59.59-1.063 1.062-.747.724-.807 1.203-1.238 2.3 0 1.094.005 1.825.707 2.48.422.763 1.077 1.45 1.59 2.122.613.593.882 1.075 1.242 1.77-.354-.518-1.054-1.09-1.595-1.947-.6-.43-1.174-1.21-1.947-1.77-1.054-.38-1.514-.503-2.478-.354-.816.544-1.67.934-2.302 1.593-.725.613-1.392.793-1.768 1.59-.57.407-.672.808-.71 1.77 0 1.13.25 1.618.533 2.654.48.833.895 1.62 1.24 2.126.276.228 1.19 1.476 1.33 1.333-.487-.293-1.588-1.348-2.393-1.51-.667.304-2.057.178-3.01.178-1.047 0-1.68.007-2.478.355-.71.27-1.536.638-2.3 1.24-.95.327-1.495.69-1.59 1.77.155.86.535 1.008 1.237 1.77.775.816 1.49 1.68 2.477 2.3.44.637 1.536 1.444 1.947 1.946.502.23 3.116.176 2.14.176-.778.2-4.17.79-4.796 1.24-.785.75-.962 1.438-1.063 2.656.065 1.1.354 2 .532 3.01.447.914.58 1.61 1.06 2.3.382.587 1.292 1.453 1.772 1.77.762.31 1.936.887 2.83 1.238.473.172 1.27.36 1.945.53h-3.185c-.828.22-1.465.312-1.947.708-.73.246-.906.643-1.415 1.062 0 .97.104 1.52.533 2.124.116.775.55 1.527 1.063 1.947.415.658 1.043 1.23 1.59 1.593.715.622 1.03.766 1.772 1.062.802.108 1.51.413 2.3.53.4.332 1.44.532 1.947.885l-1.947-.886c.4.332 1.44.532 1.947.885l.89.266c-.826.127-2.09.163-3.014.617-1.26.388-2.508.642-3.008 1.415-.796.398-.87.772-1.062 1.593-.074 1.026-.115 1.393.176 2.124a5.28 5.28 0 0 0 1.418 1.418c.522.438 1.534 1.272 2.3 1.59.88.51 1.493.765 2.123 1.063-.844.14-1.722.176-2.655.176-.576.34-1.032.35-1.415.887-.592.43-.98.845-1.062 1.77-.257.765-.087 1.292.353 2.122.55.415 1.156.99 1.77 1.414.638.3 1.638.677 2.477.886.287.114 1.305.176.356.176-.454.233-1.4.178-2.124.178-.926.083-1.286.422-1.947.885-.567.563-.847.685-.886 1.767 0 1.006.09 1.44.53 1.948.465.977.892 1.282 1.594 1.77.595.363 1.558.503 2.475.53 1.09 0 2.15-.025 3.185.18.448 0 3.936.582 4.002.533" fill="none"/><path stroke-linejoin="round" d="M174.997 263.644c0 .053-.325.516-.53 1.062-.882.667-.898 1.257-1.946 1.415-.744.165-1.344.107-2.122 0-.316-.44-.933-.91-1.415-1.236-.4-.578-1.057-1.757-1.51-2.13m9.037 7.082c-.043.268-.857 1.743-.974 2.302-.672.674-1.658 1.71-2.655 2.303-.75.178-1.3.44-2.3.53-.84.27-1.876.178-2.83.178-.776-.18-1.33-.502-2.124-.885-.342-.422-2.442-2.18-3.018-2.573" fill="none"/><path stroke-linejoin="round" d="M175.548 272.198c0 .27-.397 4.075-.888 5.78-.43.758-1.06 1.622-1.59 2.478-.57.954-.902 1.474-1.948 1.947-1.177.442-2.344.532-3.717.532-.88-.21-1.977-.766-3.01-1.062-.64-.436-1.487-.956-2.123-1.417-.642-.53-1.408-1.012-1.772-1.77" fill="none"/><path stroke-linejoin="round" d="M178.896 287.723h-.177c.48 0 .232-.012-.71.176-1.197.175-1.954.067-3.01-.357-.763-.266-1.673-.96-2.476-1.592-.736-.71-1.408-1.374-1.947-1.77a2.14 2.14 0 0 0-.708-1.414c0 .892.08 1.66.18 2.477 0 .997-.133 1.777-.358 2.655-.28.983-.67 1.348-1.415 2.123-1.06.22-1.997.354-3.185.354-1.277-.01-2.376-.216-3.54-.353-.64-.29-1.22-.59-1.77-.884m18.862-1.253c-.633 1.977-2.862 3.002-3.282 3.546-1.002.24-1.857.52-3.01.53-1.033 0-1.148-.044-1.77-.53-1.024-.344-1.35-.624-1.77-1.24 0-.237.06-.177-.176-.177m12.21 8.327l-.178.177c.402-.4.21-.255-.176.708-.55 1.035-1.28 1.204-2.3 1.592-.936-.14-1.3-.482-2.303-1.062-.935-.523-1.64-1.42-2.3-2.3-.536-1.188-.887-2.188-.887-3.538-.245-.555-.33-1.234-.708-1.594v3.717c-.276.828-.312 1.475-.53 2.3-.147 1.078-.37 1.865-.71 2.656-.65.903-1.66 1.128-3.007 1.238-1.082.232-2.347.177-3.54.177-.93-.11-1.486-.287-2.3-.53-.938-.53-1.192-.693-1.947-1.592-.827-.935-1.813-2.12-2.3-3.008-.28-.992-.76-3.978-.975-5.06 0-1.046.1 2.43.092 2.935-.257 1.585-.356 3.11-.356 4.78v2.83c-.182 1.17-.33 1.772-1.06 2.478-.512.573-1.47 1.286-1.947 1.59-.38.462-.872.806-1.592 1.063-.776.427-1.52.603-2.3.71-.428.074-.726.336-1.063 0" fill="none"/><path stroke-linejoin="round" d="M181.395 305.93c-.42.61-1.222 1.98-1.95 2.13-.776.41-1.98.354-3.186.354-.853-.195-1.747-.15-2.126-.708-1.37-.92-2.628-1.972-3.717-3.186a12.396 12.396 0 0 1-1.24-1.946c-.41-.14.05.408.178.708.645.947 1.07 1.9 1.238 3.01.227.845.227 1.973 0 2.652-.208.94-.486 1.608-1.238 2.302-.362.45-.952.354-1.77.354-1.145-.145-2.06-.622-3.185-1.062-1.226-.725-1.74-.936-2.3-2.124-.23-1.343-.37-2.75-.532-4.07-.023-.484-.034-2.435-.263-2.665-.253.656-.647 3.11-.975 3.9-.21 1.14-.326 1.494-1.415 1.595-.578.282-1.376 0-2.302 0-.64-.218-1.053-.372-1.415-.71-.163-.3-.37-.404-.532-.707m29.024 2.305h-.178c.52 0 .206-.05-.355.883-.42.63-.55 1.406-.707 2.126.074.96.32 1.197.707 1.768 1.032.624 1.204.885 2.48 1.062 1.384.264 5.628-.092 7.01.174 1.088.156-3.07.8-3.473.888-.683.367-1.43.48-2.124 1.06-.956.74-1.676 1.348-2.3 1.772-.178.683-.353 1.355-.353 2.3.24.603.564 1.15.885 1.77.654.688.856 1.085 1.768 1.417 1.404.05 2.79.166 4.247.177 1.418-.367 3.977-1.002 4.874-1.507.26 0-1.012.383-1.154.445-.594.296-1.18.75-1.947 1.415-.73.365-.974.778-1.416 1.415-.46.592-.647 1.115-1.062 1.594-.123.91-.127 1.174.354 1.947.65.894.81 1.27 1.77 1.413.397.38.99.87 1.592 1.24.424.193 3.043.21 2.848.528-.862.063-4.054.336-4.616.71-.722.256-.933.563-1.062 1.417.037 1.01.225 1.254.707 1.946.323.475.807.938 1.417 1.24.43.412 3.51 1.03 4.086 1.508.743.26-2.582-.27-3.2-.27-.503.25-1.528.18-2.303.18-.315.51-.72.99-1.062 1.59-.318.532-.073 1.152 0 1.77.464.498 1.104 1.558 1.418 2.124.584.397.723.746 1.593 1.062.357.392 3.595 1.635 4.18 1.69m-7.378-4.523v.18c0-.524.05-.21-.885.352-.43.534-1.1 1.13-1.415 1.59-.165.797.03 1.194.353 1.948.473.38 1.1 1.144 1.417 1.77.824.753 1.383 1.202 1.768 1.77.535.16 2.46.985 3.023 1.333-1-.014-3.477-.913-4.437-.98-1.177 0-1.71.134-2.48.533-.32.516-.673.96-.884 1.59-.22.62-.434 1.215-.532 1.946-.246.762.01 1.18.353 1.77.617.498.878.824 1.594 1.062.51.456 1.124.694 2.124.708.44.22 2.31.087 2.84.087-.61.4-2.496.784-3.193.975-.554.284-1.235.49-1.593.885-.383.6-.672.963-.708 1.945.294.74.744 1.426 1.592 2.125.787.888.865 1.064 1.947 1.415.917.425 4.684.042 5.686.085-.887.133-4.774 1.216-5.687 1.862-.645.46-.68.977 0 1.592.435.776.935 1.177 1.77 1.416.96 0 1.37-.165 2.3-.177.816.096 3.813-.092 4.705-.092-.685.387-4.22.86-5.237.977-.886.306-1.25.333-1.416 1.24 0 .815-.097 1.405.353 1.77.46.81.73.87 1.77.882.514.31 1.216.04 1.947 0h6.127m-1.372 8.122c.534 0-5.472-7.675-7.928-6.864-1.13.193-1.864.21-2.3 1.062-.635.633-1.265 1.704-1.593 2.653-.085.96-.232 1.727 0 2.656.162.7.575 1.44.708 2.3.195.383.434 1.21.177 1.596-.126-.606-.305-.982-.532-1.77-.21-1.347-.333-2.79-.53-4.07-.553-.418-1.213-1.076-1.947-1.595-.997-.14-1.867-.17-2.655 0-.654.575-.9 1.026-1.592 1.418-.57.19-2.023.315-2.834.354" fill="none"/><path stroke-linejoin="round" d="M169.7 310.196c.06 0-.037-.048.71.885.432.326.58.64 1.237 1.064.757.573 1.562.885 2.656 1.062 1.08.362 2.23.518 3.36.706.976 0 1.96.017 2.833-.175 1.014 0 1.537-.145 2.477-.177l.713-.268m.714 6.81v.18c0-.48-.012-.234.176.706 0 1.066-.165 1.353-.532 1.947-.773.56-1.637.736-2.653 1.062a11.226 11.226 0 0 1-3.54-.707c-.857-.71-1.217-1.2-1.77-2.302-.575-1.752-1.043-3.1-1.06-4.956 0-1.022.027-1.802-.53-2.3-.27-.268-.3.46-.533.885-.078 1.064-.54 1.69-1.06 2.656-.646.62-1.4 1.34-2.302 1.947-.93.206-1.256.365-2.123.176a45.495 45.495 0 0 0-1.77-1.946c-.215-.828-.83-1.83-1.238-2.833-.38-.95-.81-1.765-.885-2.832-.356-.98-.285-.844-.53.177-.52 1.12-.67 1.857-1.24 2.832-.74.576-1.42 1.085-2.478 1.417-1.236.188-2.043.096-3.185-.177-.862-.31-1.277-.69-1.77-1.415-.55-.538-.77-.915-.886-1.77-.36-.587-.75-1.857-1.06-2.653-.35-.427-.605-1.248-.71-1.947-.245-.202-.4-.578-.53-.885" fill="none"/><path stroke-linejoin="round" d="M190.5 323.45c-.026.343-.393 2.698-.8 3.374-.48 1.01-.66 1.376-1.77 1.415-1.097-.18-1.955-.73-2.83-1.417-.733-.924-1.455-1.62-1.946-2.653-.532-.437-.474-.69-.353 0 .566.58.518.56.53 1.592v2.656a6.415 6.415 0 0 1-.354 2.123c-.334.938-.722 1.404-1.59 2.126-1.01.225-1.177-.142-1.948-.71-.945-.382-1.314-.728-1.947-1.237a9.68 9.68 0 0 1-1.416-1.77c-.094-.708-.177-1.4-.177-2.3 0-.887.714-3.02.714-3.904-.135-1.083-.857.917-1.42 1.602-.455.874-1.036 1.555-1.593 1.947-.743.69-1.894 1.005-3.008 1.24-1.05 0-1.893-.162-2.834-.357-.616-.853-.832-1.332-1.238-2.123 0-1.103.16-1.858.353-2.83.187-.922.435-2.506.446-3.458 0-.96-.165 1.046-.445 1.51-.23 1.05-.473 1.104-1.237 1.77a20.97 20.97 0 0 1-2.832.178c-1.072 0-2.05.094-3.01.353-.66-.23-1.007-1.163-1.413-1.947-.23-.687-.346-1.34-.353-2.3 0-.912-.21-1.45-.355-2.122-.405.9-.77.97-1.77 1.06-.582 0-1.272.066-1.593-.178-.346-.567-.812-1.09-1.062-1.592l1.062 1.59c-.346-.565-1.615-2.335-1.865-2.837" fill="none"/><path stroke-linejoin="round" d="M191.83 330.193c0 .17-.095 1.128-.177 1.594-.32.73-.424 1.394-.532 2.3a6.427 6.427 0 0 1-.35 2.123c-.41.562-.9.872-1.416 1.24-1.197 0-1.55-.112-2.48-.708a33.384 33.384 0 0 0-2.123-1.594c-.505-.853-1.033-1.52-1.592-2.3l-.624-.623c-.36-.753.4.417.624 1.332.268.933.355 1.757.355 2.83-.032 1.13-.236 2.073-.355 3.187-.48.947-.498 1.154-1.592 1.24-1.156 0-2.26-.017-3.362-.178-1.09-.167-1.908-.468-2.832-1.062-.235-.617-.354-1.396-.354-2.302.013-1.078.263-1.984.355-3.01.38-1.03.524-1.684.886-2.652.29-.388.456-.807.53-1.417-.16 1.098-.744 1.873-1.063 2.832-.56 1.055-1.45 2.137-1.947 3.185-.674.647-.917.904-1.59 1.24-.8-.12-1.164-.42-1.77-.708-.348-.51-.76-.805-1.063-1.594-.56-.788-.697-1.142-.71-2.3 0-.713.06-1.947 0-2.123-.072-.225-.93-3.312-1.155-3.385m-.085.01c-.275.176-1.436.508-2.3.53h-3.185c-1.035-.095-.938-.485-1.24-1.24a9.31 9.31 0 0 1-.53-2.655c-.154-.855-.602-.938-.712-1.676-.51.33-.534-.103-1.412.083-1.218.185-2.195.445-3.364.706-1.094.15-2.083.34-3.186.354-1.03 0-1.837.1-2.3-.532-.296-.594-.344-1.417-.353-2.3 0-.995.11-1.958.353-2.655.363-.672.83-1.388 1.415-1.947a4.75 4.75 0 0 1 1.24-1.237c.365-.537.822-.74 1.063-1.415.424-.35.637-.895.885-1.418" fill="none"/><path stroke-linejoin="round" d="M143.49 316.48c.315.073 2.668.596 3.193.976.87.484 1.21 1.035 1.768 1.592.28.592.468 1.13.71 1.947.136.674.177 1.573.177 2.48-.33.542-.642 1.448-.885 2.122-.363.54-.69.892-1.414 1.24-.853.654-2.327 1.246-3.54 1.77-.817.095-1.585.176-2.477.176-.885 0-1.86.534-2.745.534-.855 0-2.08-.11-2.653.176-.26 0-.134.042-.355-.176m33.378 5.118c-.07 0-.557.57-1.062.883-.417.706-.59 1.12-1.06 1.947-.306.828-.467 1.465-.53 2.302v2.477c.008.93.176 1.34.176 2.3v4.956-2.477 2.477m4.585-12.388c0 .355-.213 3.27-.002 3.903.057 1.073.36 1.674.708 2.477.555.428 1.29 1.412 1.95 2.123.53.534 1.07.867 1.946 1.062 1.025.204 1.84.355 2.653.18.667-.293 1.683-.864 2.48-1.242.36-.79.886-1.68 1.237-2.653.302-.933.325-1.9.353-1.594.375.305 1.08 1.147 1.416 1.594.75.452 1.486.984 2.123 1.768.66.738 1.732.493 2.746.527" fill="none"/><path stroke-linejoin="round" d="M172.888 349.823c0-.06 2.084 2.67 2.836 2.67.82.205 1.745.325 2.656.357 1.087-.014 1.922-.285 2.832-.71.736-.78.53-1.94.53-3.184V346.3c-.02-.724-.243-1.293-.353-1.947.16 1.15.713 2.106 1.06 3.186.394.85 1.632 3.976 2.83 4.16.543.66 1.063.32 1.593-.445.958-.628 1.204-3.575 1.594-4.07 0-.498.128-.46.176-.886" stroke-linecap="round" fill="none"/><path stroke-linejoin="round" d="M172.52 356.542c0 .06 1.377 1.217 2.312 1.78.968.728 1.122.884 2.303.884.8-.15 1.12-.768 1.768-1.417.903-.88 1.112-1.586.885-2.83-.035-.967-.298-2.508-.53-2.123.408.535.79 1.314 1.062 1.766.365.54.624.917 1.415 1.062.465.394 1.137.646 1.947.708.43.32.98.21 1.238-.176.596-.27 1.04-.537 1.417-.885.17-.562.466-.91.707-1.415" fill="none"/><path stroke-linejoin="round" d="M185.982 355.854v.176c0-.477-.012-.236.176.707.06 1.025.18 1.924.18 3.008-.258 1.062-.425 1.828-1.062 2.48-.6.3-1.663.162-2.48 0-1.068-.482-3.86-2.484-4.246-3.363-.262-.15 2.31 1.79 2.655 2.3.4.615.693 1.07.883 1.77.172.515.296 1.645.18 1.945-.148.966-.485.938-1.242 1.24-.766.19-1.61.178-2.476.178-.79-.108-1.232-.363-1.947-.532l-.27-.18" stroke-linecap="round" fill="none"/><path stroke-linejoin="round" d="M189.353 363.628v.886c-.207.815-.3 1.547-.532 2.122-.172.998-.6 1.04-1.237 1.594-.784.195-1.676.21-2.3 0-1.12-.67-1.7-1.027-2.48-1.947-.776-.777.334.445.71 1.062.612.54.975.926 1.062 1.947.21 1.057.252 1.504-.356 2.123-.44.63-1.1.947-2.124 1.24h-2.477c-.936-.21-.845-.483-1.24-1.063m13.54-2.644c.045.337-.013 1.83-.088 2.655-.686 1.14-.684 1.19-1.947 1.594-1.02.138-2.073.177-3.185.177-.748-.262-1.294-.764-1.77-1.594-.698-.523-.22.206 0 .71.368.957.68 1.58.884 2.654.062.732.45.956-.353 1.062-.892.252-1.83.353-2.83.353-.773-.107-1.642-.085-2.305-.266" fill="none"/><path stroke-linejoin="round" d="M185.798 374.887c.065.305.404.904.888 1.328.353.736.825 1.037 1.415 1.415.625.353 1.077.695 1.77.885.984 0 1.41-.186 2.126-.353 1.066-.365 1.1-.55 1.593-1.24.34-.553.593-.936.706-1.77.254-.508.172-1.432 0-1.946-.07-.935-.466-1.254-.707-1.947-.253-.086-.333-.71-.535-.978M161.56 328.06c-.06.06-.118.12-.177.177.42-.42.247-.218-.71.355-.86.232-1.212.505-1.59 1.062-.808.445-1.367.842-1.594 1.77v2.477c-.195.646-.18 1.745-.18 2.657 0 .96-.11 1.76-.175 2.654.123.58.467 1.406.268 1.95-.067-.77-.445-1.81-.445-2.656-.324-.47-.68-1.518-1.063-1.947-.51-.442-1.034-.637-1.947-.885-.942-.313-1.566-.194-2.123.354-.406.425-.897 1.126-1.24 1.947-.193.974-.496 1.513-.53 2.478-.2.93-.354 1.49-.177 2.303v2.654c0 .825.18 1.92.18 2.747-.114 1.31-.425-.203-.712-.623-.19-.886-.383-1.61-.885-2.122-.444-.537-1.18-.707-2.123-.707-.904 0-1.41-.21-1.592.53-.262.524-.307 1.71-.356 2.48v4.953c-.15-.94-.52-1.367-1.06-2.124-.62-.71-1.11-.9-2.3-1.063-1.158-.28-1.73-.172-2.658.356-.89.87-1.477 1.164-1.59 2.123-.362.433-.437 1.245-.534 1.947v2.653c0 .493-.728-.536-1.237-1.238-.593-.817-.946-1.025-1.946-1.062-.68.35-2.03.865-2.653 1.415-.45.366-.354.955-.354 1.77v2.48c-.05.615-.968.615-1.415.177-.655-.323-1.517-.768-2.3-.885-.674-.32-1.235-.393-1.77-.178-.275.894-.532 1.6-.532 2.653-.27.727-.353 1.26-.353 2.124" fill="none"/><path stroke-linejoin="round" d="M165.985 333.908c-.06 0 2.376-.803 2.316-.803.498 0-2.26.78-3.2 1.156-.715.263-1.487 1.04-2.123 1.77-1.456 1.303-3.22 3.26-4.602 4.78-1.28 1.286-2.19 2.164-3.01 3.54-1.767 1.4-3.076 2.745-4.6 4.426-1.625 1.215-3.23 2.382-4.778 3.715-1.55.776-2.92 1.47-4.602 2.124-1.505.502-2.803 1.17-4.247 1.77-.77.6-1.21.858-2.124 1.24-1.394.8-2.988 1.414-4.07 2.122-.53.36-.897.84-1.77 1.24-.558.652-1.29.918-2.124 1.416-.97.35-1.996.69-3.186 1.063-1.227.42-1.99.77-3.186 1.238-3.254 1.14-6.58 2.448-9.91 3.01-.954.348-1.916.637-2.832.708-1.344.487-3.01.51-4.424.71-.907.238-2.044.527-2.832.706-.91.25-1.8.463-2.478.71-.91.104-1.926.363-2.654.53-.863.255-1.228.512-1.947.707-.402.35-2.08 1.695-2.483 2.043m49.39-44.71c.104.34.356 1.41.356 2.3-.144.845-.316 1.9-.708 2.478-.317.794-1.333 1.54-1.947 2.124-.71.156-1.347.3-2.124.532-.913.066-2.98 2.063-3.99 2.137-.59.117-1.32.174-2.126.174-.252-.264-.337-.113-.706-.26.594.425.413.57.53 1.5 0 .945.66 1.885.536 2.745-.218 1.046-1.12 2.317-1.853 2.73-.894.554-1.68.896-2.655 1.24-.872.03-1.57.177-2.477.177-.59 0-1.055-.032-1.417-.176m27.96-23.182v1.063c.23 1.16.4 1.97 1.24 2.832.59.793 1.536 1.414 2.476 1.946h2.655c.638-.11 2.057.11 2.752.09m-7.013-.084c-.06.057.415-.15.357-.092.443-.445-.293.04-1.243.798-1.064.906-1.523 1.305-1.77 2.656.016 1.016.23 1.307.534 1.947.223.79.654 1.52 1.238 1.95.238 0 .178.06.178-.178m-10.874-2.838c0 .085.83.434 1.153.886.902.575 2.05 1.6 3.184 2.3 1.103.367 2.128.103 3.185-.354.703-.185 1.223-.44 1.77-1.06l.18-.18" fill="none"/><path stroke-linejoin="round" d="M143.695 336.568c-.465.823-1.17 1.316-1.24 2.3 0 .906.12 1.683.355 2.3.33.612.718 1.576 1.238 2.124.324.53.656.977 1.062 1.238-.314-.87-1.11-1.543-1.947-2.3-.325-.372-.708-.53-1.062-.177-.906.064-1.523.292-2.12.532-.996.347-1.83.808-2.478 1.24-.648.668-.707 1.037-.707 2.122-.085 1.124-.177 2.204-.177 3.362.273.223.328.39.353.883-.192-.743-.585-1.9-1.06-2.477-.426-.593-.733-.697-1.77-.708-.9.164-.87.607-1.417 1.06-.536.778-.908 1.023-1.238 1.948-.43 1.01-.532 1.862-.532 3.008.236 0 .532 1.842.532 1.605" fill="none"/><path stroke-linejoin="round" d="M135.715 336.568v.177c0-.473.034-.225-.532.53-.246.832-.353 1.293-.353 2.302.133 1.02.51 1.554.708 2.476.693.826.968 1.21 1.768 1.594.243.243.558.328.71.177m-7.254-.904h-.177c.046.117 0 .79 0 1.238 0 .847-.07 1.74.177 2.48.176.72 1.174.992 1.598 1.417m-10.794-.71c0 .06.355-.414.355-.357 0-.493-.333.303-.706 1.243-.835.995-1.447 1.777-2.48 2.834-1.086.34-1.774.998-2.83 1.77-1.155.654-2.28 1.033-3.363 1.592-1.184.498-2.556.858-3.893 1.238a15.87 15.87 0 0 1-3.893.886c-.898.308-1.892.526-2.832.707-1.1.383-2.313.842-3.36 1.24-.817.28-1.27.443-1.948.884-1.065.37-2.103 1.077-3.186 1.595-.388.468-1.447 1.115-2.123 1.77-1.104.59-2.23 1.595-3.363 2.122-1.304.832-2.608 1.518-4.07 1.947-1.167.555-2.31.968-3.363 1.594-.797.54-1.61 1.318-2.478 1.947-.54.793-1.22 1.385-1.947 1.947-.573 1.06-1.51 1.874-2.3 2.654-.472.32-1.02.832-1.417 1.24-.543.56-1.066 1.06-1.592 1.415-.52.645-.812.865-1.593 1.24-.485.5-1.09.643 0 .707 1.013-.323 2.246-.325 3.363-.353 1.1-.238 2.377-.362 3.54-.532.987-.125 2.152-.32 3.362-.352 1.288.216 3.183-.346 4.602-.885a251.107 251.107 0 0 1 3.362-1.947c.645-.45 1.204-.65 1.946-1.062.642-.174 1.245-.525 1.947-.71m35.03-27.608c0 .218.074 1.268.177 1.77.342 1.094.796 1.933 1.592 2.653.617.365 1.892.268 2.924.268m-8.408-3.796c-.14 0-.086.417-.352.885 0 .913.123 1.846.353 2.477 1.174.548 1.98.816 3.364.885.843-.066 1.318-.28 1.946-.53.552-.116-.186.425-.71.88-.74.744-1.075 1.37-.705 2.48.37.775 3.24 1.748 3.733 2.218" fill="none"/><path stroke-linejoin="round" d="M118.906 350.717c-.18.826-.204 1.303.355 1.945.484.4 1.2.355 2.126.355 1.577-.085 3.018-.355 4.6-.355.745 0-.612.1-.885.178-.89.312-1.35.41-1.946.883-.945.388-1.42.83-2.3 1.594-.356.528-.512 1.213-.177 1.77.35.514.79.883 1.415 1.24.664.512.822.797 1.77.884h.354" fill="none"/><path stroke-linejoin="round" d="M116.52 352.322c-.082.335-.444.883-.444 1.766.073.942.303 1.195.885 1.59.486.4 1.2.357 2.126.357h1.06c-.503.296-1.297.387-1.767.706-.558.383-.83.734-1.06 1.596-.016.988-.17 1.35 0 2.3.383.722.6 1.254 1.06 1.947.346.51 2.104 1.543 2.753 1.773m-9.48-9.213c-.163.745-.106 1.346 0 2.123.417.468.734 1.074 1.24 1.415.497.415 2.075.165 3.013.177.745.02 1.158.176.177.176-.473.452-1.88 1.007-2.13 1.952-.254.51-.172 1.43 0 1.947.07.902.334 1.225.53 1.945.476.498.694.773 1.416 1.064l-1.417-1.064c.475.498.693.773 1.415 1.064v.176c-.095-.22-.16-.4-.354-.532" stroke-linecap="round" fill="none"/><path stroke-linejoin="round" d="M105.903 356.473c-.424.63-.666.848-.444 1.68.46.645.945 1.33 1.59 1.77 1.028.932 6.595-.396 7.388-.276.24.243-6.747 1.378-7.21 2.928-.194.633-.264 1.69 0 2.48.01 1.015.227 1.306.53 1.946.244.516.422.864 1.06 1.064-.235 0-.175.057-.175-.18" stroke-linecap="round" fill="none"/><path stroke-linejoin="round" d="M99.088 358.674c-.25.775.05 1.13.354 1.77.423.636 1.158 1.455 1.77 1.858.357.207 6.16-.27 6.055-.27-.65.227-5.962 1.596-6.94 2.13-.366.71-.354 1.314-.354 2.3.07.93.137 1.328.885 1.594.5.248 1.47.303 2.123.353l1.25.266" stroke-linecap="round" fill="none"/><path stroke-linejoin="round" d="M94.135 360.715c0 .195-.29 1.044-.18 1.68.248.58.12.962.53 1.237.15.853.398 1.427 1.24 1.594.926 0 1.64.044 2.123-.355.73-.317 1.163-.595 1.77-.88l-1.77.882c.73-.318 1.163-.596 1.77-.882l3.297-.982c-.544.397-4.046 1.82-4.713 2.043-.498.475-.903.553-1.06 1.415-.106.778-.163 1.38 0 2.124.456.435.84.82 1.238 1.237" stroke-linecap="round" fill="none"/><path stroke-linejoin="round" d="M90.415 363.1c-.09.204-.53.993-.53 1.768.085.95.37 1.11.884 1.77h2.476c.69.125 2.688-.715 3.46-.715-.775.17-2.713 1.216-3.106 1.777-.475.19-.475.475-.53 1.062-.274.46-.17 1.307 0 1.77.333.49.728.925 1.062 1.415" fill="none"/><path stroke-linejoin="round" d="M85.99 365.577c0 .26.067 1.41.178 1.947.685.53 1.113.88 1.947 1.415.87.032 4.458-1.605 5.42-1.605.687 0-3.473 1.883-3.65 1.958-.357.58-.637.846-.708 1.77-.323.537-.1 1.344 0 1.945.283.437.57.653 1.062.884-.238 0-.18.06-.18-.176" fill="none"/><path stroke-linejoin="round" d="M81.39 367.893c0 .06.01-.057-.178.885-.347.463-.044.897.354 1.24.508.684 1.32.85 2.124 1.063.79.14 1.597.178 2.477.178.67 0 3.206-1.665 3.556-1.96-.586.236-3.446 2.08-4.264 2.313-.993.455-1.26.836-1.594 1.77.037 1.01.314 1.254.707 1.95.358.66 1.893-.054 2.486.34" fill="none"/><path stroke-linejoin="round" d="M78.027 370.714v.176c0-.52.03-.227-.53.71-.18.822-.234 1.283.353 1.77.434.64.738.933 1.593 1.06.277.12 4.61-2.317 5.075-2.317-.698.477-5.578 3.29-5.96 4.088-.335.695-.354 1.28-.354 2.126m-4.777-3.003c0 .926-.045 1.64.354 2.124.1.81 1.803.864 2.4 1.148" fill="none"/></g></svg>