<svg xmlns="http://www.w3.org/2000/svg" height="512" width="512" version="1"><defs><clipPath id="a"><path fill-opacity=".67" d="M0 0h496.06v496.06H0z"/></clipPath></defs><g clip-path="url(#a)" transform="scale(1.032)"><g stroke-width="1pt" fill-rule="evenodd"><path fill="#3e9a00" d="M0 0h744.09v166.54H0z"/><path fill="#fff" d="M0 166.54h744.09v162.99H0z"/><path fill="#e32118" d="M0 329.53h744.09v166.54H0z"/><path d="M0 0v496.06l248.032-248.03L0 0z" fill="#5567e4"/></g><path d="M283.46 148.82v442.91c0 35.433 17.716 70.866 53.15 70.866h70.865c17.717 0 35.433 35.433 35.433 35.433s16.938-35.435 35.433-35.435h70.87c35.432 0 53.15-35.433 53.15-70.866V148.82h-318.9z" fill-rule="evenodd" transform="matrix(.23 0 0 .18 261.126 174.17)" stroke="#000" stroke-width="3.791" fill="#ccc"/><path d="M215.38 731.79c-18.02 0-35.738-17.717-35.738-35.433v-88.583c15.502 15.502 88.583 70.866 70.867 88.583-17.72 17.716-35.74 0-35.435 0s.304 35.433.304 35.433z" fill-rule="evenodd" transform="matrix(.232 0 0 .18 259.48 155.365)" stroke="#000" stroke-width="1pt" fill="#ccc"/><path d="M309.41 280.54c4.112-3.184 4.112 3.186 8.224 0l-4.112 19.11c-3.99-.6-4.127 0-6.432-3.185 0-3.185 0-13.362 2.32-15.924z" fill-rule="evenodd" fill="#ccc"/><path d="M215.38 731.79c-18.02 0-35.738-17.717-35.738-35.433v-88.583c15.502 15.502 88.583 70.866 70.867 88.583-17.72 17.716-35.74 0-35.435 0s.304 35.433.304 35.433z" fill-rule="evenodd" transform="matrix(-.232 0 0 .18 466.906 155.365)" stroke="#000" stroke-width="1pt" fill="#ccc"/><path d="M416.34 280.54c-4.113-3.184-4.113 3.186-8.226 0l4.113 19.11c3.99-.6 4.127 0 6.432-3.185 0-3.185 0-13.362-2.32-15.924z" fill-rule="evenodd" fill="#ccc"/><path d="M513.78 1140.9c0-17.71-35.433-53.14-35.433-70.86s35.433 17.72 106.3 17.72c70.866 0 106.3-88.588 88.582-106.3 17.715 35.434 17.715 70.864 17.715 88.584 0 35.43-35.433 70.86-106.3 70.86H513.78z" fill-rule="evenodd" transform="matrix(.232 0 0 .18 260.056 104.11)" stroke="#000" stroke-width="1pt" fill="#ccc"/><path d="M513.78 1140.9c0-17.71-35.433-53.14-35.433-70.86s35.433 17.72 106.3 17.72c70.866 0 106.3-88.588 88.582-106.3 17.715 35.434 17.715 70.864 17.715 88.584 0 35.43-35.433 70.86-106.3 70.86H513.78z" fill-rule="evenodd" transform="matrix(-.232 0 0 .18 465.692 104.11)" stroke="#000" stroke-width="1pt" fill="#ccc"/><path d="M346.423 306.013c0-3.183 8.226-6.37 8.226-9.554v15.92h-8.228v-6.37zm32.9 0c0-3.183-8.225-6.37-8.225-9.554v15.92h8.226v-6.37z" fill-rule="evenodd" fill="#ccc"/><path d="M371.17 1034.6c0 17.71 141.73 17.71 141.73 0v70.87c0 17.71-141.73 17.71-141.73 0v-70.87z" fill-rule="evenodd" transform="matrix(.232 0 0 .18 260.26 120.03)" stroke="#000" stroke-width="1pt" fill="#ccc"/><path d="M249.63 696.36c-17.717 17.716-17.717-17.717-35.433 0-17.717 17.716 17.717 106.3 88.583 106.3s106.3-35.433 106.3-17.717c0 17.717-35.433 35.433-35.433 53.15s141.73 17.717 141.73 0-35.433-35.433-35.433-53.15c0-17.716 35.433 17.717 106.3 17.717 70.866 0 106.3-88.583 88.583-106.3-17.716-17.717-17.716 17.716-35.433 0" transform="matrix(.232 0 0 .18 259.684 155.365)" stroke="#000" stroke-width="1.25" fill="none"/><path d="M413.555 303.84l-4.232-7.06.738-.298 4.234 7.058-.738.3zm-2.648-1.537l.884-.01c.23.847.24 1.548.03 2.104-.21.553-.617.93-1.218 1.13-.62.205-1.206.214-1.753.025-.547-.193-1.07-.56-1.575-1.097-.5-.54-.922-1.16-1.265-1.855-.374-.76-.585-1.46-.634-2.1-.048-.644.067-1.182.346-1.614.28-.436.674-.74 1.183-.908a2.396 2.396 0 0 1 1.73.073c.576.244 1.107.675 1.593 1.297l-.642.473c-.395-.487-.78-.81-1.152-.967a1.58 1.58 0 0 0-1.14-.043c-.442.147-.747.404-.914.772-.164.367-.195.798-.093 1.292.102.492.27.978.508 1.46.305.62.642 1.138 1.012 1.556.37.413.764.684 1.178.813.415.128.797.134 1.15.018a1.29 1.29 0 0 0 .855-.827c.143-.41.116-.94-.08-1.59zm-5.167 4.865l-2.758-7.535.788-.195 2.758 7.535-.788.195zm-5.212.832l-.725-6.915-2.043.145-.097-.925 4.913-.348.097.925-2.05.145.724 6.914-.82.06zm-7.892-2.094l.777-.086c.036.393.122.718.254.97.136.252.346.456.628.613.283.154.602.23.955.23.314 0 .59-.058.832-.176.24-.118.418-.28.535-.483.12-.207.178-.433.178-.676 0-.247-.056-.462-.17-.644-.113-.186-.3-.342-.56-.468-.167-.082-.536-.208-1.107-.38-.573-.176-.972-.34-1.202-.494a1.9 1.9 0 0 1-.666-.73 2.195 2.195 0 0 1-.216-.982c0-.398.09-.768.267-1.11.18-.348.44-.61.783-.79a2.41 2.41 0 0 1 1.14-.268c.463 0 .868.094 1.22.284.353.186.625.46.814.827.19.364.292.777.306 1.24l-.79.074c-.042-.497-.186-.873-.433-1.127-.244-.254-.604-.38-1.082-.38-.5 0-.862.116-1.09.348a1.14 1.14 0 0 0-.34.832c0 .282.08.515.24.698.16.182.572.37 1.24.564.67.19 1.13.355 1.38.5.36.21.63.478.802.804.172.32.258.693.258 1.116 0 .418-.095.814-.284 1.186-.19.37-.463.656-.82.864-.352.204-.75.306-1.195.306-.566 0-1.038-.104-1.42-.31a2.217 2.217 0 0 1-.896-.935 3.222 3.222 0 0 1-.34-1.417zm-2.24-5.426l.82.03-.25 4.543c-.044.79-.15 1.414-.317 1.874-.17.46-.446.83-.83 1.108-.386.275-.877.403-1.476.38-.583-.022-1.052-.167-1.408-.434-.356-.266-.6-.642-.73-1.127-.133-.49-.176-1.15-.13-1.982l.252-4.54.82.03-.25 4.536c-.038.683-.016 1.19.065 1.518.083.325.242.58.475.764.237.185.53.283.885.297.604.022 1.045-.134 1.322-.472.276-.337.442-1 .496-1.986l.253-4.535zm-10.16 5.27l.74-.128c.02.6.11 1.013.27 1.235a.76.76 0 0 0 .657.332c.206 0 .384-.06.534-.178a.928.928 0 0 0 .31-.49c.057-.207.085-.536.085-.987v-5.42h.823v5.36c0 .66-.063 1.17-.19 1.53-.125.362-.325.638-.6.827-.27.19-.59.285-.958.285-.546 0-.965-.2-1.257-.596-.288-.396-.427-.987-.415-1.77zm-13.996 13.143v-1.09l3.188-5.69c.226-.403.44-.755.645-1.053h-3.47v-1.05h4.455v1.05l-3.493 6.16-.378.625h3.973v1.048h-4.92zm-45.308-10.91l1.96-8.735.81.122-1.96 8.734-.81-.122zm-8.808-3.443l5.114-7.824.744.33-1.137 7.412 4.016-6.143.697.307-5.115 7.824-.743-.328 1.14-7.42-4.02 6.15-.695-.308zm4.396-8.73l.583.478-4.41 3.632c-.77.632-1.428 1.093-1.98 1.382-.552.29-1.1.444-1.648.463a2.112 2.112 0 0 1-1.45-.495c-.41-.338-.625-.717-.64-1.134-.017-.42.152-.865.505-1.34.356-.478.94-1.05 1.748-1.716l4.41-3.632.584.478-4.405 3.627c-.663.546-1.118.978-1.364 1.296-.24.314-.36.613-.357.895.003.283.13.526.38.732.43.35.903.463 1.422.336.52-.13 1.258-.587 2.216-1.376l4.406-3.628zm8.786 12.846l.3-8.878 2.142.05c.483.01.85.06 1.103.15.354.127.65.346.89.66.317.4.544.914.685 1.535.144.617.202 1.322.175 2.113a8.91 8.91 0 0 1-.227 1.79c-.128.518-.283.946-.468 1.286-.184.335-.382.6-.596.792-.21.19-.464.33-.758.425a3.065 3.065 0 0 1-1.003.126l-2.245-.05zm.86-1.028l1.326.03c.41.01.733-.038.97-.142.237-.103.43-.253.575-.447.204-.277.368-.646.492-1.11.123-.47.2-1.04.22-1.71.032-.93-.05-1.646-.25-2.148-.195-.505-.443-.846-.743-1.022-.216-.125-.57-.194-1.058-.205l-1.308-.03-.228 6.783zm4.884 1.087l2.39-8.88h.885l2.547 8.88h-.938l-.726-2.69h-2.6l-.684 2.69h-.875zm1.795-3.647h2.11l-.65-2.46a32.89 32.89 0 0 1-.442-1.84c-.08.568-.19 1.133-.335 1.695l-.683 2.605zm4.685 3.647v-8.88h2.142c.484 0 .853.04 1.108.126.356.12.66.33.912.64.328.394.573.9.734 1.52.165.613.246 1.316.246 2.107 0 .675-.054 1.273-.165 1.794-.11.52-.252.954-.425 1.297-.172.34-.362.608-.568.806-.204.193-.452.34-.743.442-.287.1-.62.15-.995.15h-2.245zm.822-1.047h1.328c.41 0 .732-.055.964-.165a1.38 1.38 0 0 0 .56-.46c.195-.28.346-.652.454-1.12.11-.473.166-1.045.166-1.715 0-.93-.108-1.642-.323-2.14-.21-.5-.47-.834-.775-1.004-.22-.12-.576-.182-1.065-.182h-1.308v6.786zm16.792 11.225v-8.882h2.347c.415 0 .73.03.948.087.306.073.562.212.77.42.205.2.37.485.495.853.127.366.19.77.19 1.21 0 .755-.168 1.395-.504 1.92-.338.522-.946.782-1.826.782h-1.596v3.61h-.823zm.823-4.66h1.61c.53 0 .91-.14 1.132-.423.222-.282.333-.68.333-1.193 0-.372-.067-.69-.2-.95-.13-.268-.302-.444-.517-.53-.14-.052-.395-.077-.768-.077h-1.593v3.174zm4.29 4.66l2.39-8.882h.887l2.547 8.884h-.936l-.726-2.69h-2.602l-.682 2.69h-.875zm1.796-3.647h2.11l-.65-2.46a30.943 30.943 0 0 1-.44-1.84c-.08.567-.192 1.133-.336 1.695l-.684 2.607zm53.367-12.1l-4.154-7.595.656-.395 7.806 5.388-.694.42-2.33-1.652-1.925 1.164 1.286 2.28-.647.392zm-1.104-3.483l1.56-.943-2.12-1.517a40.276 40.276 0 0 1-1.554-1.156c.32.453.615.92.883 1.396l1.23 2.22z"/><path d="M419.16 331.78c.065 32.968 19.893 131.63-37.678 284.94-4.262 11.127 7.064 16.484 16.484 18.84 9.42 2.354 14.13-9.42 14.13-11.775s2.354 18.84 11.773 16.484c9.42-2.357 18.837-16.486 18.837-16.486s4.71 21.194 16.484 21.194 11.775-25.905 11.775-25.905c0 2.355 8.164 22.235 17.583 22.235 9.42 0 23.928-8.76 15.547-23.144-59.832-100.72-56.68-267.54-56.68-286.38 0-18.84 27.784-53.068 55.418-53.89l-10.675-16.755c-6.96 2.135-15.28 3.67-29.41 15.443s-22.397 24.59-22.397 24.59v-80.066h-23.547l2.355 73s-8.05-9.438-20.095-19.93c-11.4-9.935-31.972-9.2-44.637-7.12l-1.204 15.99c14.97 3.123 34.067-3.068 43.487 11.06 11.774 11.775 22.414 21.26 22.45 37.678z" fill-rule="evenodd" transform="matrix(.143 0 0 .144 302.417 195.738)" stroke="#000" stroke-width="5.029" fill="#682900"/><path d="M310.55 312.21v-.832c0 1.976-.067 1.1.833-2.498.777-2.848 2.407-5.523 4.163-7.493 3.04-1.014 7.44.053 10.823-.833 2.276-3.268 5.826 4.267 5.826-.833 4.343-.31 4.4-4.557 5.828-6.66 4.054-.5 4.963-5.44 8.326-2.495 2.757 1.305.407-.833 4.997-.833 2.713.664 4.13 2.32 6.66.833.62-2.85 1.4-6.268 1.665-9.99-1.177-2.356-.832-7.184-.832-10.824 2.274-3.032 6.262 2.476 9.99 1.665 1.018-3.562 4.146-3.466 2.498-6.66-.308-4.007-1.08-6.503 0-10.823 1.314-3.703 3.228-3.606 6.66-5.827 1.093-3.277-.122-6.03.833-9.99 3.903-.116 3.834-1.133 4.165-4.996 1.26-2.66 2.858-5.357 4.995-7.494 1.967-2.382 4.302-2.147 5.827-5.828 1.308-3.27 1.31-4.75 4.995-5.828 2.696-1.27 4.833-1.41 6.66-3.33 1.733-3.057 3.175-5.487 5.83-9.16 2.63-1.77 15.236 1.666 19.148 1.666 2.118-2.67 5.397-6.86 7.493-8.326 3.587-1.916 4.96-2.497 9.99-2.497 4.288 1.27 6.082 2.795 10.824 1.666 1.932-2.707 3.816-3.966 8.325-2.5 3.433 2.22 5.347 2.125 6.66 5.83 1.947 4.614 1.51 6.19 6.662 6.66 5.18.185 5.71 1.442 9.158 4.162 5.248 2.25 4.995.98 4.995 5.827 3.72 0 4.052-.44 4.163 3.33 2.294.713 4.907 2.72 6.66 4.162 2.094 2.416 2.63 3.93 7.494 4.163 3.59-1.508 4.75-1.496 4.995-5.828 2.75-.982 3.21-3.635 4.16-6.66 2.11-2.885 3.475-3.33 8.326-3.33 4.28 1.772 4.14 3.567 3.33 7.493 2.665.55 3.765.24 4.164 3.33 1.408 2.346 1.04 5.15-.832 6.66 2.132 1.568 3.37 4.256 4.163 7.493-1.41 2.353-.545 5.81 0 8.327 2.914 1.456 4.417 2.81 8.327 4.163 1.983 1.68 6.2 3.44 9.99 4.163 4.482-.606 5.962-.568 9.992 1.665 2.083 2.994 2.234 6.77 4.162 8.327 2.176 1.843 5.82 2.65 7.494 4.995 2.778 2.03 3.594 4.28 7.493 4.994 1.47 2.228 4.633 5.896 5.827 8.326.94 2.694 1.36 7.413 2.498 10.823v11.656c-.158 4.304-.833 6.916-.833 11.656-.74 2.384-1.665 3.3-1.665 6.66-1.582 3.527-2.93 6.49-4.995 9.16-.94 4.234-2.473 6.222-4.163 9.99.05 4.37.83 6.304.83 10.823-1.81 2.69-3.887 4.646-7.493 6.66-2.724 3.187-4.368 4.426-4.995 9.16-1.565 2.703-1.442 2.496-4.994 2.496-4.2 0-7.814.375-11.656.832-3.378 0-4.64.356-6.66-1.665-3.99-1.804-7.346-1.91-11.657-.833-2.325-1.595-3.258-2.498-7.493-2.498-3.16.427-5.965.832-9.99.832-2.496-2.79-3.898-3.33-8.326-3.33-2.356 1.178-7.184.833-10.824.833-3.82-1.043-4.313-2.63-5.828-5.828-2.605-1.237-3.635-3.04-7.493-3.333-3.64 0-8.47.345-10.823-.832-2.723-.327-5.586-1.027-7.493-2.498a22.068 22.068 0 0 0-5.828-5.828c-3.698 0-5.864.354-7.493-1.666-2.732-2.157-4.89-5.564-8.326-7.493-3.062-2.43-5.136-3.915-6.66-8.325 0-3.943.78-4.874-3.33-4.995-2.756 2.813-4.01 3.33-9.16 3.33-3.388 0-6.93-.017-9.157-.83-3.682-2.09-5.03-3.014-9.16-3.332-2.584 1.645-6.007 3.547-9.99 4.163-3.405 1.968-5.437 2.38-6.66 5.83-3.146 2.568-4.99 4.078-9.16 5.828-2.315 2.21-4.525 2.59-5.827 6.66-.792 3.367-1.665 5.37-1.665 9.99.59 4.37.36 6.238-1.665 9.992-1.74 2.485-4.757 3.7-7.493 5.827-4.116.494-4.548.186-7.493-1.665-2.933-.977-6.266-1.78-9.99-2.498-4.497-.866-6.018-1.96-8.327-4.162l8.326 4.162c-4.496-.866-6.017-1.96-8.326-4.162-5.064-3.583-6.063-5.398-11.656-5.828-5.198.06-7.43.318-8.325 4.995 2.96.787.607 2.552-.835 3.33-2.078 1.85-5.41 3.366-8.326 4.16-1.33 1.33-1.073-1.1-3.33-1.664-3.45-1.842-4.89-3.226-8.327-4.163-1.683-2.97-3.584-5.274-5.828-8.326-1.734-2.818-3.382-3.838-5.828-6.66-1.17-1.754-4.16-1.83-5.827-3.33-1-3.002-3.168-8.57-2.497-11.656 1.68-1.585 2.632-7.242 4.995-8.325 3.367-2.525 4.635-.223 9.16 0 4.258 0-5.867-6.71-1.666-6.66 3.92-.666 4.387-2.595 5.827-4.996h9.99z" fill-rule="evenodd" transform="matrix(.197 0 0 .148 276.755 184.125)" stroke="#000" stroke-width="4.464" fill="#009200"/><path d="M382.98 253.1c.878.713 4.684 2.498 8.326 2.498 3.976.728 4.843 2.216 5.828 5.828 2.174 1.304 3.55 1.665 7.493 1.665 4.36.873 4.322 2.214 7.493 4.997m-53.28 31.633c1.812.266 8.154.832 12.488.832 3.333-1.924 4.912-3.24 7.493-4.995 3.945 0 5.32.36 7.496 1.665 2.105.702 7.052.963 9.158 1.665 0 1.11-.278.833.832.833m-4.996-13.32c.065-.025 3.252-1.946 5.828-2.498 2.835-1.976 5.946-2.94 9.158-4.163 2.117-.46 7.102-.45 8.326-.834m17.478-4.996v.833c0-2.327-.104-1.09 1.665 3.33.874 4.078 1.95 7.526 3.33 10.823 2.455 3.83 4.058 5.547 7.493 7.493 2.94 2.314 5.164 4.722 8.326 5.826 2.202 1.963 5.106 3.584 8.325 4.996 4.27 0 7.556.686 11.654.832h2.498m1.668-80.754v.833c0-2.247.055-1.105-.832 3.33-1.257 2.654-2.705 5.124-4.163 7.493-3.915 1.42-5.374 4.277-6.66 7.493-1.373 2.23-3.506 5.17-4.996 7.49-2.59 3.21-3.624 4.243-8.328 5.83m58.278-14.99c0 .244-1.537 2.434-2.498 4.996-1.653 2.436-2.075 6.86-2.497 9.99 0 3.618.02 7.557.832 9.99 2.516 3.122 3.158 4.765 7.493 6.662l-7.49-6.66c2.516 3.12 3.158 4.764 7.493 6.66m57.447-2.498v.833c0-2.61.217-1.006-4.163 2.497-3.252 3-5.572 5.416-8.325 7.493-4.732 1.255-5.455 1.182-9.99.833h-7.494M582.8 337.19h-.832c2.327 0 1.09-.103-3.33 1.665-3.693.923-7.88.982-10.824 0-2.966-1.68-5.955-3.055-8.326-5.828-1.24-.93-1.42-1.306-2.497-1.665M553.66 363v-.833c0 2.61.217 1.006-4.163-2.498-1.872-2.755-3.748-3.796-7.493-6.66-3.236-3.915-3.66-5.483-4.995-9.993-.358-3.323-1.457-6.734 0-9.158m-44.96 14.98c1.81 0 8.56-.16 11.656-.833 2.418-1.643 5.094-2.746 8.326-4.162 1.764-4.36 3.27-5.81 3.33-10.824m-74.102-9.15c-.652-1.483-3.544-7.436-4.995-10.823-.065-3.638-.833-6.285-.833-9.99M328.86 350.51c.84.126 4.375.403 6.66 0 3.635-1.86 7.022-2.205 10.823-2.498 1.933-1.16 5.086-1.03 6.66-2.497 3.475-2.316 3.938-4.645 5.83-8.326.166-1.675.664-2.49.83-4.165m24.147 4.995c-1.828 0-8.658.125-12.49-.833-1.966-1.273-3.362-3.364-4.994-4.995 1.11 0 .833.277.833-.833m26.64-17.48c.353-.106 4.485-1.665 7.493-1.665 1.79-1.158 4.76-2.237 7.493-3.33 1.48-.797 2.504-1.787 4.163-2.498M293.06 347.18h.833c-2.25 0-1.1.053 3.33-.833 5.18-.32 8.666-2.11 12.49-3.33 2.495-2.318 5.938-4.635 8.324-5.828 0-1.425-.34-1.276.833-1.667m185.67-34.133h.833c-2.328 0-1.09-.103 3.33 1.665 3.517 1.346 6.695 1.78 9.99 2.498 2.994.73 4.128 1.665 8.326 1.665 4.19 1.826 5.102 2.397 8.324 4.995 2.465 1.168 4.22 1.665 8.326 1.665 2.18-1.206 6.162-2.61 8.326-3.33 1.21-.908 1.293-.55 1.665-1.665" transform="matrix(.197 0 0 .18 276.755 173.57)" stroke="#006800" stroke-width="4.05" fill="none"/><path d="M430.94 469.54v18.84c0 6.016-.557 11.276-2.355 16.483 0 5.875-.077 11.554-2.355 15.306-.4 5.616-1.177 10.477-1.177 16.482-1.705 5.116-1.504 12.044-2.355 17.662-.738 5.508-1.393 12.06-2.355 16.484-1.754 3.683-4.745 10.348-7.064 12.95-.29 5.085-1.534 7.588 0 11.775 1.64 4.922 1.175 10.85 1.175 16.484 1.537 4.61 1.178 10.003 1.178 15.305M436.82 493.08c.358 2.36 2.118 10.873 2.355 16.484v25.904c0 6.3.532 11.85 1.178 17.66-.084 6.944-1.346 9.54-4.71 15.308-.662 5.56-1.693 10.924-2.355 16.484-1.64 4.923-1.177 10.85-1.177 16.484 1.406 6.322 3.705 7.453 4.71 12.95 0 3.36.32 5.067 1.18 7.066m9.42-85.95c0 2.155-.14 12.532 1.178 16.484 0 6.023 1.106 10.544 1.177 16.484-.714 5.28-1.453 9.084-4.71 11.774-2.144 4.358-3.314 8.235-3.532 14.13 3.043 2.13 6.35 8.078 9.42 10.596 2.566 5.36 4.955 5.59 5.887 11.774 2.458 2.732-1.733 4.154 0 5.887 1.91 2.546.687 1.467 0 3.53" transform="matrix(.197 0 0 .18 279.385 172.973)" stroke="#000" stroke-width="1pt" fill="none"/><path fill-rule="evenodd" transform="matrix(.156 0 0 .143 358.08 192.35)" stroke="#000" stroke-width="3.125" fill="#ffd100" d="M47.102-26.644l14.175-26.642-14.175-26.642 30.16-1.046 15.986-25.596 15.982 25.596 30.16 1.046-14.17 26.642 14.17 26.642-30.16 1.045L93.248 0 77.262-25.6z"/><path fill-rule="evenodd" transform="matrix(.156 0 0 .143 338.82 192.35)" stroke="#000" stroke-width="3.125" fill="#ffd100" d="M47.102-26.644l14.175-26.642-14.175-26.642 30.16-1.046 15.986-25.596 15.982 25.596 30.16 1.046-14.17 26.642 14.17 26.642-30.16 1.045L93.248 0 77.262-25.6z"/><path fill-rule="evenodd" transform="matrix(.155 -.018 .02 .14 322.322 197.33)" stroke="#000" stroke-width="3.125" fill="#ffd100" d="M47.102-26.644l14.175-26.642-14.175-26.642 30.16-1.046 15.986-25.596 15.982 25.596 30.16 1.046-14.17 26.642 14.17 26.642-30.16 1.045L93.248 0 77.262-25.6z"/><path fill-rule="evenodd" transform="matrix(-.155 -.018 -.02 .14 405.288 196.856)" stroke="#000" stroke-width="3.125" fill="#ffd100" d="M47.102-26.644l14.175-26.642-14.175-26.642 30.16-1.046 15.986-25.596 15.982 25.596 30.16 1.046-14.17 26.642 14.17 26.642-30.16 1.045L93.248 0 77.262-25.6z"/><path fill-rule="evenodd" transform="matrix(-.148 -.047 -.052 .135 420.093 206.76)" stroke="#000" stroke-width="3.125" fill="#ffd100" d="M47.102-26.644l14.175-26.642-14.175-26.642 30.16-1.046 15.986-25.596 15.982 25.596 30.16 1.046-14.17 26.642 14.17 26.642-30.16 1.045L93.248 0 77.262-25.6z"/><path fill-rule="evenodd" transform="matrix(.148 -.047 .052 .135 306.995 205.81)" stroke="#000" stroke-width="3.125" fill="#ffd100" d="M47.102-26.644l14.175-26.642-14.175-26.642 30.16-1.046 15.986-25.596 15.982 25.596 30.16 1.046-14.17 26.642 14.17 26.642-30.16 1.045L93.248 0 77.262-25.6z"/></g></svg>