<svg xmlns="http://www.w3.org/2000/svg" height="512" width="512"><defs><clipPath id="a"><path fill-opacity=".67" d="M185.98 0h496.06v496.06H185.98z"/></clipPath></defs><g clip-path="url(#a)" fill-rule="evenodd" transform="translate(-191.96) scale(1.032)"><path fill="#fff" d="M0 0h868.11v496.06H0z"/><path fill="#da0000" d="M0 333.13h868.11v162.93H0z"/><g stroke-width="1pt" fill="#fff"><path d="M165.025 340.035h47.543v3.27h-47.543zm7.089 16.358h3.27v3.177h-3.27zm40.576-.103v3.27h-9.5v-3.27zm5.112-16.255h3.272v19.532h-3.272z"/><path d="M236.728 356.29v3.27h-18.006v-3.27zm-33.538-7.642h3.272v10.92h-3.272z"/><path d="M234.05 340.035h3.272v19.532h-3.272zm-8.18 0h3.273v19.532h-3.272zm-43.404 7.775v3.27h-17.352v-3.27zm38.076 0v3.27H203.19v-3.27z"/><path d="M203.19 348.648h3.272v10.92h-3.272z"/><path d="M203.19 348.648h3.272v10.92h-3.272z"/><path d="M203.19 348.648h3.272v10.92h-3.272zm-38.076 0h3.27v10.92h-3.27zm27.909 0h3.272v10.92h-3.272zm-13.827 0h3.272v10.92h-3.272z"/><path d="M195.32 356.29v3.27h-14.67v-3.27zm.975-8.48v3.27h-9.3v-3.27z"/></g><g stroke-width="1pt" fill="#fff"><path d="M86.94 340.035h47.543v3.27H86.94zm7.09 16.358h3.27v3.177h-3.27zm40.576-.103v3.27h-9.5v-3.27zm5.111-16.255h3.272v19.532h-3.273z"/><path d="M158.643 356.29v3.27h-18.006v-3.27zm-33.538-7.642h3.272v10.92h-3.272z"/><path d="M155.965 340.035h3.272v19.532h-3.272zm-8.179 0h3.272v19.532h-3.272zm-43.406 7.775v3.27H87.03v-3.27zm38.077 0v3.27h-17.352v-3.27z"/><path d="M125.105 348.648h3.272v10.92h-3.272z"/><path d="M125.105 348.648h3.272v10.92h-3.272z"/><path d="M125.105 348.648h3.272v10.92h-3.272zm-38.075 0h3.27v10.92h-3.27zm27.908 0h3.272v10.92h-3.272zm-13.828 0h3.273v10.92h-3.272z"/><path d="M117.234 356.29v3.27h-14.668v-3.27zm.976-8.48v3.27h-9.3v-3.27z"/></g><g stroke-width="1pt" fill="#fff"><path d="M242.465 340.035h47.543v3.27h-47.543zm7.089 16.358h3.27v3.177h-3.27zm40.576-.103v3.27h-9.5v-3.27zm5.112-16.255h3.272v19.532h-3.272z"/><path d="M314.168 356.29v3.27h-18.006v-3.27zm-33.538-7.642h3.272v10.92h-3.272z"/><path d="M311.49 340.035h3.272v19.532h-3.272zm-8.18 0h3.273v19.532h-3.272zm-43.404 7.775v3.27h-17.352v-3.27zm38.076 0v3.27H280.63v-3.27z"/><path d="M280.63 348.648h3.272v10.92h-3.272z"/><path d="M280.63 348.648h3.272v10.92h-3.272z"/><path d="M280.63 348.648h3.272v10.92h-3.272zm-38.076 0h3.27v10.92h-3.27zm27.909 0h3.272v10.92h-3.272zm-13.827 0h3.272v10.92h-3.272z"/><path d="M272.76 356.29v3.27h-14.67v-3.27zm.975-8.48v3.27h-9.3v-3.27z"/></g><g stroke-width="1pt" fill="#fff"><path d="M789.275 340.035h47.543v3.27h-47.543zm7.089 16.358h3.27v3.177h-3.27zm40.576-.103v3.27h-9.5v-3.27zm5.112-16.255h3.272v19.532h-3.272z"/><path d="M860.978 356.29v3.27h-18.006v-3.27zm-33.538-7.642h3.272v10.92h-3.272z"/><path d="M858.3 340.035h3.272v19.532H858.3zm-8.18 0h3.273v19.532h-3.272zm-43.404 7.775v3.27h-17.352v-3.27zm38.076 0v3.27H827.44v-3.27z"/><path d="M827.44 348.648h3.272v10.92h-3.272z"/><path d="M827.44 348.648h3.272v10.92h-3.272z"/><path d="M827.44 348.648h3.272v10.92h-3.272zm-38.076 0h3.27v10.92h-3.27zm27.909 0h3.272v10.92h-3.272zm-13.827 0h3.272v10.92h-3.272z"/><path d="M819.57 356.29v3.27H804.9v-3.27zm.975-8.48v3.27h-9.3v-3.27z"/></g><g stroke-width="1pt" fill="#fff"><path d="M320.405 340.035h47.543v3.27h-47.543zm7.089 16.358h3.27v3.177h-3.27zm40.576-.103v3.27h-9.5v-3.27zm5.112-16.255h3.272v19.532h-3.272z"/><path d="M392.108 356.29v3.27h-18.006v-3.27zm-33.538-7.642h3.272v10.92h-3.272z"/><path d="M389.43 340.035h3.272v19.532h-3.272zm-8.18 0h3.273v19.532h-3.272zm-43.404 7.775v3.27h-17.352v-3.27zm38.076 0v3.27H358.57v-3.27z"/><path d="M358.57 348.648h3.272v10.92h-3.272z"/><path d="M358.57 348.648h3.272v10.92h-3.272z"/><path d="M358.57 348.648h3.272v10.92h-3.272zm-38.076 0h3.27v10.92h-3.27zm27.909 0h3.272v10.92h-3.272zm-13.827 0h3.272v10.92h-3.272z"/><path d="M350.7 356.29v3.27h-14.67v-3.27zm.975-8.48v3.27h-9.3v-3.27z"/></g><g stroke-width="1pt" fill="#fff"><path d="M398.625 340.035h47.543v3.27h-47.543zm7.089 16.358h3.27v3.177h-3.27zm40.576-.103v3.27h-9.5v-3.27zm5.112-16.255h3.272v19.532h-3.272z"/><path d="M470.328 356.29v3.27h-18.006v-3.27zm-33.538-7.642h3.272v10.92h-3.272z"/><path d="M467.65 340.035h3.272v19.532h-3.272zm-8.18 0h3.273v19.532h-3.272zm-43.404 7.775v3.27h-17.352v-3.27zm38.076 0v3.27H436.79v-3.27z"/><path d="M436.79 348.648h3.272v10.92h-3.272z"/><path d="M436.79 348.648h3.272v10.92h-3.272z"/><path d="M436.79 348.648h3.272v10.92h-3.272zm-38.076 0h3.27v10.92h-3.27zm27.909 0h3.272v10.92h-3.272zm-13.827 0h3.272v10.92h-3.272z"/><path d="M428.92 356.29v3.27h-14.67v-3.27zm.975-8.48v3.27h-9.3v-3.27z"/></g><path fill="#239f40" d="M0 0h868.11v162.93H0z"/><g stroke-width="1pt" fill="#fff"><path d="M477.305 340.035h47.543v3.27h-47.543zm7.089 16.358h3.27v3.177h-3.27zm40.576-.103v3.27h-9.5v-3.27zm5.112-16.255h3.272v19.532h-3.272z"/><path d="M549.008 356.29v3.27h-18.006v-3.27zm-33.538-7.642h3.272v10.92h-3.272z"/><path d="M546.33 340.035h3.272v19.532h-3.272zm-8.18 0h3.273v19.532h-3.272zm-43.404 7.775v3.27h-17.352v-3.27zm38.076 0v3.27H515.47v-3.27z"/><path d="M515.47 348.648h3.272v10.92h-3.272z"/><path d="M515.47 348.648h3.272v10.92h-3.272z"/><path d="M515.47 348.648h3.272v10.92h-3.272zm-38.076 0h3.27v10.92h-3.27zm27.909 0h3.272v10.92h-3.272zm-13.827 0h3.272v10.92h-3.272z"/><path d="M507.6 356.29v3.27h-14.67v-3.27zm.975-8.48v3.27h-9.3v-3.27z"/></g><g stroke-width="1pt" fill="#fff"><path d="M555.535 340.035h47.543v3.27h-47.543zm7.089 16.358h3.27v3.177h-3.27zm40.576-.103v3.27h-9.5v-3.27zm5.112-16.255h3.272v19.532h-3.272z"/><path d="M627.238 356.29v3.27h-18.006v-3.27zm-33.538-7.642h3.272v10.92H593.7z"/><path d="M624.56 340.035h3.272v19.532h-3.272zm-8.18 0h3.273v19.532h-3.272zm-43.404 7.775v3.27h-17.352v-3.27zm38.076 0v3.27H593.7v-3.27z"/><path d="M593.7 348.648h3.272v10.92H593.7z"/><path d="M593.7 348.648h3.272v10.92H593.7z"/><path d="M593.7 348.648h3.272v10.92H593.7zm-38.076 0h3.27v10.92h-3.27zm27.909 0h3.272v10.92h-3.272zm-13.827 0h3.272v10.92h-3.272z"/><path d="M585.83 356.29v3.27h-14.67v-3.27zm.975-8.48v3.27h-9.3v-3.27z"/></g><g stroke-width="1pt" fill="#fff"><path d="M633.755 340.035h47.543v3.27h-47.543zm7.089 16.358h3.27v3.177h-3.27zm40.576-.103v3.27h-9.5v-3.27zm5.112-16.255h3.272v19.532h-3.272z"/><path d="M705.458 356.29v3.27h-18.006v-3.27zm-33.538-7.642h3.272v10.92h-3.272z"/><path d="M702.78 340.035h3.272v19.532h-3.272zm-8.18 0h3.273v19.532H694.6zm-43.404 7.775v3.27h-17.352v-3.27zm38.076 0v3.27H671.92v-3.27z"/><path d="M671.92 348.648h3.272v10.92h-3.272z"/><path d="M671.92 348.648h3.272v10.92h-3.272z"/><path d="M671.92 348.648h3.272v10.92h-3.272zm-38.076 0h3.27v10.92h-3.27zm27.909 0h3.272v10.92h-3.272zm-13.827 0h3.272v10.92h-3.272z"/><path d="M664.05 356.29v3.27h-14.67v-3.27zm.975-8.48v3.27h-9.3v-3.27z"/></g><g stroke-width="1pt" fill="#fff"><path d="M712.435 340.035h47.543v3.27h-47.543zm7.089 16.358h3.27v3.177h-3.27zm40.576-.103v3.27h-9.5v-3.27zm5.112-16.255h3.272v19.532h-3.272z"/><path d="M784.138 356.29v3.27h-18.006v-3.27zm-33.538-7.642h3.272v10.92H750.6z"/><path d="M781.46 340.035h3.272v19.532h-3.272zm-8.18 0h3.273v19.532h-3.272zm-43.404 7.775v3.27h-17.352v-3.27zm38.076 0v3.27H750.6v-3.27z"/><path d="M750.6 348.648h3.272v10.92H750.6z"/><path d="M750.6 348.648h3.272v10.92H750.6z"/><path d="M750.6 348.648h3.272v10.92H750.6zm-38.076 0h3.27v10.92h-3.27zm27.909 0h3.272v10.92h-3.272zm-13.827 0h3.272v10.92h-3.272z"/><path d="M742.73 356.29v3.27h-14.67v-3.27zm.975-8.48v3.27h-9.3v-3.27z"/></g><g stroke-width="1pt" fill="#fff"><path d="M7.92 340.035h47.54v3.27H7.92zm7.088 16.358h3.27v3.177h-3.27zm40.577-.103v3.27h-9.5v-3.27zm5.111-16.255h3.272v19.532h-3.272z"/><path d="M79.622 356.29v3.27H61.616v-3.27zm-33.538-7.642h3.272v10.92h-3.272z"/><path d="M76.944 340.035h3.272v19.532h-3.272zm-8.179 0h3.272v19.532h-3.272zM25.36 347.81v3.27H8.008v-3.27zm38.076 0v3.27H46.084v-3.27z"/><path d="M46.084 348.648h3.272v10.92h-3.272z"/><path d="M46.084 348.648h3.272v10.92h-3.272z"/><path d="M46.084 348.648h3.272v10.92h-3.272zm-38.076 0h3.27v10.92H8.01zm27.909 0h3.272v10.92h-3.273zm-13.827 0h3.272v10.92H22.09z"/><path d="M38.213 356.29v3.27H23.545v-3.27zm.977-8.48v3.27h-9.3v-3.27z"/></g><g stroke-width="1pt" fill="#fff"><path d="M165.025 138.975h47.543v3.27h-47.543zm7.089 16.358h3.27v3.177h-3.27zm40.576-.103v3.27h-9.5v-3.27zm5.112-16.255h3.272v19.532h-3.272z"/><path d="M236.728 155.23v3.27h-18.006v-3.27zm-33.538-7.642h3.272v10.92h-3.272z"/><path d="M234.05 138.975h3.272v19.532h-3.272zm-8.18 0h3.273v19.532h-3.272zm-43.404 7.775v3.27h-17.352v-3.27zm38.076 0v3.27H203.19v-3.27z"/><path d="M203.19 147.588h3.272v10.92h-3.272z"/><path d="M203.19 147.588h3.272v10.92h-3.272z"/><path d="M203.19 147.588h3.272v10.92h-3.272zm-38.076 0h3.27v10.92h-3.27zm27.909 0h3.272v10.92h-3.272zm-13.827 0h3.272v10.92h-3.272z"/><path d="M195.32 155.23v3.27h-14.67v-3.27zm.975-8.48v3.27h-9.3v-3.27z"/></g><g stroke-width="1pt" fill="#fff"><path d="M86.94 138.975h47.543v3.27H86.94zm7.09 16.358h3.27v3.177h-3.27zm40.576-.103v3.27h-9.5v-3.27zm5.111-16.255h3.272v19.532h-3.273z"/><path d="M158.643 155.23v3.27h-18.006v-3.27zm-33.538-7.642h3.272v10.92h-3.272z"/><path d="M155.965 138.975h3.272v19.532h-3.272zm-8.179 0h3.272v19.532h-3.272zm-43.406 7.775v3.27H87.03v-3.27zm38.077 0v3.27h-17.352v-3.27z"/><path d="M125.105 147.588h3.272v10.92h-3.272z"/><path d="M125.105 147.588h3.272v10.92h-3.272z"/><path d="M125.105 147.588h3.272v10.92h-3.272zm-38.075 0h3.27v10.92h-3.27zm27.908 0h3.272v10.92h-3.272zm-13.828 0h3.273v10.92h-3.272z"/><path d="M117.234 155.23v3.27h-14.668v-3.27zm.976-8.48v3.27h-9.3v-3.27z"/></g><g stroke-width="1pt" fill="#fff"><path d="M242.465 138.975h47.543v3.27h-47.543zm7.089 16.358h3.27v3.177h-3.27zm40.576-.103v3.27h-9.5v-3.27zm5.112-16.255h3.272v19.532h-3.272z"/><path d="M314.168 155.23v3.27h-18.006v-3.27zm-33.538-7.642h3.272v10.92h-3.272z"/><path d="M311.49 138.975h3.272v19.532h-3.272zm-8.18 0h3.273v19.532h-3.272zm-43.404 7.775v3.27h-17.352v-3.27zm38.076 0v3.27H280.63v-3.27z"/><path d="M280.63 147.588h3.272v10.92h-3.272z"/><path d="M280.63 147.588h3.272v10.92h-3.272z"/><path d="M280.63 147.588h3.272v10.92h-3.272zm-38.076 0h3.27v10.92h-3.27zm27.909 0h3.272v10.92h-3.272zm-13.827 0h3.272v10.92h-3.272z"/><path d="M272.76 155.23v3.27h-14.67v-3.27zm.975-8.48v3.27h-9.3v-3.27z"/></g><g stroke-width="1pt" fill="#fff"><path d="M789.275 138.975h47.543v3.27h-47.543zm7.089 16.358h3.27v3.177h-3.27zm40.576-.103v3.27h-9.5v-3.27zm5.112-16.255h3.272v19.532h-3.272z"/><path d="M860.978 155.23v3.27h-18.006v-3.27zm-33.538-7.642h3.272v10.92h-3.272z"/><path d="M858.3 138.975h3.272v19.532H858.3zm-8.18 0h3.273v19.532h-3.272zm-43.404 7.775v3.27h-17.352v-3.27zm38.076 0v3.27H827.44v-3.27z"/><path d="M827.44 147.588h3.272v10.92h-3.272z"/><path d="M827.44 147.588h3.272v10.92h-3.272z"/><path d="M827.44 147.588h3.272v10.92h-3.272zm-38.076 0h3.27v10.92h-3.27zm27.909 0h3.272v10.92h-3.272zm-13.827 0h3.272v10.92h-3.272z"/><path d="M819.57 155.23v3.27H804.9v-3.27zm.975-8.48v3.27h-9.3v-3.27z"/></g><g stroke-width="1pt" fill="#fff"><path d="M320.405 138.975h47.543v3.27h-47.543zm7.089 16.358h3.27v3.177h-3.27zm40.576-.103v3.27h-9.5v-3.27zm5.112-16.255h3.272v19.532h-3.272z"/><path d="M392.108 155.23v3.27h-18.006v-3.27zm-33.538-7.642h3.272v10.92h-3.272z"/><path d="M389.43 138.975h3.272v19.532h-3.272zm-8.18 0h3.273v19.532h-3.272zm-43.404 7.775v3.27h-17.352v-3.27zm38.076 0v3.27H358.57v-3.27z"/><path d="M358.57 147.588h3.272v10.92h-3.272z"/><path d="M358.57 147.588h3.272v10.92h-3.272z"/><path d="M358.57 147.588h3.272v10.92h-3.272zm-38.076 0h3.27v10.92h-3.27zm27.909 0h3.272v10.92h-3.272zm-13.827 0h3.272v10.92h-3.272z"/><path d="M350.7 155.23v3.27h-14.67v-3.27zm.975-8.48v3.27h-9.3v-3.27z"/></g><g stroke-width="1pt" fill="#fff"><path d="M398.625 138.975h47.543v3.27h-47.543zm7.089 16.358h3.27v3.177h-3.27zm40.576-.103v3.27h-9.5v-3.27zm5.112-16.255h3.272v19.532h-3.272z"/><path d="M470.328 155.23v3.27h-18.006v-3.27zm-33.538-7.642h3.272v10.92h-3.272z"/><path d="M467.65 138.975h3.272v19.532h-3.272zm-8.18 0h3.273v19.532h-3.272zm-43.404 7.775v3.27h-17.352v-3.27zm38.076 0v3.27H436.79v-3.27z"/><path d="M436.79 147.588h3.272v10.92h-3.272z"/><path d="M436.79 147.588h3.272v10.92h-3.272z"/><path d="M436.79 147.588h3.272v10.92h-3.272zm-38.076 0h3.27v10.92h-3.27zm27.909 0h3.272v10.92h-3.272zm-13.827 0h3.272v10.92h-3.272z"/><path d="M428.92 155.23v3.27h-14.67v-3.27zm.975-8.48v3.27h-9.3v-3.27z"/></g><g stroke-width="1pt" fill="#fff"><path d="M477.305 138.975h47.543v3.27h-47.543zm7.089 16.358h3.27v3.177h-3.27zm40.576-.103v3.27h-9.5v-3.27zm5.112-16.255h3.272v19.532h-3.272z"/><path d="M549.008 155.23v3.27h-18.006v-3.27zm-33.538-7.642h3.272v10.92h-3.272z"/><path d="M546.33 138.975h3.272v19.532h-3.272zm-8.18 0h3.273v19.532h-3.272zm-43.404 7.775v3.27h-17.352v-3.27zm38.076 0v3.27H515.47v-3.27z"/><path d="M515.47 147.588h3.272v10.92h-3.272z"/><path d="M515.47 147.588h3.272v10.92h-3.272z"/><path d="M515.47 147.588h3.272v10.92h-3.272zm-38.076 0h3.27v10.92h-3.27zm27.909 0h3.272v10.92h-3.272zm-13.827 0h3.272v10.92h-3.272z"/><path d="M507.6 155.23v3.27h-14.67v-3.27zm.975-8.48v3.27h-9.3v-3.27z"/></g><g stroke-width="1pt" fill="#fff"><path d="M555.535 138.975h47.543v3.27h-47.543zm7.089 16.358h3.27v3.177h-3.27zm40.576-.103v3.27h-9.5v-3.27zm5.112-16.255h3.272v19.532h-3.272z"/><path d="M627.238 155.23v3.27h-18.006v-3.27zm-33.538-7.642h3.272v10.92H593.7z"/><path d="M624.56 138.975h3.272v19.532h-3.272zm-8.18 0h3.273v19.532h-3.272zm-43.404 7.775v3.27h-17.352v-3.27zm38.076 0v3.27H593.7v-3.27z"/><path d="M593.7 147.588h3.272v10.92H593.7z"/><path d="M593.7 147.588h3.272v10.92H593.7z"/><path d="M593.7 147.588h3.272v10.92H593.7zm-38.076 0h3.27v10.92h-3.27zm27.909 0h3.272v10.92h-3.272zm-13.827 0h3.272v10.92h-3.272z"/><path d="M585.83 155.23v3.27h-14.67v-3.27zm.975-8.48v3.27h-9.3v-3.27z"/></g><g stroke-width="1pt" fill="#fff"><path d="M633.755 138.975h47.543v3.27h-47.543zm7.089 16.358h3.27v3.177h-3.27zm40.576-.103v3.27h-9.5v-3.27zm5.112-16.255h3.272v19.532h-3.272z"/><path d="M705.458 155.23v3.27h-18.006v-3.27zm-33.538-7.642h3.272v10.92h-3.272z"/><path d="M702.78 138.975h3.272v19.532h-3.272zm-8.18 0h3.273v19.532H694.6zm-43.404 7.775v3.27h-17.352v-3.27zm38.076 0v3.27H671.92v-3.27z"/><path d="M671.92 147.588h3.272v10.92h-3.272z"/><path d="M671.92 147.588h3.272v10.92h-3.272z"/><path d="M671.92 147.588h3.272v10.92h-3.272zm-38.076 0h3.27v10.92h-3.27zm27.909 0h3.272v10.92h-3.272zm-13.827 0h3.272v10.92h-3.272z"/><path d="M664.05 155.23v3.27h-14.67v-3.27zm.975-8.48v3.27h-9.3v-3.27z"/></g><g stroke-width="1pt" fill="#fff"><path d="M712.435 138.975h47.543v3.27h-47.543zm7.089 16.358h3.27v3.177h-3.27zm40.576-.103v3.27h-9.5v-3.27zm5.112-16.255h3.272v19.532h-3.272z"/><path d="M784.138 155.23v3.27h-18.006v-3.27zm-33.538-7.642h3.272v10.92H750.6z"/><path d="M781.46 138.975h3.272v19.532h-3.272zm-8.18 0h3.273v19.532h-3.272zm-43.404 7.775v3.27h-17.352v-3.27zm38.076 0v3.27H750.6v-3.27z"/><path d="M750.6 147.588h3.272v10.92H750.6z"/><path d="M750.6 147.588h3.272v10.92H750.6z"/><path d="M750.6 147.588h3.272v10.92H750.6zm-38.076 0h3.27v10.92h-3.27zm27.909 0h3.272v10.92h-3.272zm-13.827 0h3.272v10.92h-3.272z"/><path d="M742.73 155.23v3.27h-14.67v-3.27zm.975-8.48v3.27h-9.3v-3.27z"/></g><g stroke-width="1pt" fill="#fff"><path d="M7.92 138.975h47.54v3.27H7.92zm7.088 16.358h3.27v3.177h-3.27zm40.577-.103v3.27h-9.5v-3.27zm5.111-16.255h3.272v19.532h-3.272z"/><path d="M79.622 155.23v3.27H61.616v-3.27zm-33.538-7.642h3.272v10.92h-3.272z"/><path d="M76.944 138.975h3.272v19.532h-3.272zm-8.179 0h3.272v19.532h-3.272zM25.36 146.75v3.27H8.008v-3.27zm38.076 0v3.27H46.084v-3.27z"/><path d="M46.084 147.588h3.272v10.92h-3.272z"/><path d="M46.084 147.588h3.272v10.92h-3.272z"/><path d="M46.084 147.588h3.272v10.92h-3.272zm-38.076 0h3.27v10.92H8.01zm27.909 0h3.272v10.92h-3.273zm-13.827 0h3.272v10.92H22.09z"/><path d="M38.213 155.23v3.27H23.545v-3.27zm.977-8.48v3.27h-9.3v-3.27z"/></g><path d="M119.3 328.94h5.86v10.178h-5.86zm155.54 0h5.86v10.178h-5.86zm-274.882 0h5.86v10.178h-5.86zm78.942 0h5.86v10.178H78.9zm78.378 0h5.86v10.178h-5.86zm38.78 0h5.86v10.178h-5.86zm39.59 0h5.86v10.178h-5.86zm77.972 0h5.86v10.178h-5.86zm196.74 0h5.86v10.178h-5.86zm-157.152 0h5.86v10.178h-5.86zm38.79 0h5.86v10.178h-5.86zm39.18 0h5.86v10.178h-5.86zm39.19 0h5.86v10.178h-5.86zm313.092 0h5.86v10.178h-5.86zm-235.122 0h5.86v10.178h-5.86zm39.59 0h5.86v10.178h-5.86zm40 0h5.86v10.178h-5.86zm37.57 0h5.86v10.178h-5.86zm39.99 0h5.86v10.178h-5.86zm39.19 0h5.86v10.178h-5.86zm115.952 0h5.86v10.178h-5.86zm-37.572 0h5.86v10.178h-5.86zm-783.75 0h5.86v10.178h-5.86z" stroke-width="1pt" fill="#d90000"/><path d="M119.3 157.55h5.86v10.178h-5.86zm155.54 0h5.86v10.178h-5.86zm-274.882 0h5.86v10.178h-5.86zm78.942 0h5.86v10.178H78.9zm78.378 0h5.86v10.178h-5.86zm38.78 0h5.86v10.178h-5.86zm39.59 0h5.86v10.178h-5.86zm77.972 0h5.86v10.178h-5.86zm196.74 0h5.86v10.178h-5.86zm-157.152 0h5.86v10.178h-5.86zm38.79 0h5.86v10.178h-5.86zm39.18 0h5.86v10.178h-5.86zm39.19 0h5.86v10.178h-5.86zm313.092 0h5.86v10.178h-5.86zm-235.122 0h5.86v10.178h-5.86zm39.59 0h5.86v10.178h-5.86zm40 0h5.86v10.178h-5.86zm37.57 0h5.86v10.178h-5.86zm39.99 0h5.86v10.178h-5.86zm39.19 0h5.86v10.178h-5.86zm115.952 0h5.86v10.178h-5.86zm-37.572 0h5.86v10.178h-5.86zm-783.75 0h5.86v10.178h-5.86z" stroke-width="1pt" fill="#239e3f"/><g fill="#da0000"><path d="M457.08 191.36c8.19 10.04 33.437 65.548-15.242 101.91-22.884 17.223-8.714 18.093-8.037 20.988 36.786-19.54 48.8-46.013 48.52-69.727-.28-23.714-12.852-44.668-25.24-53.166z"/><path d="M461.95 188.78c18.165 9.3 57.7 56.08 15.148 108.85 26.44-5.868 60.053-83.73-15.15-108.85zm-55.79 0c-18.167 9.3-57.702 56.08-15.15 108.85-26.44-5.868-60.053-83.73 15.15-108.85z"/><path d="M410.96 191.36c-8.19 10.04-33.44 65.548 15.24 101.91 22.884 17.223 8.714 18.093 8.037 20.988-36.785-19.54-48.8-46.013-48.52-69.727.28-23.714 12.853-44.668 25.242-53.166z"/><path d="M480.72 309.2c-14.4.228-32.55-1.984-46.01-8.98 2.216 4.312 4.058 7.027 6.275 11.338 12.838 1.184 30.554 2.65 39.734-2.358zm-92.02 0c14.397.228 32.548-1.984 46.01-8.98-2.218 4.312-4.06 7.027-6.277 11.338-12.838 1.184-30.554 2.65-39.734-2.358zm26.41-134.4c2.916 7.753 10.57 8.88 18.76 4.315 5.97 3.582 15.203 3.81 18.387-3.94 2.42 19.17-17.736 14.634-18.487 10.882-7.504 7.254-21.475 3.064-18.66-11.257z"/><path d="M434.41 321.27l7.57-8.652 1.08-116.44-9.01-7.93-9.013 7.57 1.802 117.16 7.57 8.29z"/></g></g></svg>