<svg xmlns="http://www.w3.org/2000/svg" height="480" width="640"><defs><clipPath id="a"><path fill-opacity=".67" d="M0 0h640v480H0z"/></clipPath></defs><g fill-rule="evenodd" clip-path="url(#a)"><g stroke-width="1pt"><path d="M-160.218 33.142l.118 114.17L799.905 346.66V233.313l-960.12-200.17z" fill="#fff"/><path d="M-160.1 246.65V480h960.005v-33.325L-160.1 246.648zm960.005-13.306V-.006H-160.1V33.32l960.005 200.024z" fill="#fdd114"/><path d="M-160.1 146.713v100.004l960.314 199.96-.31-100.015-960.004-199.95z"/></g><path transform="matrix(1.1378 0 0 1.138 1.618 -513.14)" stroke="#000" stroke-width="1.562" fill="#cf1126" d="M274.57 617.61h9.54v25.46h-9.54z"/><path d="M415.12 645.68c-.24-33.566 1.125-65.845 3.766-75.002s6.556-11.06 11.416-15.608c-11.512-1.043-24.218 8.647-30.06 21.408-3.707-14.398-10.64-24.156-16.74-29.056-6.098 4.9-13.29 14.808-16.567 29.183-6.01-10.712-16.555-22.588-29.028-21.254 4.434 4.62 8.48 6.334 11.178 15.287s4.044 41.016 3.075 74.6" transform="matrix(.5185 0 0 .5925 120.52 -116.466)" stroke="#000" stroke-width="3.207" fill="#cf1126"/><path d="M414.44 641.96c-.24-33.565 1.37-62.22 3.677-71.327 2.31-9.106 5.993-10.806 11.258-14.746-11.512-1.043-22.48 1.756-28.902 17.355-3.592-14.5-10.64-21.623-16.74-26.523-6.098 4.9-13.29 12.272-16.567 26.647-7.053-15.474-16.903-18.94-29.376-17.606 5.186 4.317 9.262 5.928 11.8 14.856s2.86 37.315 1.89 70.9" transform="matrix(.5654 0 0 .711 102.41 -140.62)" stroke="#000" stroke-width="2.804" fill="#cf1126"/><path d="M343.292 329.038c-.22-5.554.54-13.013 1.803-15.896 1.263-2.883 3.024-4.988 4.802-7.432-7.624-1.1-15.376-.538-19.492 10.642-2.666-10.22-6.666-15.553-11.003-19.037-4.337 3.484-8.102 8.817-10.77 19.037-4.115-11.18-11.904-11.858-19.762-10.642 1.778 2.444 3.608 4.55 4.938 7.432 1.33 2.883 2.162 10.342 1.94 15.896M315.387 133.28v22.9h8.085v-22.9h-8.085z" stroke="#000" stroke-width="1.7774999999999999" fill="#cf1126"/><path opacity=".99" stroke-linejoin="bevel" d="M371.514 415.75c2 1.336 9.98 2.737 24.44.22 25.25-4.422 25.04-29.33 64.368-17.775-1.778-3.555-8-14.44-23.33-14.88 1.555-5.113 2.665-12.664-.223-17.335-2.963 6.59-7.55 9.655-10.876 11.81-1.024-.555-6.968-5.41-7.612-12.727-.893-14.505-7.97-17.064-8.723-16.68-4.544-.13-31.903 43.122-90.49 43.406-57.726.276-86.614-43.024-89.877-43.408-.752-.383-7.83 2.176-8.723 16.68-.644 7.317-6.657 11.96-7.667 12.607-3.312-2.063-7.857-5.1-10.82-11.69-2.888 4.67-1.778 12.222-.222 17.334-15.33.44-21.55 11.326-23.33 14.88 39.33-11.553 39.408 13.354 64.657 17.776 14.462 2.517 21.96 1.337 23.96.007" stroke="#000" stroke-width="1.7774999999999999" fill="#cf1126"/><path opacity=".99" stroke-linejoin="bevel" d="M249.5 403.307c-13.698-.547-40.42-21.38-36.627-25.667 1.203-1.216 7.09.036 17.283 7.167 15.126 10.31 28.105 42.816 88.79 42.568 61.842-.25 74.533-32.26 89.656-42.568 10.193-7.13 16.552-8.27 17.27-6.875 3.64 4.11-23.108 24.892-36.805 25.44" stroke="#000" stroke-width="1.7774999999999999" fill="#cf1126"/><path d="M230.74 193.03c-54.113 57.012-25.003 187.96 87.468 189.852 113.078 1.267 146.06-131.01 89.878-190.1m-166.388 2.206c-28.79 48.475 1.14 133.412 78.124 133.412 77.62 0 106.067-85.554 77.556-133.703" stroke="#000" stroke-width="1.7774999999999999" fill="#cf1126"/><path d="M339.548 399.678c3.935.874 7.525 4.937 6.08 9.113-1.606 4.98-7.532 6.19-9.772 5.827-2.41-1.446-.965-3.533 6.424-4.337 4.817-1.768.43-5.026-3.212-6.586-1.98-.85-1.367-4.426.48-4.016zm-12.203-1.283c1.83-2.082 3.316 4.298 3.722 8.72.533 4.32.59 9.647-1.152 9.91-1.062.18-.17-4.958-1.268-9.67-1.432-5.458-2.05-8.045-1.302-8.96z" stroke="#cf1126" stroke-width=".266" fill="#fdd114"/><path d="M323.143 406.264c4.594 4.452-3.187 17.347-20.21 11.726-.965-1.767 6.76-.02 12.204-.964 10.36-1.636 5.916-12.737 8.006-10.762z" stroke="#cb4f46" stroke-width=".266" fill="#fdd114"/><path d="M314.814 397.426c1.83-2.08.764 4.507 1.145 8.934.37 4.16-.094 9.22-2.067 8.565-1.07-.515.683-5.186-.414-9.577-1.177-5.52-.056-6.525 1.333-7.922zm-11.684-1.768c3.25-.02 2.378.89 2.147 9.57-.254 9.723-8.466 10.81-10.418 8.143-1.64-2.09-1.04-2.72-8.38-2.02-1.64-.827-1.58-2.586-6.94-2.136-1.387.256-1.34-2.374-3.84-3.945-4.363-2.607-5.815 1.92-14.13-2.87-.52-.29-3.894-2.43-3.277-6.656.642-5.34-4.228.653-9.58-1.678-1.036-.462-4.173-1.767-6.94-4.196-3.907-3.36.184-4.04 5.462-.615 3.26 2.067 8.047-2.69 8.176-7.448.293-5.037-2.213-6.36 1.67-6.237 2.167.065 1.65 8.8-2.03 12.668-4.924 5.323-1.6 4.297.16 4.03 1.833-.46 10.177-10.8 11.57-9.912 2.165 1.473-6.507 8.083-4.565 14.34.928 2.79 6.097 5.46 10.353 5.894 5.003.833 5.017-5.962 7.045-4.675 2.807 1.842-5.363 5.31 3.215 7.838 1.894.568 2.99-4.257 4.11-4.047 2.69.44-1.76 5.634 3.053 6.46 3.356.558 2.437-4.85 4.517-4.522 2.406-.154.147 8.653 6.82 7.755 2.812-.37-1.588-15.723 1.8-15.743z" stroke="#cf1126" stroke-width=".266" fill="#fdd114"/><path d="M242.656 384.23c1.932-.413 5.244-2.208 5.382-5.106.276-3.173-4.14-4.278-9.383-3.45-2.76.415-7.45-1.38-10.21-3.726-2.76-3.45-2.76-7.31-6.07-5.656-2.484 1.103 3.45 7.45 6.346 8.97 2.9 1.517 7.59 1.38 7.867 3.586.276 2.208-1.104 5.657 6.07 5.38zm117.414 14.806c-1.066.516-1.93 10.158 4.09 10.366 7.564.27 11.367-3.565 13.262-4.928 3.146-2.392 8.817-7.17 6.192-11.293-1.313-1.494-2.04 2.755-3.553 5.24-2.06 3.65-9.113 7.976-14.517 7.386-6.62-.407-4.125-7.114-5.472-6.77z" stroke="#cf1126" stroke-width=".266" fill="#fdd114"/><path d="M375.615 394.57c-1.54-1.165 3.422-3.07 3.935-4.87.515-1.8-2.19-3.496-.687-5.468 1.578-2.597 1.664 4.895 3.67 5.11 5.55.58 1.587 4.165-.507 3.472-2.37-.707-5.482 2.63-6.41 1.755zm-4.298-11.345c-.357 2.5 1.16 3.126 1.61 1.697.534-2.68-.985-3.93-1.61-1.697z" stroke="#cf1126" stroke-width=".266" fill="#fdd114"/><path d="M375.337 380.634c-.894.07-1.018 3.173.145 3.26 1.256.098.676 2.216 1.73 2.188 1.254-.033 1.35-3.552-.07-3.585-1.32-.033-1.007-1.85-1.805-1.863zm10.05-.594c-1.063 1.344-3.08-5.178 3.703-6.11 3.224.283 5.974 5.593 5.69 10.713-.108 1.894-.19 6.164-1.232 8.25-.855 1.992-3.983 8.536-5.5 7.967-1.517-.57.397-3.31 2.94-7.113 2.055-3.114 2.845-11.76 1.8-13.276s-2.092 3.796-4.266 4.934c-1.808.948-3.697-1.795-3.982-3.122-.225-1.573 1.21-2.54 2.18-.67.775 1.405 3.156-1.384 3.1-3.377.063-3.223-2.074-.667-4.434 1.807zM400 365.488c-.855 1.233-3.793 3.983-4.362 5.12s-.665 3.13.283 5.027c.95 1.896 2.94 4.93 2.563 7.68-.38 2.75-2.276 8.44-1.233 7.966 1.042-.473 3.602-6.07 3.033-10.335-.57-4.267-2.56-6.637-2.18-8.06.377-1.42 2.748-4.076 3.223-5.878.474-1.803-.285-6.638-.948-7.017s-3.034.473-2.276 2.085c.76 1.612 2.37.663 1.897 3.413z" stroke="#cf1126" stroke-width=".266" fill="#fdd114"/><path d="M403.897 367.69c-1.065.97-.535 6.253.93 4.367 1.33-1.838-.078-5.23-.93-4.366z" stroke="#cf1126" stroke-width=".251" fill="#fdd114"/><path d="M376.027 406.918c-.5 2.312 1.778 3.044 2.404 1.723.75-2.475-1.53-3.785-2.402-1.72z" stroke="#cf1126" stroke-width=".303" fill="#fdd114"/><path d="M379.514 404.957c-.74 1.897 2.56 2.063 3.488.98 1.11-2.034-2.193-2.674-3.488-.98z" stroke="#cf1126" stroke-width=".334" fill="#fdd114"/><path d="M242.244 377.607c-1.765-.79-1.655 2.76-.826 3.725.826.966 5.64-1.51.826-3.725z" stroke="#cf1126" stroke-width=".266" fill="#cf1126"/><path d="M320.15 182.7c-17.735 3.55-29.913 13.947-24.203 17.483 3.496 2.33 19.917-4.072 23.382-9.508 6.298 9.615 23.39 13.242 27.518 11.086" stroke="#000" stroke-linecap="round" stroke-width="1.7774999999999999" fill="#cf1126"/><path d="M228.173 177.083c2.944 4.55 18.196 15.52 29.166 16.324 10.97.803 35.854 5.887 40.67 3.746 4.817-2.14 18.464-11.507 21.94-9.9 3.48 1.605 23.817 12.844 31.31 12.576 7.492-.27 55.924-13.917 57.53-16.593 1.605-2.676-9.634-9.634-16.858-9.634-7.225 0-163.76 3.747-163.76 3.48z" fill="#cf1126"/><path d="M270.772 199.09c.088 2.734 2.19 4.71 7.233 4.763 8.468.177 22.793-3.828 31.348-13.443" stroke="#000" stroke-linecap="round" stroke-width="1.7774999999999999" fill="#cf1126"/><path d="M245.368 195.03c-.44 2.294 3.353 5.293 10.762 5.38s33.255-3.086 41.546-11.73" stroke="#000" stroke-linecap="round" stroke-width="1.7774999999999999" fill="#cf1126"/><path d="M227.87 188.083c-3.97 5.116 8.678 6.95 16.263 6.86 7.587-.087 27.165-.188 35.934-6.715" stroke="#000" stroke-linecap="round" stroke-width="1.7774999999999999" fill="#cf1126"/><path d="M214.013 179.502c-3.793 5.028 8.952 9.444 24.477 9.09 14.29-.352 28.845-5.292 28.845-5.292m100.332 15.79c-.088 2.734-2.19 4.71-7.233 4.763-8.468.177-22.792-3.828-31.348-13.443" stroke="#000" stroke-linecap="round" stroke-width="1.7774999999999999" fill="#cf1126"/><path d="M393.07 195.03c.442 2.294-3.35 5.293-10.76 5.38s-33.255-3.086-41.547-11.73" stroke="#000" stroke-linecap="round" stroke-width="1.7774999999999999" fill="#cf1126"/><path d="M410.455 188.19c3.97 5.116-8.566 6.838-16.152 6.75-7.586-.09-27.164-.19-35.933-6.717" stroke="#000" stroke-linecap="round" stroke-width="1.7774999999999999" fill="#cf1126"/><path d="M424.47 179.416c3.792 5.028-8.995 9.53-24.52 9.178-14.29-.353-28.846-5.293-28.846-5.293" stroke="#000" stroke-linecap="round" stroke-width="1.7774999999999999" fill="#cf1126"/><path d="M244.472 179.032c-19.72 2.848-28.802 1.397-32.738-.485-4.916-2.163-13.336-8.752-.9-8.99 8.24-.162 12.394.468 21.762.42 23.965-.3 58.558-19.224 69.046-19.3 9.74-.073 12.326 4.43 17.88 4.522 5.686.064 7.527-4.597 17.268-4.525 10.487.078 45.08 19 69.045 19.3 9.368.05 13.52-.58 21.762-.42 12.435.24 4.017 6.828-.9 8.992-3.936 1.88-13.02 3.332-32.738.485" stroke="#000" stroke-linecap="round" stroke-width="1.7774999999999999" fill="#cf1126"/><path d="M319.154 108.244c-9.277.466-22.046-1.12-26.146 9.227-6.245 11.837-4.484 25.254-1.678 25.537 5.023.555 5.5-13.4 7.643-13.42 2.238-.026 2.236 12.115 6.617 12.022 3.262-.093 5.312-12.21 6.337-12.116s3.17 11.65 7.295 11.65c4.406 0 6.27-11.557 7.295-11.65s3.076 12.023 6.338 12.115c4.38.093 4.378-12.05 6.617-12.024 2.142.022 3.086 13.883 8.11 13.33 2.805-.284 4.193-13.608-2.05-25.444-4.102-10.346-17.15-8.76-26.377-9.227z" stroke="#000" stroke-width="1.7774999999999999" fill="#cf1126"/><path d="M296.878 112.482c2.492 4.185 21.924 4.086 23.02 4.086s18.04.2 22.024-3.886m-26.273-43.85v41.262s.222 2.304 3.642 2.38 3.94-1.934 3.94-2.232l-.15-41.483" stroke="#000" stroke-width="1.7774999999999999" fill="#cf1126"/><path d="M319.652 73.618c15.545-.796 20.18 8.372 24.565 10.365s6.377 2.79 12.357 2.39c5.98-.397-10.364 9.967-10.364 10.365l5.98 10.762c-5.582.797-16.15-4.354-20.33-7.174-4.728-2.792-9.964-1.196-11.957-1.595l-.25-25.112z" stroke="#000" stroke-width="1.7774999999999999" fill="#cf1126"/><path d="M313.4 264.67c0 4.333-3.893 7.85-8.69 7.85-4.796 0-8.69-3.517-8.69-7.85 0-4.332 3.894-7.848 8.69-7.848 4.797 0 8.69 3.516 8.69 7.848z" transform="matrix(1.0322 0 0 1.092 4.814 -227.95)" stroke="#000" stroke-width="1.674" fill="#cf1126"/><g stroke="#cf1126" stroke-width=".375" fill="#fdd114"><path d="M223.22 266c-1.184 1.655-2.206-2.703-6.275.354-2.296 1.96-3.214 4.967-3.2 11.248.016 5.327 3.08 8.883 4.858 8.527 2.723-.356 1.3-6.87 4.262-8.053 4.263-2.013 10.302 1.065 11.37 4.973s-2.015 8.17-5.33 7.697c-1.896-.71 1.066-3.434 1.302-4.618.237-1.185.59-5.093-2.25-6.158-2.842-1.066-2.368 2.842-2.486 3.908-.117 1.065-2.13 4.38-4.38 4.26-2.25-.117-5.826-.105-9.356-3.906-1.87-1.95-4.145-7.223-2.13-13.855 2.012-6.632 5.446-7.225 7.34-7.343 1.895-.118 6.75 1.066 6.277 2.96zm-4.856 27.593c-1.976-1.056.743-4.903-4.38-3.552-2.063.575 3.078 6.513 5.327 6.75 2.49-.237 1.795-1.85-.946-3.197zm5.447 3.2c1.066 4.854 2.075 4.443 2.25 6.867.088 3.097-5.21 1.776-5.92 3.196-.712 1.422-1.658 5.093 1.775 5.33 3.434.236 8.363-1.084 9.355 1.302 2.675 6.714 8.377 5.74 11.037 4.696 3.007-1.204 10.085-7.582 11.7-8.13 2.402-.88-2.25-2.605-4.974-.237-.71.71-6.63 6.75-9.71 6.868-2.25.25-5.733-5.45-5.565-7.46.236-1.422 5.417-.25 6.157-3.198.55-2.106.59-4.382-1.067-4.5-1.656-.118-9.472.947-9.71-.236-1.42-3.433 1.423-4.854.356-5.8-1.184-.475-5.565-1.186-5.683 1.3zm26.33 18.826c-2.507 2.623-9.102 6.825-9.102 9.793 0 1.682 1.84 4.32 3.363 4.946 2.273.895 5.758.67 8.41-1.385 2.998-2.436 4.347-4.906 3.067-5.342-4.535-1.296-4.65 4.954-6.826 5.144-2.08.173-5.242-3.166-1.087-7.32 4.154-4.155 9.892-8.31 9.694-9.498-.198-1.187-5.72 1.848-7.518 3.66zM239.355 333.026c-.185 1.67 4.254 1.68 5.045.197.593-1.088-4.847-1.88-5.045-.197zM254.306 334.13c-2.505 2.622.297 5.606 2.21 8.05 1.06 1.308 3.495 2.58 5.018 3.208 2.272.894 6.8.583 9.452-1.472 3-2.436 3.235-6.714 1.415-6.734-4.706-.053-1.43 6.26-3.606 6.448-2.08.174-7.91-1.14-10.747-7.147-1.62-3.54 2.988-4.216 2.298-5.754-.702-1.654-4.24 1.586-6.038 3.4z" stroke-width=".266625"/><path d="M266.556 333.95c.975 1.37 4.294-1.577 3.896-3.21-.282-1.208-4.868 1.825-3.896 3.21z" stroke-width=".26665500000000003"/><path d="M273.16 346.384c-.134 1.926.436 4.525-1.826 4.613-2.263.086-5.134-2.96-7.397-2.873-2.262.088-3.22 1.827-2.96 2.786.262.957 4.178 2.088 10.88 1.653s5.22 3.655 9.918 3.306c4.7-.35 5.396-1.915 5.048-2.96-.348-1.044-4.35-.347-5.83-.608-1.48-.262-4.09-2.61-4.438-4.612-.35-2.002-.35-5.45 1.392-5.482 3.22-.057 1.733 2.926 1.856 3.972.11.927 1.162 1.887 2.583.204 1.886-2.232.87-5.743-.957-6.96s-7.928 2.275-8.268 6.96zm16.617.35c-.342 3.45-2.812 3.7-2.524 4.96.358 1.445 1.252 1.9 1.827 5.48.328 1.767 2.525 2.515 5.31 2.35 2.275-.06 3.832-3.144 5.307-3.045 2.087.11.348 4.834 5.222 4.786 3.914-.038 4.872-3.395 6.264-3.482 1.392-.088 1.218 3.915 4.438 3.915 3.22 0 4.612-3.655 6.09-3.742 1.568.087 1.568 3.916 6.353 3.655 4.787-.262 8.355-.957 9.486-1.914 1.132-.96 1.655-4.092 3.22-4.266 1.567-.173 4.004 2.958 6.18 2.958s6.7-5.48 8.09-5.567c1.394-.088 2.525 3.393 5.658 3.393 4.873-.087 5.443-6.423 7.712-6.722 4.09-.398 4.252-2.067 4.47-2.503.436-1.218-.03-6.93-.96-9.54-.45-1.377-5.652-12.998-8-13.26-2.35-.26-1.655 3.134-.263 5.135 1.394 2.002 8.528 11.312 7.57 14.01-.956 2.698-6.003-1.13-10.006-1.13-5.568 0-8.95 11.258-12.878 11.66-1.724.185-3.567-1.48-2.957-2.7 1.13-1.738 2.435-5.914-1.915-5.305-4.352.608-8.788 2.61-8.093 4.96.697 2.35 3.306 4.7.435 5.655s-7.83 1.22-10.268.436c-2.437-.784-.958-6.266-2.437-6.266-1.653 0-1.74 6.44-4.09 6.613-2.348.174-4.437-.783-4.96-2.61-.522-1.827.87-4.09-.696-4.352-1.565-.26-3.132 7.224-5.48 7.05s-2.437-.696-3.83-2.176c-1.392-1.48 1.218-6.526-1.13-6.96-2.35-.436-4.7 7.483-6.266 7.396-1.568-.087-3.918-.174-4.613-1.74-.347-.784-.25-5.683-.172-7.67-.044-.94-2.263-.527-2.09.533zm79.1-21.324c4.286 6.49 8.15 15.272 10.53 15.75 1.582.232-4.962-11.746-7.137-14.445-1.828-2.784-7.082-6.964-3.394-1.305z" stroke-width=".266625"/><path d="M342.16 613.74c-1.144 2.287-.735 4.493 1.225 4.166s4.492-4.166 3.84-4.9-3.513-1.39-5.065.734z" transform="matrix(.5597 0 0 .689 97.875 -81.5)"/><path d="M381.475 328.29c-.014 3.52 2.478 7.5 7.117 7.25 4.64-.25 9.725-5.38 10.1-10.646s-6.122-9.132-7.752-8.003c-1.63 1.13.612 5.056 4.776 5.298 1.782.108 1.2 3.595-2.217 6.354-3.58 2.83-8.88 2.776-10.176.823-1.003-2.758-1.915-2.778-1.85-1.076z" stroke-width=".266625"/><path d="M384.27 317.624c-.68 1.394.735 4.608 2.27 4.466 1.554-.152-1.773-5.388-2.27-4.466zm13.615-2.495c.903 2.087 1.976 5.27 3.88 5.27s3.44.512 3.44 2.123-4.962 6.972-5.124 8.786c-.276 3.09 1.978 2.928 3.075 1.243 1.098-1.683 4.067-9.603 4.686-11.788.27-1.726 2.404-4.97 2.49-8.347-.136-3.806 3.367-.73 5.052-.583 1.543.067 3.22-2.783 3.44-4.833.22-2.05-1.61-2.416-1.61-4.246 0-1.025 1.958-4.32 2.05-6.516.218-1.943-3.807-7.54-5.49-7.468-1.392.073-.22 2.123.585 3.002.804.88 2.854 2.71 2.123 4.32-1.32 3.148-7.762 3.952-8.054 7.32-.293 2.417.292 10.03-1.685 10.03s-3.593-4.755-6.66-4.758c-3.44-.093-2.91 4.852-2.197 6.443zm5.055-28.918c.095 1.356 2.93 7.248 4.612 7.248 2.416 0-1.098-2.78-.88-3.806s3.683-2.57 2.272-2.93c-2.524-.772-6.13-2.303-6.003-.512zm-.22-7.614c.51 1.903 8.345 4.758 11.713 5.71s7.468 4.98 9.006 3.66c1.537-1.317-10.323-6.002-12.08-6.66s-9.006-4.614-8.64-2.71zm23.647 12.3c2.93.072 1.318-5.71.586-7.103-.733-1.39-1.83 2.636-1.684 3.808.145 1.17.22 3.22 1.097 3.295zm-17.056-28.774c-.024 1.31 8.092.38 11.86 1.39 1.628.456 7.175 3.442 8.2 2.71 1.172-1.538-7.54-4.833-12.52-4.833-1.61.026-7.51-.81-7.54.734zm-2.125 3.733c-1.453 1.555 4.894 3.294 10.542 3.513 5.627.22 9.272 3.6 8.786 6.077-.805 4.174-7.834 1.463-6.955 3.733.512 1.758 3.603 1.113 3.953 3.003.243 1.904 2.227 2.24 2.122-.11-.012-1.866 4.358-4.942 4.25-5.82-.22-1.756-2.856-7.907-9.592-8.566-6.735-.66-11.25-3.904-13.105-1.83z" stroke-width=".266625"/></g><path d="M227.17 306.975c-.902-.522-4.12 2.37-2.966 3.017 2.19 1.24 4.34-2.25 2.967-3.017zm6.914-3.44c-1.563-.194-2.318 3.125-1.01 3.32 3.322.46 3.977-2.96 1.01-3.32zm168.506 9.312c-.74-.004-3.076 1.025-2.27 2.636.806 1.61 3.117 1.65 4.174.733.942-.892.73-3.354-1.904-3.37zm9.152-7.035c.237 1.772 1.532 1.485 2.562 1.098 1.172-.512 1.514-2.06.367-2.635-1.194-.598-3.17.273-2.927 1.537zm-52.907 41.418c-1.578 3.485-.22 6.893 2.297 6.237s5.032-5.47 3.173-7.003-4.423-1.548-5.47.766z" stroke="#cf1126" stroke-width=".088" fill="#cf1126"/><g fill="#cf1126"><path d="M146.545 202.67c-5.87-.535-19.21-3.204-19.745-.535-.533 2.668 7.205 33.89 11.207 37.89 4.002 4.004 22.68 12.543 24.548 11.476 1.867-1.066-3.736-20.545-5.87-24.014-2.135-3.47-8.54-16.01-8.005-16.544.533-.532-2.402-8.27-2.135-8.27z"/><path d="M134.792 201.565c1.43-7.51 10.163 1.48 9.298 11.262-.427 3.32 1.43 6.977 3.22 8.765" stroke="#000" stroke-width="1.7774999999999999"/><path d="M142.3 201.92l-.327.437c4.38-7.41 8.614 3.14 9.268 15.3m-24-16.895c-.252-6.07 9.606-7.813 8.995 14.127 4.3 2.78 9.357 13.4 9.61 17.195 3.226.76 8.598 4.726 9.906 8.013" stroke="#000" stroke-width="1.7774999999999999"/><path d="M151.415 322.335c.46-16.705.724-52.476-1.025-56.356-3.076-7.185-18.55-15.514-23.266-26.807-4.72-11.948-8.745-39.2-6.828-42.486 2.51-4.735 10.875 5.816 8.6 17.45 10.115 11.886 7.988 18.966 9.86 20.484 6.24 4.805 15.764 8.093 17.45 12.392 3.467 7.69-.758-10.875-3.54-14.668-2.78-3.793-7.588-12.138-4.3-14.16 3.288-2.024 9.104 3.287 9.862 4.804s8.6 10.116 10.875 12.14c4.046 3.034 14.266 9.818 14.062 15.632-.01 9.402.825 71.25.825 71.25m-34.46 22.345s-.063 6.724-.063 6.85c2.918 3.553 15.098 3.948 17.824 3.932 2.668-.078 14.13.128 16.792-4.25.064-.127.165-5.71.165-7.246" stroke="#000" stroke-width="1.7774999999999999"/><path d="M148.983 334.424c-3.373.75-4.255 4.872-1.875 7.873 1.93 2.435 9.935 5.248 19.12 5.437 9.184.184 21.368-3 21.93-8.062.188-5.06-4.565-4.752-4.003-4.564" stroke="#000" stroke-width="1.7774999999999999"/><path d="M148.983 325.115c-3.373.75-4.004 5-1.624 8 1.93 2.434 10.058 5.81 19.242 5.998 9.185.187 20.807-3.562 21.37-8.622.187-5.06-3.31-4.624-3.563-4.498" stroke="#000" stroke-width="1.7774999999999999"/><path d="M168.102 330.3c12.183.186 20.056-5.812 20.056-8.998 0-3.186-3.936-3.374-6.374-2.437-2.436.936-6.185 3.316-14.056 3.373-8.06.245-15.183-5.623-17.62-5.436-2.437.187-4.346 2.83-3.562 5.623.965 2.77 9.56 8.248 21.556 7.872z" stroke="#000" stroke-width="1.7774999999999999"/></g><g fill="#cf1126"><path d="M493.456 202.67c5.87-.535 19.21-3.204 19.745-.535.536 2.668-7.202 33.89-11.204 37.89-4.002 4.004-22.68 12.543-24.548 11.476-1.867-1.066 3.736-20.545 5.87-24.014 2.135-3.47 8.54-16.01 8.005-16.544-.533-.532 2.402-8.27 2.134-8.27z"/><path d="M505.215 201.565c-1.43-7.51-10.163 1.48-9.298 11.262.427 3.32-1.43 6.977-3.22 8.765" stroke="#000" stroke-width="1.7774999999999999"/><path d="M497.707 201.92l.327.437c-4.38-7.41-8.614 3.14-9.268 15.3m24-16.895c.253-6.07-9.605-7.813-8.994 14.127-4.3 2.78-9.357 13.4-9.61 17.195-3.226.76-8.598 4.726-9.906 8.013" stroke="#000" stroke-width="1.7774999999999999"/><path d="M488.592 322.335c-.46-16.705-.724-52.476 1.025-56.356 3.076-7.185 18.55-15.514 23.266-26.807 4.72-11.948 8.745-39.2 6.828-42.486-2.51-4.735-10.874 5.816-8.598 17.45-10.116 11.886-7.99 18.966-9.86 20.484-6.24 4.805-15.765 8.093-17.45 12.392-3.468 7.69.757-10.875 3.54-14.668 2.78-3.793 7.587-12.138 4.298-14.16-3.287-2.024-9.103 3.287-9.86 4.804s-8.6 10.116-10.876 12.14c-4.046 3.034-14.266 9.818-14.062 15.632.01 9.402-.825 71.25-.825 71.25m34.46 22.345s.063 6.724.063 6.85c-2.918 3.553-15.098 3.948-17.824 3.932-2.667-.078-14.128.128-16.79-4.25-.065-.127-.166-5.71-.166-7.246" stroke="#000" stroke-width="1.7774999999999999"/><path d="M491.024 334.424c3.373.75 4.255 4.872 1.875 7.873-1.932 2.435-9.936 5.248-19.12 5.437-9.185.184-21.37-3-21.93-8.062-.19-5.06 4.564-4.752 4.002-4.564" stroke="#000" stroke-width="1.7774999999999999"/><path d="M491.024 325.115c3.373.75 4.004 5 1.624 8-1.93 2.434-10.06 5.81-19.243 5.998-9.185.187-20.807-3.562-21.37-8.622-.187-5.06 3.31-4.624 3.563-4.498" stroke="#000" stroke-width="1.7774999999999999"/><path d="M471.905 330.3c-12.183.186-20.056-5.812-20.056-8.998 0-3.186 3.935-3.374 6.373-2.437 2.436.936 6.185 3.316 14.056 3.373 8.058.245 15.182-5.623 17.62-5.436 2.436.187 4.345 2.83 3.56 5.623-.964 2.77-9.56 8.248-21.555 7.872z" stroke="#000" stroke-width="1.7774999999999999"/></g></g></svg>