<svg xmlns="http://www.w3.org/2000/svg" height="480" width="640" version="1"><defs><clipPath id="a"><path fill-opacity=".67" d="M0 0h640v480H0z"/></clipPath></defs><g clip-path="url(#a)"><path fill-rule="evenodd" fill="#fff" d="M-148.86 135.66h936.34v170.15h-936.34z"/><path fill-rule="evenodd" fill="#003e9f" d="M-148.01 289.76h938.16V480h-938.16z"/><path fill-rule="evenodd" fill="#d61517" d="M-150.15 0h939.68v159.51h-939.68z"/><g transform="matrix(1.24 0 0 1.24 -78.77 -50.05)"><path d="M242.64 155.17c24.536-8.728 51.74-13.437 78.33-13.504 26.588-.067 53.704 4.105 80.498 13.706l19.944-40.235-14.018-24.42s-25.01 10.274-25.216 10.274c-.205 0-17.635-19.18-17.635-19.18l-22.39 13.523-21.01-16.073-19.78 15.824-23.08-13.34-16.83 20.008-25.24-10.792-13.51 24.195 19.932 40.015z" fill-rule="evenodd" stroke="#e5141d" stroke-linecap="round" stroke-width="1.066" fill="#fff"/><path d="M370.5 144.01l11.42-40.37 24.457-9.926 12.885 21.634-18.5 37.84c-10.634-4.25-16.33-6.07-30.263-9.178z" fill-rule="evenodd" stroke="#0084fd" stroke-width=".355" fill="#00a7bd"/><path d="M273.69 144.11l-10.675-39.69 16.06-19.712 22.855 13.194 3.857 41.72c-11.167.83-19.238 1.89-32.098 4.488z" fill="none"/><path d="M306.1 139.64l-3.857-41.81 19.437-15.45 20.307 15.41-3.59 41.887c-11.188-.592-19.18-.574-32.297-.038z" fill-rule="evenodd" stroke="#0084fd" stroke-width=".355" fill="#00a7bd"/><path d="M243.61 153.16l-18.117-38.322L237.6 93.683l25.1 10.924 10.605 39.535c-11.46 2.37-17.528 4.306-29.695 9.017z" stroke-opacity=".996" fill-rule="evenodd" stroke="#0084fd" stroke-width=".355" fill="#00a7bd"/><path d="M237.97 131.93c5.705 1.155 9.77 1.196 14.885-.206 6.11-2.503 8.27-5.872 10.26-8.58.925 5.72-.042 10.904-7.022 14.562-6.266 2.887-14.717 1.072-18.123-5.775z" fill-rule="evenodd" stroke="#fff" stroke-width=".355" fill="#fff"/><g stroke-width="1pt" transform="matrix(.27 0 0 .26 215.86 72.49)"><path d="M410.94 120.56l-4.063 1.016.156 7.5-5 1.094-3.497 6.614 2.16 2.044c.11.22-1.704 4.892-1.626 4.892s1.323 1.762 1.323 1.762l1.328 4.063 3.36.468.86 4.766 5.313.857 4.922 3.516.312 2.188 5.625.157 3.83 1.25 13.36-1.563 1.796-2.812.156-3.828 7.188-.235.657-6.106h3.81l-.476-6.875 3.177.285-.82-3.295-1.975-2.682-.39-4.218-5.625-5.625-1.25-7.344s-3.595-1.64-3.595-1.717-.234-4.922-.234-4.922l4.064-5.702-.39-2.265-3.75-.08-2.813 2.345s-3.75.39-3.75.47v1.718s.94 3.203.94 3.28-4.298 0-4.298 0l-.156-5.077-6.093-3.048s-5.702 3.907-5.702 3.985-.312 4.532-.312 4.532l-2.734.78-2.812-4.22-4.922-1.875-2.656-.156-.078 3.28 5.156 6.797-.468 3.984z" stroke-opacity=".996" fill-rule="evenodd" fill-opacity=".996" stroke="#544b20" fill="#faf703"/><path d="M449.23 148.04l-1.105-4.088m4.205-2.652l-1.878-2.762" stroke="#544b20" fill="none"/><path d="M400.84 138.21l5.856-.332 1.105 5.303 1.99 1.77.33 9.723 1.88.773.553-3.867 4.53-.33.883 7.842-1.104.996.443 1.215 5.413-.11s1.216-2.1 1.326-2.1c.11 0 3.094-.33 3.094-.22 0 .11 1.215 2.32 1.215 2.32l.885-2.983s2.873-1.215 2.873-1.104c0 .11 2.32 3.756 2.32 3.756l3.978-.553-2.43-2.32-.995-5.084 5.524-2.983 2.21 3.758s2.1.11 1.99 0c-.112-.11-2.432-4.31-2.432-4.31v-8.837l4.2-5.745 5.854-.663v-2.43l-5.856-5.415-1.546-7.513-3.315-1.657-.885.994-3.646.333 3.645 5.414v3.536l1.658.884-.332 9.723s-4.087.55-4.087.662c0 .11-.33 5.413-.33 5.413l-2.542 2.542s-1.436 5.082-1.546 5.082c-.11 0-2.43 3.092-2.43 3.092l-4.53.11s-2.652-2.54-2.652-2.65c0-.11-.442-3.757-.442-3.757s-1.768-.553-1.88-.553c-.11 0-.993-4.088-.993-4.088l-3.093-1.767-.22-2.43-2.984-1.328s-.332-2.21-.443-2.32c-.11-.11-1.436-.994-1.546-.994-.11 0-.11-6.077-.11-6.077l2.652-.442-1.485-1.94-.503-1.706v-1.767l2.21-2.21s-3.978-.552-3.978-.442c0 .112-3.867 1.77-3.867 1.66.11 0-.112 7.18-.112 7.18l-4.53 1.437-3.645 5.855 1.878 1.658z" fill-rule="evenodd" stroke="#544b21" fill="#544b20"/><path d="M423.71 148.04l2.983-1.768-.11-3.425-2.873-.663-1.106-1.105 3.205.55 3.975-.33 1.326-.664c-.55 1.437-.993 1.326-1.104 1.326-.11 0-2.21 1.105-2.21 1.105l.11 3.315s6.85.883 6.74.883c-.11 0 0 1.326-.22 1.326s-7.07-1.546-7.07-1.546l-4.31 2.652.663-1.657zm17.24-20.55l-3.977 3.093-2.54 4.53-1.327.22-3.867-5.192-4.42.113s-2.43 6.076-2.43 6.187c0 .11-1.77-.222-1.77-.222l-4.64-5.082s-1.437-2.542-1.216-2.542 11.6.11 11.6.11l-.11-5.523s-1.767-.55-2.65-1.103c.662-.22 6.297-.22 6.297-.22l-2.43 1.656v4.75l10.054.11 3.425-.882z" fill-rule="evenodd" stroke="#544b20" fill="#544b20"/><rect fill-rule="evenodd" fill-opacity=".996" ry="1.326" height="2.652" width="2.652" y="130.14" x="419.51" fill="#796a3a"/><rect fill-rule="evenodd" ry="1.326" height="2.652" width="2.652" y="129.59" x="432.11" fill="#7a6b3a"/><path d="M413.55 121.3c4.198-1.694 7.18-3.056 12.374-3.535 4.898-.516 8.692.184 13.037.994" stroke="#544b20" fill="none"/><path d="M415.87 112.35h-3.425l-4.862-5.193 2.763.332 3.204 1.434 2.32 3.425zm20.66-1.99l7.734-5.965-2.54-.332-2.874 2.65-3.425.554 1.105 3.093zm-4.56 1.1l-12.123.45.11-1.325 4.42-.442.552-1.767s1.324-.11 1.324 0 .994 1.657.994 1.657l4.308.773.412.654zm-.63-4.63l-4.198.11-.332-2.32 4.53 2.21zm-7.08-2.1l-.332 2.32-4.087.662 4.42-2.982zm-23.2 42.31l2.1-5.303-1.88-3.646-1.877 5.416 1.657 3.535zm4.2 2.88l2.54-6.298-4.86 5.082 2.32 1.216z" fill-rule="evenodd" stroke="#544b20" fill="#544b20"/></g><g stroke-width="1pt" transform="matrix(.27 0 0 .26 197.81 73.07)"><path d="M410.94 120.56l-4.063 1.016.156 7.5-5 1.094-3.497 6.614 2.16 2.044c.11.22-1.704 4.892-1.626 4.892s1.323 1.762 1.323 1.762l1.328 4.063 3.36.468.86 4.766 5.313.857 4.922 3.516.312 2.188 5.625.157 3.83 1.25 13.36-1.563 1.796-2.812.156-3.828 7.188-.235.657-6.106h3.81l-.476-6.875 3.177.285-.82-3.295-1.975-2.682-.39-4.218-5.625-5.625-1.25-7.344s-3.595-1.64-3.595-1.717-.234-4.922-.234-4.922l4.064-5.702-.39-2.265-3.75-.08-2.813 2.345s-3.75.39-3.75.47v1.718s.94 3.203.94 3.28-4.298 0-4.298 0l-.156-5.077-6.093-3.048s-5.702 3.907-5.702 3.985-.312 4.532-.312 4.532l-2.734.78-2.812-4.22-4.922-1.875-2.656-.156-.078 3.28 5.156 6.797-.468 3.984z" stroke-opacity=".996" fill-rule="evenodd" fill-opacity=".996" stroke="#544b20" fill="#faf703"/><path d="M449.23 148.04l-1.105-4.088m4.205-2.652l-1.878-2.762" stroke="#544b20" fill="none"/><path d="M400.84 138.21l5.856-.332 1.105 5.303 1.99 1.77.33 9.723 1.88.773.553-3.867 4.53-.33.883 7.842-1.104.996.443 1.215 5.413-.11s1.216-2.1 1.326-2.1c.11 0 3.094-.33 3.094-.22 0 .11 1.215 2.32 1.215 2.32l.885-2.983s2.873-1.215 2.873-1.104c0 .11 2.32 3.756 2.32 3.756l3.978-.553-2.43-2.32-.995-5.084 5.524-2.983 2.21 3.758s2.1.11 1.99 0c-.112-.11-2.432-4.31-2.432-4.31v-8.837l4.2-5.745 5.854-.663v-2.43l-5.856-5.415-1.546-7.513-3.315-1.657-.885.994-3.646.333 3.645 5.414v3.536l1.658.884-.332 9.723s-4.087.55-4.087.662c0 .11-.33 5.413-.33 5.413l-2.542 2.542s-1.436 5.082-1.546 5.082c-.11 0-2.43 3.092-2.43 3.092l-4.53.11s-2.652-2.54-2.652-2.65c0-.11-.442-3.757-.442-3.757s-1.768-.553-1.88-.553c-.11 0-.993-4.088-.993-4.088l-3.093-1.767-.22-2.43-2.984-1.328s-.332-2.21-.443-2.32c-.11-.11-1.436-.994-1.546-.994-.11 0-.11-6.077-.11-6.077l2.652-.442-1.485-1.94-.503-1.706v-1.767l2.21-2.21s-3.978-.552-3.978-.442c0 .112-3.867 1.77-3.867 1.66.11 0-.112 7.18-.112 7.18l-4.53 1.437-3.645 5.855 1.878 1.658z" fill-rule="evenodd" stroke="#544b21" fill="#544b20"/><path d="M423.71 148.04l2.983-1.768-.11-3.425-2.873-.663-1.106-1.105 3.205.55 3.975-.33 1.326-.664c-.55 1.437-.993 1.326-1.104 1.326-.11 0-2.21 1.105-2.21 1.105l.11 3.315s6.85.883 6.74.883c-.11 0 0 1.326-.22 1.326s-7.07-1.546-7.07-1.546l-4.31 2.652.663-1.657zm17.24-20.55l-3.977 3.093-2.54 4.53-1.327.22-3.867-5.192-4.42.113s-2.43 6.076-2.43 6.187c0 .11-1.77-.222-1.77-.222l-4.64-5.082s-1.437-2.542-1.216-2.542 11.6.11 11.6.11l-.11-5.523s-1.767-.55-2.65-1.103c.662-.22 6.297-.22 6.297-.22l-2.43 1.656v4.75l10.054.11 3.425-.882z" fill-rule="evenodd" stroke="#544b20" fill="#544b20"/><rect fill-rule="evenodd" fill-opacity=".996" ry="1.326" height="2.652" width="2.652" y="130.14" x="419.51" fill="#796a3a"/><rect fill-rule="evenodd" ry="1.326" height="2.652" width="2.652" y="129.59" x="432.11" fill="#7a6b3a"/><path d="M413.55 121.3c4.198-1.694 7.18-3.056 12.374-3.535 4.898-.516 8.692.184 13.037.994" stroke="#544b20" fill="none"/><path d="M415.87 112.35h-3.425l-4.862-5.193 2.763.332 3.204 1.434 2.32 3.425zm20.66-1.99l7.734-5.965-2.54-.332-2.874 2.65-3.425.554 1.105 3.093zm-4.56 1.1l-12.123.45.11-1.325 4.42-.442.552-1.767s1.324-.11 1.324 0 .994 1.657.994 1.657l4.308.773.412.654zm-.63-4.63l-4.198.11-.332-2.32 4.53 2.21zm-7.08-2.1l-.332 2.32-4.087.662 4.42-2.982zm-23.2 42.31l2.1-5.303-1.88-3.646-1.877 5.416 1.657 3.535zm4.2 2.88l2.54-6.298-4.86 5.082 2.32 1.216z" fill-rule="evenodd" stroke="#544b20" fill="#544b20"/></g><path d="M338.69 139.62l3.613-41.935 22.207-12.777 17.166 18.605-11.44 40.4c-11.09-2.263-17.416-3.234-31.546-4.293z" stroke-opacity=".996" fill-rule="evenodd" stroke="#001071" stroke-width=".355" fill="#001070"/><g stroke-width="1pt" transform="matrix(.27 0 0 .26 207.16 88.74)"><path d="M410.94 120.56l-4.063 1.016.156 7.5-5 1.094-3.497 6.614 2.16 2.044c.11.22-1.704 4.892-1.626 4.892s1.323 1.762 1.323 1.762l1.328 4.063 3.36.468.86 4.766 5.313.857 4.922 3.516.312 2.188 5.625.157 3.83 1.25 13.36-1.563 1.796-2.812.156-3.828 7.188-.235.657-6.106h3.81l-.476-6.875 3.177.285-.82-3.295-1.975-2.682-.39-4.218-5.625-5.625-1.25-7.344s-3.595-1.64-3.595-1.717-.234-4.922-.234-4.922l4.064-5.702-.39-2.265-3.75-.08-2.813 2.345s-3.75.39-3.75.47v1.718s.94 3.203.94 3.28-4.298 0-4.298 0l-.156-5.077-6.093-3.048s-5.702 3.907-5.702 3.985-.312 4.532-.312 4.532l-2.734.78-2.812-4.22-4.922-1.875-2.656-.156-.078 3.28 5.156 6.797-.468 3.984z" stroke-opacity=".996" fill-rule="evenodd" fill-opacity=".996" stroke="#544b20" fill="#faf703"/><path d="M449.23 148.04l-1.105-4.088m4.205-2.652l-1.878-2.762" stroke="#544b20" fill="none"/><path d="M400.84 138.21l5.856-.332 1.105 5.303 1.99 1.77.33 9.723 1.88.773.553-3.867 4.53-.33.883 7.842-1.104.996.443 1.215 5.413-.11s1.216-2.1 1.326-2.1c.11 0 3.094-.33 3.094-.22 0 .11 1.215 2.32 1.215 2.32l.885-2.983s2.873-1.215 2.873-1.104c0 .11 2.32 3.756 2.32 3.756l3.978-.553-2.43-2.32-.995-5.084 5.524-2.983 2.21 3.758s2.1.11 1.99 0c-.112-.11-2.432-4.31-2.432-4.31v-8.837l4.2-5.745 5.854-.663v-2.43l-5.856-5.415-1.546-7.513-3.315-1.657-.885.994-3.646.333 3.645 5.414v3.536l1.658.884-.332 9.723s-4.087.55-4.087.662c0 .11-.33 5.413-.33 5.413l-2.542 2.542s-1.436 5.082-1.546 5.082c-.11 0-2.43 3.092-2.43 3.092l-4.53.11s-2.652-2.54-2.652-2.65c0-.11-.442-3.757-.442-3.757s-1.768-.553-1.88-.553c-.11 0-.993-4.088-.993-4.088l-3.093-1.767-.22-2.43-2.984-1.328s-.332-2.21-.443-2.32c-.11-.11-1.436-.994-1.546-.994-.11 0-.11-6.077-.11-6.077l2.652-.442-1.485-1.94-.503-1.706v-1.767l2.21-2.21s-3.978-.552-3.978-.442c0 .112-3.867 1.77-3.867 1.66.11 0-.112 7.18-.112 7.18l-4.53 1.437-3.645 5.855 1.878 1.658z" fill-rule="evenodd" stroke="#544b21" fill="#544b20"/><path d="M423.71 148.04l2.983-1.768-.11-3.425-2.873-.663-1.106-1.105 3.205.55 3.975-.33 1.326-.664c-.55 1.437-.993 1.326-1.104 1.326-.11 0-2.21 1.105-2.21 1.105l.11 3.315s6.85.883 6.74.883c-.11 0 0 1.326-.22 1.326s-7.07-1.546-7.07-1.546l-4.31 2.652.663-1.657zm17.24-20.55l-3.977 3.093-2.54 4.53-1.327.22-3.867-5.192-4.42.113s-2.43 6.076-2.43 6.187c0 .11-1.77-.222-1.77-.222l-4.64-5.082s-1.437-2.542-1.216-2.542 11.6.11 11.6.11l-.11-5.523s-1.767-.55-2.65-1.103c.662-.22 6.297-.22 6.297-.22l-2.43 1.656v4.75l10.054.11 3.425-.882z" fill-rule="evenodd" stroke="#544b20" fill="#544b20"/><rect fill-rule="evenodd" fill-opacity=".996" ry="1.326" height="2.652" width="2.652" y="130.14" x="419.51" fill="#796a3a"/><rect fill-rule="evenodd" ry="1.326" height="2.652" width="2.652" y="129.59" x="432.11" fill="#7a6b3a"/><path d="M413.55 121.3c4.198-1.694 7.18-3.056 12.374-3.535 4.898-.516 8.692.184 13.037.994" stroke="#544b20" fill="none"/><path d="M415.87 112.35h-3.425l-4.862-5.193 2.763.332 3.204 1.434 2.32 3.425zm20.66-1.99l7.734-5.965-2.54-.332-2.874 2.65-3.425.554 1.105 3.093zm-4.56 1.1l-12.123.45.11-1.325 4.42-.442.552-1.767s1.324-.11 1.324 0 .994 1.657.994 1.657l4.308.773.412.654zm-.63-4.63l-4.198.11-.332-2.32 4.53 2.21zm-7.08-2.1l-.332 2.32-4.087.662 4.42-2.982zm-23.2 42.31l2.1-5.303-1.88-3.646-1.877 5.416 1.657 3.535zm4.2 2.88l2.54-6.298-4.86 5.082 2.32 1.216z" fill-rule="evenodd" stroke="#544b20" fill="#544b20"/></g><path d="M344.2 132.11l-1.113 1.302.086 1.092 2.31-.042c.743-.175.93-.434 1.07-.735.23-.37.073-.574.13-1.07l-2.483-.547zm5.56 3.27l-.942.882v1.008l2.055-.042c.742-.175.842-.308.985-.61.228-.37.157-.363.214-.86l-2.312-.378zm9.03-2.81l-1.07 1.092.043.84 2.183.084c.742-.175.627-.14.856-.525.228-.37.157-.446.214-.943l-2.226-.546zm6.38 1.97l-1.24 1.05v1.05l2.31.21c.742-.175.8-.392.985-.65.228-.372.114-.407.17-.904l-2.225-.756z" stroke-opacity=".997" fill-rule="evenodd" stroke="#a0210c" stroke-width=".355" fill="#a0210c"/><path d="M349.63 107.08l4.366 2.898c.82-.68 2.53-.27 3.198-.08 1.2.314 2.047 1.025 3.095 1.214 1.917.482 4.215.815 5.955.626 1.74-.19 3.203-1.1 4.488-1.76v-.42h-.856c-1.39.5-3.337.527-4.828.33s-1.894-.863-4.12-1.506l-.17-.42c2.7.128 3.25.058 4.38-.435 1.107-.293 1.605-.935 2.23-1.378l-.018-.5-.814-.04c-1.05.697-1.717.823-3.322.676-1.46-.147-2.777-.98-3.757-.997-1.04.007-.99-.49-1.996-.538-1.6-.14-3.326.073-4.838.437-1.813.545-2.084 1.007-2.997 1.89z" fill-rule="evenodd" stroke="#000" stroke-width=".355" fill="#a0210c"/><path d="M350.48 106.43c.418.095.887.215 1.228.41.343.195.254.19.62.46-.058-.348-.04-.323-.277-.596-.235-.274-.623-.522-.936-.746l-.633.472zm3.65 3.13c.008-.377-.186-.704-.33-1.03-.143-.328-.26-.606-.53-.933.336.095.522.24.81.584.286.346.27.69.33 1.18l-.28.2zm.83-4.59c.1.26.3.44.47.997.144.507.214 1.215.214 1.215-.055-.377.042-.804-.013-1.18-.053-.378-.26-.705-.315-1.082l-.354.05zm3.55.22l.177 2.088.203-1.964-.38-.124zm-.86 4.32c.085-.34.068-.68.025-1.02-.042-.34-.16-.628-.28-1.018.34.29.475.655.66 1.044 0 .39-.1.73-.405.994zm3.67-.91c.013 0 .108.708-.054 1.218-.16.51-.275.547-.58.82.406-.298.76-.397.887-.72.127-.498-.202-1.243-.253-1.318zm.64-.68c-.253.04-.304-1.01-.456-1.516.11-.058.22-.042.33.2.118.14.084.877.126 1.316zm2.5-.42l.1-.87.28-.025v.746c0 .027-.354.176-.38.15zm-.2 2.34c.16.265.448.58.48.87.035.29-.058.43-.277.87l.405.025c.22-.352.287-.605.254-.882a1.165 1.165 0 0 0-.456-.783l-.406-.1zm3.02.22l.1 1.218.33-.174-.075-1.044h-.355z" fill-rule="evenodd" stroke="#000" stroke-width=".355"/><path d="M349.36 107.29c-.988.286-1.346.832-1.83 1.304l-2.783-1.41c-.452.374-.626.91-.41 1.457.22.55 1.092 1.407 1.713 1.83-.155.757-.385 1.328-.656 1.99-.303.747-.953 1.69-.972 1.99-.037.348-.15 1.09.368 1.288.518.198 2.185-.137 2.74-.1-.09.297-.306.818-.232 1.04.073.224.223.3.675.312-.13.275-.41.625-.276.79.35.265.75.22 1.086.198-.53.616-1.858 1.8-2.288 2.33-.455.616-.494 1.28.388 1.216-.328.364-.644.715-.594 1.03.074.375.263.628.894.41-.373.844-.128 1.6.004 2.482-.32.667-.184 1.284-.263 2.05-.65.367-.73.846-1.152 1.585-.38.8-1.09 1.02-1.482 2.737l2.55.635c.093-.352.426-.58.52-.934.093-.353.086-.793.04-1.183.506-.732 1.53-2.243 1.857-3.05.556-.296.96-.482 1.378-.482.418 0 .683.248 1.126.484-.195.68-.744 1.42-.776 2.37v2.628c-.11.652-.853.66-1.166 2.625l2.288.593c.388-.66 1.004-.752 1.165-1.016l.166-2.728c.29-1.29 2.097-2.354 2.123-3.753.65-.01.893.057 1.15-.075.345-.12.464-.316.733-.56.104.42.435.458.716.458.28 0 .84-.396 1.07-.557.16.23.246.446.584.525.34.08 1.296-.063 1.685-.157l-1.88 3.078c-.07.296.022.48-.124.827-.136.31-.412.46-.536.747l2.133.508.34-.898c.452-.19.815-.294 1.053-.583.237-.29.235-.84.37-1.154.73-.53 1.874-1.676 2.678-2.626.546.092 1.32.543 1.612 1.218.04.723.095 2.053-.23 2.975l-1.382 2.16-.157.355 2.175.775 1.382-1.06.054-1.51c.694-1.225 1.687-1.894 2.633-2.667 0-.043.103-1.622.065-1.684-.233-.18-.39-.072-.474-.398-.08-.327-.025-1.223.02-1.574.136-.17.424-.364.41-.51-.378-.412-.26-1.48-.147-2.315-.028-.95 1.27-2.073 1.468-2.626l.08-.998c-.13-.245-.326-.39-.333-.6-.006-.207.253-.55.41-.77l.276-.47-.044-2.457c-.078-.266-.306-.68-.52-.722-.218-.04-.535.202-.776.47l-1.25.92c-.6.184-1.123.257-2.176-.006l-1.608.032c-.845.235-1.285.273-2.078-.073l-.952.015c-.297.16-.707.42-1.03.483-.32.062-.756.075-1.078-.024-2.456.165-1.846.343-2.548.496-.564-.107-.383-.387-2.575-.408l-.87-.254c-1.096-.727-1.94-1.886-2.67-3.22 2.283-.653 3.24-1.332 3.933-2.89l-3.228.12-4.566-3.033z" fill-rule="evenodd" stroke="#544b20" stroke-width=".355" fill="#dc9103"/><path d="M348.22 111.27l.914.387c.112.133.328.286.47.295.144.01.266-.137.388-.24l.842-.442c-.5-.072-.65-.38-1.18-.38-.53 0-.904.277-1.434.38zm4.01.23c.297.175.836.526 1.28.526.487-.04.48-.382 1.175-.608l1.022-.826c-.616.007-1.948.127-2.68.35-.616.163-.76.407-.797.558zm-2.33 10.56c0 .075-.127.13-.19.04-.08-1.07-.315-1.822-.645-2.656.373.635.683 1.66.835 2.616zm2.61 4.39c-.416.042-.58-.02-.995.023a65.946 65.946 0 0 1-.043-3.08c.16.02.622.504.896 1.267.072.562.175 1.197.142 1.79zm2.76-4.28c.187.05.448.052.51-.072.08-.23-.157-.48-.246-.76-.308-.605-.48-1.26-.608-1.544-.136-.085-.282-.078-.25.064.177.537.48 2.105.594 2.312zm2.94-.32c.02.13-.422-.06-.497-.207-.006-.288-.602-2.39-.503-2.472.125-.06.513.705.638 1.057.03.208.29.972.362 1.624zm-.42 4.33c-.01.147.336.026.473-.085.397-.62.888-1.27 1.032-1.518.087-.265.52-1.953.387-1.94-.048-.05-.425.837-.912 1.712-.507.89-.985 1.744-.98 1.83zm2.96-.91c-.144.07.29-1.46.324-1.73.08-.43.19-1.197.364-2.193.212 1.39-.038 2.884-.688 3.923zm1.77-4.68c-.095.083-1.363-2.014-1.247-2.025.033-.093 1.063 1.313 1.21 1.56.062.117.123.296.037.465zm2.97 1.56c-.095-.07-.057-.74-.245-1.476-.187-.736-.506-1.444-.443-1.645.06-.108.265-.06.43.082.078.4.262 1.935.477 2.933-.005.097-.113.162-.22.104zm2.07-1.86c-.1-.108.276.72.55 1.704.275.984.415 2.722.482 2.598.188-.125.156-.28.45-.345.294-.063 1.387.04 1.323-.034-.676-.603-1.3-1.102-1.765-1.756-.466-.653-.774-1.513-1.04-2.167zm2.56 8.97c-.212.153-.613.275-.73.21-.645-1.34-1.006-2.216-1.903-3.65-.23-.34-.807-.287-.774-.42.02-.156.323-.094.518-.318.197-.224.223-.508.344-.61-.264.618.43 1.566.817 2.32.26.07.464.068.586.22.028.073-.28.124-.24.382l.654 1.318c.212.16.54.248.86.295.082.074-.066.18-.13.253z" fill-rule="evenodd" stroke="#000" stroke-width=".355"/><path d="M370.48 144l11.513-40.577 24.437-9.844 12.96 21.91-18.55 37.67c-10.493-3.965-16.493-6.084-30.36-9.16z" fill="none"/><path d="M371.46 117.54c.404.022.77.058.89-.148.247-.51.39-.93.224-1.26-.634.05-1.113.343-1.372.902.008.194.055.337.258.506z" fill-rule="evenodd" stroke="#000" stroke-width=".355"/><path d="M378.12 117.16c6.27 1.324 12.07 2.83 17.874 4.703 5.803 1.872 11.326 4.11 16.943 6.53l-9.403 18.996c-5.248-2-10.43-3.61-15.613-5.283-5.18-1.675-10.23-3.155-15.48-4.765l5.68-20.183z" fill-rule="evenodd" stroke="#fdfcfc" stroke-width=".355" fill="#fdfcfc"/><path d="M376.87 121.65s8.755 1.953 17.238 4.682c8.484 2.728 16.76 6.23 16.728 6.23-.066 0-5.332 10.85-5.332 10.85-5.113-2.034-10.488-3.94-15.798-5.65-5.31-1.712-10.62-3.358-16.062-4.618l3.225-11.495z" fill-rule="evenodd" stroke="#e6151e" stroke-width=".355" fill="#e6151e"/><path d="M377.6 126.95c.86-.48 1.444-.61 1.908-1.404h3.1l.04 1.13c.762.365 1.206.768 1.968 1.132.762.364 1.842.69 2.603 1.053l6.676.587c.895.143 2.187.52 2.962.975.774.456 1.27 1.028 1.688 1.756 1.37.48 2.743.766 4.154.974 1.41.208 3.18.3 4.55.35.677.236.677.586.36.937 0 0-.757 1.023-2.82 1.033-2.06.01-4.396-1.15-5.41-.994.04.623 1.114 1.91 2.346 2.417l-.04 2.963-.556.507-.597-.39c.478-.7.318-1.52.12-2.222-.458-.663-.517-.936-1.37-.975-1.015-.195-1.75-.468-3.042-1.365l-.477.078c-.278.494-.556.832-1.192 1.13l-1.31-.077s-3.02-.663-3.02-.702c0-.038-.04-.467.04-.506.08-.04 1.032-.04 1.112-.04.636.196 1.988.196 1.988.196l-.04-1.13 2.028-.118c-.41-1.404-.543-2.3-2.425-2.613l-5.883.155.08.82c-1.47-.196-4.134-.23-5.494.22-.795.078-1.94.48-2.456.48l-.596-.155c-.398-.117-.398-.234-.24-.585 2.545-.195 2.943-.39 3.698-.74.04-.234-.278-.742-.398-.78-1.59-.08-2.862.038-3.3-.04-.674-.195-1.59-.545-1.59-.584 0-.04-.118-.623-.078-.623.04 0 1.033.274 1.073.274 1.07.195 2.94.117 3.377-.117l.04-.858c-.04-.39-.32-.74-.398-.78-.08-.04-1.75-.235-2.346-.235-.968-.168-.822-.65-.835-1.13z" stroke-opacity=".996" fill-rule="evenodd" stroke="#010001" stroke-width=".355"/><path d="M390.44 133.89c.9.286 1.564.377 2.902.468l2.027-.117c-.413-1.402-.545-2.3-2.427-2.61l-5.883.155.08.82c1.79.662 2.664 1.026 3.3 1.286z" stroke-opacity=".996" fill-rule="evenodd" fill-opacity=".996" stroke="#010001" stroke-width=".355" fill="#fdfdfd"/><path d="M273.6 143.99l-10.632-39.62 16.223-19.653 22.75 12.986 3.856 41.985c-11.608.86-19.128 1.977-32.196 4.303z" fill-rule="evenodd" fill-opacity=".996" stroke="#011171" stroke-width=".355" fill="#011171"/><path d="M236.92 112.42l3.7 3.26-1.05 5.238 5.13-1.774 3.784 3.26.84-4.827 4.205-1.362-3.197-3.465 1.05-4.785s-5.045 1.485-5.045 1.444-3.365-3.22-3.407-3.18c-.04.043-1.092 4.54-1.092 4.54l-4.92 1.65z" stroke-opacity=".996" fill-rule="evenodd" fill-opacity=".996" stroke="#fdc605" stroke-width=".355" fill="#fbfd10"/><path d="M237.01 112.46l16.483 3.713-4.247 1.444-3.827-3.094s3.11 7.755 3.07 7.714-3.618-3.012-3.744-3.135l.63-4.58s-5.718 6.353-5.718 6.312c0-.04 1.092-5.198 1.092-5.198l-3.742-3.176zm4.79-1.69l3.658 3.506-2.523-8.126-1.135 4.62zm4.5-1.32c.042.04-.883 4.744-.84 4.744.42-.495 5.928-6.23 5.886-6.23-.042 0-4.962 1.527-5.046 1.486z" fill-rule="evenodd" fill="#ffc500"/><path d="M396.21 104.41l.782 4.817-4.18 3.42 5.125 1.792.847 4.867 3.752-3.23 4.14 1.54-.258-4.665 3.888-3.067s-4.873-1.964-4.846-1.996c.026-.033-.548-4.58-.607-4.573-.06.006-3.762 2.85-3.762 2.85l-4.88-1.758z" stroke-opacity=".996" fill-rule="evenodd" fill-opacity=".996" stroke="#fdc605" stroke-width=".355" fill="#fbfd10"/><path d="M396.25 104.49l10.42 13.068-4.225-1.503-.986-4.767s-2.563 7.947-2.57 7.89c-.005-.06-.875-4.575-.894-4.748l3.43-3.168s-8.52 1.402-8.495 1.37c.028-.032 4.187-3.362 4.187-3.362l-.868-4.78z" fill-rule="evenodd" fill="#ffc500"/><path d="M401.06 106.14l.59 4.984 3.258-7.87-3.848 2.886zm4.34 1.76c.006.058-3.73 3.14-3.7 3.165.646-.125 8.605-1.176 8.573-1.2-.033-.027-4.834-1.88-4.873-1.965z" fill-rule="evenodd" fill="#fdc605"/><path d="M263.05 104.52c5.774-2.76 12.255-4.913 19.09-5.852 6.57-.94 13.144-1.02 19.89-1.006 0 0 .884 10.33.884 10.418-5.303.043-9.255-.056-18.608 1.154-9.302 1.29-13.133 2.396-18.79 4.563l-2.465-9.277z" fill-rule="evenodd" stroke="#e6141d" stroke-width=".355" fill="#e6141d"/><path d="M267.99 122.81c-.088 0 2.92 10.93 2.92 10.93 5.554-1.403 11.196-2.458 16.837-3.252 5.642-.795 11.64-1.248 17.106-1.61l-.96-10.66c-5.76-.346-12.323-.346-18.26.434-5.935.78-11.7 2.163-17.635 4.157z" fill-rule="evenodd" fill-opacity=".996" stroke="#e6141d" stroke-width=".355" fill="#e6141d"/><path d="M241.49 156.56h161.16V259.9c-4.096 40.244-42.778 70.327-78.125 70.097-38.155 1.665-80.35-29.566-83.39-70.442l.35-102.99z" fill-rule="evenodd" stroke="#e5141d" stroke-width="1.066" fill="#fff"/><path d="M244.84 160.17h154.45v99.03c-3.926 38.567-40.995 67.395-74.868 67.176-36.565 1.595-77-28.334-79.916-67.506l.336-98.7z" fill-rule="evenodd" stroke="#e5141d" stroke-width="1.022" fill="#d61517"/><rect fill-rule="evenodd" ry="0" height="32.302" width="29.763" y="160.67" x="337.68" fill="#fff"/><rect fill-rule="evenodd" ry="0" height="32.302" width="29.763" y="160.67" x="276.27" fill="#fff"/><rect fill-rule="evenodd" ry="0" height="31.526" width="30.162" y="194.04" x="245.22" fill="#fff"/><rect fill-rule="evenodd" ry="0" height="31.526" width="29.467" y="194.04" x="307.22" fill="#fff"/><rect fill-rule="evenodd" ry="0" height="31.526" width="30.364" y="194.04" x="368.33" fill="#fff"/><rect fill-rule="evenodd" ry="0" height="32.011" width="29.763" y="226.54" x="337.68" fill="#fff"/><rect fill-rule="evenodd" ry="0" height="32.011" width="29.763" y="226.54" x="276.27" fill="#fff"/><rect fill-rule="evenodd" ry="0" height="32.011" width="29.467" y="259.52" x="307.22" fill="#fff"/><path d="M368.52 259.8l.008 31.447 18.122.024c8.268-12.076 11.1-23.84 11.876-31.462-.134 0-29.888-.015-30.006-.007zm-30.66 32.98l.005 31.56c12.89-2.68 23.39-8.788 29.4-13.27l.002-18.303-29.407.013zm-61.36-.06l-.043 17.832c10.125 7.385 21.688 11.707 29.39 13.37l.005-31.19-29.352-.013zm-31.22-32.96c.96 12.356 6.225 23.816 11.88 31.567l18.046-.03.003-31.55-29.93.013z" fill-rule="evenodd" stroke="#fff" stroke-width=".355" fill="#fff"/></g></g></svg>