<svg id="Layer_1" xmlns="http://www.w3.org/2000/svg" viewBox="0 0 682.9 646"><style>.st0{fill:#fff}.st1{fill:url(#SVGID_1_)}.st1,.st2,.st3{opacity:.15}.st2{fill:url(#SVGID_2_)}.st3{fill:url(#SVGID_3_)}</style><path class="st0" d="M590.7 0v276.9H92.3V92.3h369.1V0H0v369.2h369.2v194.5h92.2V369.2h129.3V646h92.2V0z"/><path class="st0" d="M221.5 81.2h92.3v538h-92.3z"/><linearGradient id="SVGID_1_" gradientUnits="userSpaceOnUse" x1="267.64" y1="497.971" x2="267.64" y2="553.716"><stop offset="0" stop-opacity="0"/><stop offset="1"/></linearGradient><path class="st1" d="M313.8 553.7v-56.4h-92.3v56.4z"/><linearGradient id="SVGID_2_" gradientUnits="userSpaceOnUse" x1="-1242.393" y1="1327.063" x2="-1242.393" y2="1382.808" gradientTransform="rotate(180 -413.545 875.995)"><stop offset="0" stop-opacity="0"/><stop offset="1"/></linearGradient><path class="st2" d="M369.2 369.2v56.4h92.2v-56.4z"/><linearGradient id="SVGID_3_" gradientUnits="userSpaceOnUse" x1="187.94" y1="1554.165" x2="187.94" y2="1609.91" gradientTransform="rotate(-90 -438.742 949.695)"><stop offset="0" stop-opacity="0"/><stop offset="1"/></linearGradient><path class="st3" d="M165 276.9h56.5v92.3H165z"/><path transform="rotate(-180 230.724 599.883)" class="st0" d="M0 553.7h461.4V646H0z"/><path class="st0" d="M221.5 276.9h9.2v92.3h-9.2z"/></svg>