<?xml version="1.0" encoding="utf-8"?>
<!-- Generator: Adobe Illustrator 21.0.0, SVG Export Plug-In . SVG Version: 6.00 Build 0)  -->
<svg version="1.1" id="Layer_1" xmlns="http://www.w3.org/2000/svg" xmlns:xlink="http://www.w3.org/1999/xlink" x="0px" y="0px"
	 viewBox="0 0 682.9 646" style="enable-background:new 0 0 682.9 646;" xml:space="preserve">
<style type="text/css">
	.st0{fill:#FFFFFF;}
	.st1{opacity:0.15;fill:url(#SVGID_1_);}
	.st2{opacity:0.15;fill:url(#SVGID_2_);}
	.st3{opacity:0.15;fill:url(#SVGID_3_);}
</style>
<g>
	<polygon class="st0" points="590.7,0 590.7,276.9 92.3,276.9 92.3,92.3 461.4,92.3 461.4,0 0,0 0,369.2 369.2,369.2 369.2,563.7 
		461.4,563.7 461.4,369.2 590.7,369.2 590.7,646 682.9,646 682.9,0 	"/>
	<rect x="221.5" y="81.2" class="st0" width="92.3" height="538"/>
	<linearGradient id="SVGID_1_" gradientUnits="userSpaceOnUse" x1="267.64" y1="497.9709" x2="267.64" y2="553.7158">
		<stop  offset="0" style="stop-color:#000000;stop-opacity:0"/>
		<stop  offset="1" style="stop-color:#000000"/>
	</linearGradient>
	<polygon class="st1" points="313.8,553.7 313.8,497.3 221.5,497.3 221.5,553.7 	"/>
	
		<linearGradient id="SVGID_2_" gradientUnits="userSpaceOnUse" x1="-1242.3932" y1="1327.0635" x2="-1242.3932" y2="1382.8083" gradientTransform="matrix(-1 0 0 -1 -827.0897 1751.9893)">
		<stop  offset="0" style="stop-color:#000000;stop-opacity:0"/>
		<stop  offset="1" style="stop-color:#000000"/>
	</linearGradient>
	<polygon class="st2" points="369.2,369.2 369.2,425.6 461.4,425.6 461.4,369.2 	"/>
	
		<linearGradient id="SVGID_3_" gradientUnits="userSpaceOnUse" x1="187.9399" y1="1554.1652" x2="187.9399" y2="1609.91" gradientTransform="matrix(-6.123234e-17 -1 1 -6.123234e-17 -1388.4371 510.9537)">
		<stop  offset="0" style="stop-color:#000000;stop-opacity:0"/>
		<stop  offset="1" style="stop-color:#000000"/>
	</linearGradient>
	<rect x="165" y="276.9" class="st3" width="56.5" height="92.3"/>
	
		<rect y="553.7" transform="matrix(-1 -1.224647e-16 1.224647e-16 -1 461.4484 1199.7656)" class="st0" width="461.4" height="92.3"/>
	<rect x="221.5" y="276.9" class="st0" width="9.2" height="92.3"/>
</g>
</svg>
