<svg xmlns="http://www.w3.org/2000/svg" height="480" width="640"><path fill-rule="evenodd" fill="#de2110" d="M0 0h640v480H0z"/><path d="M229.27 120.15c7.43-.725 8.94-.628 14.397.784-7.008 3.206-15.293 1.604-20.432-2.95-7.766-7.05-26.26-19.243-19.647-8.855 34.312 38.02 63.863 12.313 81.834 34.207 6.122 7.457 11.527 17.467 8.307 27.3-1.103 3.365-5.08 11.28-9.89 9.27-6.3-2.636 1.192-23.332-3.393-30.066-10.41-15.29-29.27-11.2-44.747-12.85-4.49 12.176-15.305 10.34-25.25 4.2-12.694-7.84-12.312-27.12-23.657-33.49-11.823-6.635-9.896 15.59-7.992 20.87 8.255 22.88 32.555 31.434 54.797 27.366-16.462 25.49-42.552-16.5-55.476-6.216-8.2 6.526 6.285 18.398 11.303 21.12 13.882 7.537 30.563 3.752 44.174-2.273-7.77 8.44-22.072 13.62-33.68 11.907-5.996-.885-18.008-8.42-23.47-3.398-8.432 7.752 12.154 16.947 17.154 18.034 16.854 3.666 28.79-5.227 42.1-13.914-8.357 8.354-17.28 19.794-29.47 22.295-7.6 1.56-24.376-6.196-29.29 1.857-5.87 9.63 9.7 15.722 16.66 15.12 16.488-1.425 31.796-14.69 44.207-24.535-8.53 12.1-21.695 24.905-35.786 30.372-7.395 2.87-20.11-1.57-25.68 4.873-8.577 9.926 10.31 15.785 17.26 14.095 20.29-4.936 31.116-27.138 50.52-34.603-13.16 12.123-27.105 30.905-42.29 39.892-7.543 4.467-19.846-1.007-25.813 5.582-13.486 14.893 20.3 18.076 29.847 10.186 15.988-13.213 23.652-32.155 42.467-43.032-12.547 17.066-28.44 42.55-44.4 56.325-7.6 6.56-24.28.805-29.094 8.097-9.666 14.645 21.51 17.16 29.28 11.984 25.514-16.987 26.908-56.362 58.95-65.88-9.078 19.448-18.138 45.77-39.995 52.627 3.28 9.88 14.875 10.743 22.327 3.54 12.788-12.353 10.148-40.48 32.405-41.43l-16.05 22.5c.853 9.19 17.325-3.137 22.366-11.975h2.106c-8.77 20.92-24.25 32.602-44.206 42.102.39 12.472-7.953 18.897-18.946 23.156-5.916-10.875-21.678-18.964-29.47-6.315 6.183.833 11.71 1.995 12.63 8.42-9.808-3.54-17.548-5.218-21.052 6.315 11.49-1.886 15.415-1.467 17.367 3.554-7.854 9.045-6.573 22.804 7.894 24.14-4.036-2.915-6.756-4.845-4.54-8.748 3.21-4.26 7.007.05 8.868-2.49 3.473-5.07.345-3.3 4.774-1.26 3.63 2.6 9.533-8.27 17.936 10.064 10.106-7.272.383-18.763-3.882-27.367l31.576-6.315 35.786-33.68 2.105 2.104c-11.566 18.2-28.213 33.826-50.52 35.786 7.467 13.542 22.116 6.56 33.68 2.105-5.028 9.812-18.084 9.866-22.466 17.986-8.986 16.652 28.56-.515 30.888-1.146-3 10.567-14.826 12.685-17.9 21.642-2.386 6.954 7.358 7.642 11.497 5.623 7.986-3.898 13.206-14.48 19.033-20.952-2.728 12.63 2.44 22.63-11.47 37.235l21.34 26.246 24.36-26.276c-13.448-11.634-5.19-25.24-7.783-37.86 5.696 6.68 7.635 17.644 15.73 21.61 3.773 1.848 11.564 1.907 10.617-4.31-1.34-8.8-14.273-13.323-17.008-22.958 2.694.89 39.09 17.96 30.72 1.146-3.97-7.968-17.397-8.42-22.3-17.986 11.698 4.504 23.707 10.184 33.68 0-18.538-6.442-46.115-17.413-48.415-39.996l36.386 31.33 30.977 10.772v2.105c-7.55 7.864-11.92 13.35-5.66 22.958l7.7 2.306c-4.935-5.44-3.29-8.247 0-10.396 5.57-2.656 8.92 2.497 11.077-2.82.978-2.58 1.322-3.795 1.818-.644.55 5.58 8.282 1.288 10.984 2.016 4.23 4.166-2.064 8.332-2.765 11.84 11.96-4.19 14.222-11.528 10.525-23.155.79-4.407 3.554-6.512 6.316-6.314 3.136.373 5.614 1.404 8.42 2.105-4.107-10.726-11.355-10.32-21.05-6.314.877-6.425 4.055-9.56 10.524-8.42-4.86-14.586-22.438-2.878-27.366 6.315-11.446-3.796-22.405-10-18.945-23.155-19.344-9.206-37.35-20.612-44.207-42.1h2.104c5.04 8.837 21.185 14.914 20.063 6.71l-13.75-17.24c29.605 1.27 17.812 55.09 54.73 44.207v-4.21c-21.243-11.832-29.97-33.26-39.995-54.73 31.51 9.36 32.553 48.443 57.032 65.51 7.83 5.46 40.78 3.996 31.092-11.615-4.36-7.023-21.737-1.954-29.1-8.096-15.99-13.34-32.073-39.273-44.29-56.325 19.337 12.29 28.593 37.04 48.42 46.968 8.37 4.193 28.214 3.568 25.366-10.88-2.025-10.28-18.514-4.548-25.34-7.474-15.313-6.567-31.962-29.498-44.237-41.245 18.38 8.072 29.276 28.635 48.415 34.41 7.043 2.127 25.233-1.04 20.194-12.45-3.58-8.104-19.61-3.735-26.51-6.22-15.167-5.46-26.823-19.41-37.89-30.477 14.854 8.545 28.29 23 46.31 24.535 6.957.593 25.01-7.663 15.53-16.47-6.167-5.726-18.633.665-26.055-.177-11.957-1.358-22.01-11.9-29.47-20.518 17.387 10.682 71.356 15.232 61.9-7.105-6.564-5.46-13.736 4.05-26.646 4.41-13.528.03-26.944-3.18-38.018-11.712 14.104 4.763 30.29 9.816 44.83 3.004 5.17-2.422 23.68-17.756 11.718-23.02-9.325-4.103-18.936 9.11-26.42 12.454-9.275 4.143-20.097 1.123-29.47-1.186v-2.104c19.225-1.02 38.315-2.114 50.965-19.03 4.153-5.556 14.98-28.308 2.886-32.014-4.825-1.48-8.566 3.34-10.576 6.96-5.907 10.648-32.247 52.934-43.274 23.033-15.51 1.655-34.295-2.425-44.75 12.85-4.64 6.78 2.526 27.583-3.735 30.066-17.69 7.018-5.875-31.64-1.587-36.568 19.063-21.914 70.61-3.047 79.542-33.713.97-8.133-10.62 6.42-16.076 9.947-5.91 3.64-13.416 3.88-19.71 2.682 6.677-3.498 12.04-2.39 16.25-3.092-3.952-6.943-13.014-6.062-15.33-9.908-3.023-5.458-15.08-7.05-21.928-5.967-13.028 2.88-18.04 6.764-42.143.02l10.525 12.63-15.085 6.305 6.665 4.22-12.63 8.422c2.105.7 7.117.705 6.78 2.686l-10.176 17.306c-2.11-3.628-9.056-13.126-10.035-16.77-.49-1.627 2.446-2.387 6.42-3.106l-11.935-8.536 7.713-4.507-16.133-6.02 8.42-12.63c-13.424 8.956-24.947-3.56-40.49.1-6.626 1.507-11.977 8.885-18.216 7.654-5.263-.9-11.397 2.23-15.087 9.087z"/><path d="M132.34 331.3c.65.313 1.848.156 2.03.86-1.224.442-2.682.494-3.906.39.573-1.302 1.225-.807 1.876-1.25zm55.86.23c-.65.313-1.847.156-2.03.86 1.225.442 2.683.494 3.906.39-.572-1.302-1.225-.807-1.876-1.25z" fill-rule="evenodd" fill="#de2110"/></svg>