<svg xmlns="http://www.w3.org/2000/svg" height="480" width="640"><g fill-rule="evenodd"><g stroke-width="1pt"><path fill="#00009d" d="M0 0h213.337v480H0zm426.662 0H640v480H426.662z"/><path fill="#ffd400" d="M213.337 0h213.338v480H213.337z"/></g><path d="M320.308 387.582c11.615.81 5.198-.527 16.813.284l.81-68.884h44.576c-.264-82.27 31.692-151.61 69.823-210.388 2.29-2.95.793-4.217-1.75-3.565-28.78 4.493-58.386 19.602-78.667 40.575-2.366 2.905.34 3.357 1.678 3.185 11.107-3.33 8.92 9.11 8.114 14.1-11.384 36.37-21.32 71.61-24.967 113.458-.004 2.91-.462 5.027-1.842 5.168-5.133.27-10.153.196-15.342.182-1.892.017-2.305-2.073-2.43-4.05.27-42.143-.106-84.284.164-126.425.13-2.78 10.2-14.07 11.838-14.114 5.157-.135 7.33-.008 13.098-.105 1.503-.012 1.825-4.64.106-4.864-3.51 0-10.028-.32-13.54-.32-1.662.064-25.224-17.905-25.28-21.6-.27-5.67-.11-11.236-.38-16.91.31-1.394-6.577-1.715-6.482.11v15.77c-1.18 7.51 3.39 255.422 3.66 278.385z"/><path d="M319.695 387.582c-11.616.81-5.198-.527-16.814.284l-.81-68.884H257.5c.264-82.27-31.692-151.61-69.823-210.388-2.292-2.95-.794-4.217 1.75-3.565 28.777 4.493 58.384 19.602 78.666 40.575 2.367 2.905-.34 3.357-1.677 3.185-11.107-3.33-8.918 9.11-8.113 14.1 11.384 36.37 21.32 71.61 24.966 113.458.004 2.91.462 5.027 1.842 5.168 5.13.27 10.15.196 15.34.182 1.893.017 2.306-2.073 2.43-4.05-.27-42.143.106-84.284-.164-126.425-.13-2.78-10.2-14.07-11.837-14.114-5.157-.135-7.33-.008-13.1-.105-1.5-.012-1.823-4.64-.105-4.864 3.512 0 10.027-.32 13.54-.32 1.662.064 25.223-17.905 25.277-21.6.27-5.67.112-11.236.382-16.91-.31-1.394 6.578-1.715 6.483.11v15.77c1.18 7.51-3.39 255.422-3.66 278.385z"/></g></svg>